<svg width="239" height="280" fill="none" xmlns="http://www.w3.org/2000/svg"><path d="M239 164.625C239 228.345 187.336 280 123.605 280h-32.84C40.637 280 0 239.37 0 189.251c0-50.119 40.637-90.75 90.765-90.75h32.84c36.526 0 66.135 29.605 66.135 66.124 0 36.52-29.609 66.124-66.135 66.124H67.504a3.648 3.648 0 0 1-3.649-3.648v-51.845a22.704 22.704 0 0 0 11.403 3.05c4.153 0 8.048-1.11 11.402-3.05V204.3a3.648 3.648 0 0 0 3.65 3.648h24.173c23.93 0 43.33-19.396 43.33-43.323 0-23.926-19.4-43.322-43.33-43.322H99.887c-37.533 0-67.96 30.421-67.96 67.948 0 37.526 30.427 67.948 67.96 67.948h23.718c51.136 0 92.59-41.447 92.59-92.574 0-51.127-41.454-92.573-92.59-92.573H67.504a3.648 3.648 0 0 1-3.649-3.648V3.648A3.649 3.649 0 0 1 67.504 0H83.01a3.649 3.649 0 0 1 3.65 3.648v45.603-3.648a3.648 3.648 0 0 0 3.648 3.648h54.277c7.305 0 13.227-5.921 13.227-13.225 0-7.304-5.922-13.225-13.227-13.225h-42.874a3.648 3.648 0 0 1-3.649-3.648V3.648A3.649 3.649 0 0 1 101.712 0h51.996c19.9 0 36.032 16.13 36.032 36.026 0 10.61-4.588 20.15-11.888 26.743C214.238 82.18 239 120.51 239 164.625ZM75.258 168.73c7.305 0 13.227-5.921 13.227-13.225 0-7.304-5.922-13.225-13.227-13.225-7.306 0-13.227 5.921-13.227 13.225 0 7.304 5.921 13.225 13.227 13.225Z" fill="url(#a)"/><defs><linearGradient id="a" x1="119.5" y1="280" x2="119.5" y2="0" gradientUnits="userSpaceOnUse"><stop stop-color="#1488CC"/><stop offset="1" stop-color="#2B32B2"/></linearGradient></defs></svg>