<svg width="360" height="1427" fill="none" xmlns="http://www.w3.org/2000/svg"><g clip-path="url(#a)"><rect width="360" height="1427" rx="32" fill="url(#b)"/><g opacity=".2" fill="#fff"><circle cx="63" cy="152" r="3"/><circle cx="63" cy="632" r="3"/><circle cx="63" cy="392" r="3"/><circle cx="63" cy="272" r="3"/><circle cx="63" cy="512" r="3"/><circle cx="63" cy="212" r="3"/><circle cx="63" cy="692" r="3"/><circle cx="63" cy="452" r="3"/><circle cx="63" cy="332" r="3"/><circle cx="63" cy="572" r="3"/><circle cx="93" cy="152" r="3"/><circle cx="93" cy="632" r="3"/><circle cx="93" cy="392" r="3"/><circle cx="93" cy="272" r="3"/><circle cx="93" cy="512" r="3"/><circle cx="93" cy="212" r="3"/><circle cx="93" cy="692" r="3"/><circle cx="93" cy="452" r="3"/><circle cx="93" cy="332" r="3"/><circle cx="93" cy="572" r="3"/><circle cx="3" cy="152" r="3"/><circle cx="3" cy="632" r="3"/><circle cx="3" cy="392" r="3"/><circle cx="3" cy="272" r="3"/><circle cx="3" cy="512" r="3"/><circle cx="3" cy="212" r="3"/><circle cx="3" cy="692" r="3"/><circle cx="3" cy="452" r="3"/><circle cx="3" cy="332" r="3"/><circle cx="3" cy="572" r="3"/><circle cx="153" cy="152" r="3"/><circle cx="153" cy="632" r="3"/><circle cx="153" cy="392" r="3"/><circle cx="153" cy="272" r="3"/><circle cx="153" cy="512" r="3"/><circle cx="153" cy="212" r="3"/><circle cx="153" cy="692" r="3"/><circle cx="153" cy="452" r="3"/><circle cx="153" cy="332" r="3"/><circle cx="153" cy="572" r="3"/><circle cx="123" cy="152" r="3"/><circle cx="123" cy="632" r="3"/><circle cx="123" cy="392" r="3"/><circle cx="123" cy="272" r="3"/><circle cx="123" cy="512" r="3"/><circle cx="123" cy="212" r="3"/><circle cx="123" cy="692" r="3"/><circle cx="123" cy="452" r="3"/><circle cx="123" cy="332" r="3"/><circle cx="123" cy="572" r="3"/><circle cx="33" cy="152" r="3"/><circle cx="33" cy="632" r="3"/><circle cx="33" cy="392" r="3"/><circle cx="33" cy="272" r="3"/><circle cx="33" cy="512" r="3"/><circle cx="33" cy="212" r="3"/><circle cx="33" cy="692" r="3"/><circle cx="33" cy="452" r="3"/><circle cx="33" cy="332" r="3"/><circle cx="33" cy="572" r="3"/><circle cx="183" cy="152" r="3"/><circle cx="183" cy="632" r="3"/><circle cx="183" cy="392" r="3"/><circle cx="183" cy="272" r="3"/><circle cx="183" cy="512" r="3"/><circle cx="183" cy="212" r="3"/><circle cx="183" cy="692" r="3"/><circle cx="183" cy="452" r="3"/><circle cx="183" cy="332" r="3"/><circle cx="183" cy="572" r="3"/><circle cx="63" cy="182" r="3"/><circle cx="63" cy="662" r="3"/><circle cx="63" cy="422" r="3"/><circle cx="63" cy="302" r="3"/><circle cx="63" cy="542" r="3"/><circle cx="63" cy="242" r="3"/><circle cx="63" cy="722" r="3"/><circle cx="63" cy="482" r="3"/><circle cx="63" cy="362" r="3"/><circle cx="63" cy="602" r="3"/><circle cx="93" cy="182" r="3"/><circle cx="93" cy="662" r="3"/><circle cx="93" cy="422" r="3"/><circle cx="93" cy="302" r="3"/><circle cx="93" cy="542" r="3"/><circle cx="93" cy="242" r="3"/><circle cx="93" cy="722" r="3"/><circle cx="93" cy="482" r="3"/><circle cx="93" cy="362" r="3"/><circle cx="93" cy="602" r="3"/><circle cx="3" cy="182" r="3"/><circle cx="3" cy="662" r="3"/><circle cx="3" cy="422" r="3"/><circle cx="3" cy="302" r="3"/><circle cx="3" cy="542" r="3"/><circle cx="3" cy="242" r="3"/><circle cx="3" cy="722" r="3"/><circle cx="3" cy="482" r="3"/><circle cx="3" cy="362" r="3"/><circle cx="3" cy="602" r="3"/><circle cx="153" cy="182" r="3"/><circle cx="153" cy="662" r="3"/><circle cx="153" cy="422" r="3"/><circle cx="153" cy="302" r="3"/><circle cx="153" cy="542" r="3"/><circle cx="153" cy="242" r="3"/><circle cx="153" cy="722" r="3"/><circle cx="153" cy="482" r="3"/><circle cx="153" cy="362" r="3"/><circle cx="153" cy="602" r="3"/><circle cx="123" cy="182" r="3"/><circle cx="123" cy="662" r="3"/><circle cx="123" cy="422" r="3"/><circle cx="123" cy="302" r="3"/><circle cx="123" cy="542" r="3"/><circle cx="123" cy="242" r="3"/><circle cx="123" cy="722" r="3"/><circle cx="123" cy="482" r="3"/><circle cx="123" cy="362" r="3"/><circle cx="123" cy="602" r="3"/><circle cx="33" cy="182" r="3"/><circle cx="33" cy="662" r="3"/><circle cx="33" cy="422" r="3"/><circle cx="33" cy="302" r="3"/><circle cx="33" cy="542" r="3"/><circle cx="33" cy="242" r="3"/><circle cx="33" cy="722" r="3"/><circle cx="33" cy="482" r="3"/><circle cx="33" cy="362" r="3"/><circle cx="33" cy="602" r="3"/><circle cx="183" cy="182" r="3"/><circle cx="183" cy="662" r="3"/><circle cx="183" cy="422" r="3"/><circle cx="183" cy="302" r="3"/><circle cx="183" cy="542" r="3"/><circle cx="183" cy="242" r="3"/><circle cx="183" cy="722" r="3"/><circle cx="183" cy="482" r="3"/><circle cx="183" cy="362" r="3"/><circle cx="183" cy="602" r="3"/></g><path d="M47.93 986.314c4.534.614 7.711-2.563 7.097-7.096-.615-4.534 2.562-7.711 7.096-7.096 4.534.614 7.71-2.563 7.096-7.096v-.002c-.614-4.533 2.563-7.71 7.096-7.096M68.93 976.314c4.534.614 7.711-2.563 7.097-7.096-.615-4.534 2.562-7.711 7.096-7.096 4.534.614 7.71-2.563 7.096-7.096v-.002c-.614-4.533 2.563-7.71 7.096-7.096" stroke="#fff" stroke-width="2" stroke-miterlimit="10"/><path d="M274 509.5a20.495 20.495 0 0 0-11.018-18.175 20.502 20.502 0 0 0-21.21 1.361l2.204 3.161a16.648 16.648 0 0 1 26.17 13.653H274Z" fill="#fff"/><path opacity=".2" d="M254.305 528.802a20.506 20.506 0 0 0 5.939 20.407 20.497 20.497 0 0 0 20.84 4.175l-1.312-3.624a16.648 16.648 0 0 1-21.649-11.001 16.645 16.645 0 0 1-.095-8.96l-3.723-.997Z" fill="#fff"/></g><defs><linearGradient id="b" x1="180" y1="0" x2="180" y2="1427" gradientUnits="userSpaceOnUse"><stop stop-color="#102F9E"/><stop offset="1" stop-color="#4800A5"/></linearGradient><clipPath id="a"><rect width="360" height="1427" rx="32" fill="#fff"/></clipPath></defs></svg>