<svg width="1440" height="1088" fill="none" xmlns="http://www.w3.org/2000/svg"><g clip-path="url(#a)"><rect width="1440" height="1088" rx="32" fill="url(#b)"/><path d="m902 1091.5-64-64M509.4 1014.5l-15.9 27.5-15.9-27.5h31.8Z" stroke="#F7DD4B" stroke-width="3"/><path d="M47.93 1027.32c4.534.62 7.711-2.56 7.097-7.09-.615-4.54 2.562-7.72 7.096-7.1 4.534.61 7.71-2.56 7.096-7.1-.614-4.53 2.563-7.708 7.096-7.094M68.93 1017.31c4.534.62 7.711-2.56 7.097-7.09-.615-4.54 2.562-7.71 7.096-7.1 4.534.62 7.71-2.56 7.096-7.094v-.002c-.614-4.533 2.563-7.71 7.096-7.096" stroke="#fff" stroke-width="2" stroke-miterlimit="10"/><path d="m952 986-36 36" stroke="#fff" stroke-width="3"/><g opacity=".2" fill="#fff"><circle cx="1437" cy="1075" r="3"/><circle cx="1407" cy="1075" r="3"/><circle cx="1377" cy="1075" r="3"/><circle cx="1347" cy="1075" r="3"/><circle cx="1317" cy="1075" r="3"/><circle cx="1287" cy="1075" r="3"/><circle cx="1257" cy="1075" r="3"/><circle cx="1227" cy="1075" r="3"/><circle cx="1197" cy="1075" r="3"/><circle cx="1167" cy="1075" r="3"/><circle cx="1137" cy="1075" r="3"/><circle cx="1107" cy="1075" r="3"/><circle cx="1077" cy="1075" r="3"/><circle cx="1047" cy="1075" r="3"/><circle cx="1017" cy="1075" r="3"/><circle cx="1437" cy="1045" r="3"/><circle cx="1407" cy="1045" r="3"/><circle cx="1377" cy="1045" r="3"/><circle cx="1347" cy="1045" r="3"/><circle cx="1317" cy="1045" r="3"/><circle cx="1287" cy="1045" r="3"/><circle cx="1257" cy="1045" r="3"/><circle cx="1227" cy="1045" r="3"/><circle cx="1197" cy="1045" r="3"/><circle cx="1167" cy="1045" r="3"/><circle cx="1137" cy="1045" r="3"/><circle cx="1107" cy="1045" r="3"/><circle cx="1077" cy="1045" r="3"/><circle cx="1047" cy="1045" r="3"/><circle cx="1017" cy="1045" r="3"/><circle cx="1437" cy="1015" r="3"/><circle cx="1407" cy="1015" r="3"/><circle cx="1377" cy="1015" r="3"/><circle cx="1347" cy="1015" r="3"/><circle cx="1317" cy="1015" r="3"/><circle cx="1287" cy="1015" r="3"/><circle cx="1257" cy="1015" r="3"/><circle cx="1227" cy="1015" r="3"/><circle cx="1197" cy="1015" r="3"/><circle cx="1167" cy="1015" r="3"/><circle cx="1137" cy="1015" r="3"/><circle cx="1107" cy="1015" r="3"/><circle cx="1077" cy="1015" r="3"/><circle cx="1047" cy="1015" r="3"/><circle cx="1017" cy="1015" r="3"/><circle cx="1437" cy="985" r="3"/><circle cx="1407" cy="985" r="3"/><circle cx="1377" cy="985" r="3"/><circle cx="1347" cy="985" r="3"/><circle cx="1317" cy="985" r="3"/><circle cx="1287" cy="985" r="3"/><circle cx="1257" cy="985" r="3"/><circle cx="1227" cy="985" r="3"/><circle cx="1197" cy="985" r="3"/><circle cx="1167" cy="985" r="3"/><circle cx="1137" cy="985" r="3"/><circle cx="1107" cy="985" r="3"/><circle cx="1077" cy="985" r="3"/><circle cx="1047" cy="985" r="3"/><circle cx="1017" cy="985" r="3"/><circle cx="1437" cy="955" r="3"/><circle cx="1407" cy="955" r="3"/><circle cx="1377" cy="955" r="3"/><circle cx="1347" cy="955" r="3"/><circle cx="1317" cy="955" r="3"/><circle cx="1287" cy="955" r="3"/><circle cx="1257" cy="955" r="3"/><circle cx="1227" cy="955" r="3"/><circle cx="1197" cy="955" r="3"/><circle cx="1167" cy="955" r="3"/><circle cx="1137" cy="955" r="3"/><circle cx="1107" cy="955" r="3"/><circle cx="1077" cy="955" r="3"/><circle cx="1047" cy="955" r="3"/><circle cx="1017" cy="955" r="3"/><circle cx="1437" cy="925" r="3"/><circle cx="1407" cy="925" r="3"/><circle cx="1377" cy="925" r="3"/><circle cx="1347" cy="925" r="3"/><circle cx="1317" cy="925" r="3"/><circle cx="1287" cy="925" r="3"/><circle cx="1257" cy="925" r="3"/><circle cx="1227" cy="925" r="3"/><circle cx="1197" cy="925" r="3"/><circle cx="1167" cy="925" r="3"/><circle cx="1137" cy="925" r="3"/><circle cx="1107" cy="925" r="3"/><circle cx="1077" cy="925" r="3"/><circle cx="1047" cy="925" r="3"/><circle cx="1017" cy="925" r="3"/><circle cx="1437" cy="895" r="3"/><circle cx="1407" cy="895" r="3"/><circle cx="1377" cy="895" r="3"/><circle cx="1347" cy="895" r="3"/><circle cx="1317" cy="895" r="3"/><circle cx="1287" cy="895" r="3"/><circle cx="1257" cy="895" r="3"/><circle cx="1227" cy="895" r="3"/><circle cx="1197" cy="895" r="3"/><circle cx="1167" cy="895" r="3"/><circle cx="1137" cy="895" r="3"/><circle cx="1107" cy="895" r="3"/><circle cx="1077" cy="895" r="3"/><circle cx="1047" cy="895" r="3"/><circle cx="1017" cy="895" r="3"/><circle cx="1437" cy="865" r="3"/><circle cx="1407" cy="865" r="3"/><circle cx="1377" cy="865" r="3"/><circle cx="1347" cy="865" r="3"/><circle cx="1317" cy="865" r="3"/><circle cx="1287" cy="865" r="3"/><circle cx="1257" cy="865" r="3"/><circle cx="1227" cy="865" r="3"/><circle cx="1197" cy="865" r="3"/><circle cx="1167" cy="865" r="3"/><circle cx="1137" cy="865" r="3"/><circle cx="1107" cy="865" r="3"/><circle cx="1077" cy="865" r="3"/><circle cx="1047" cy="865" r="3"/><circle cx="1017" cy="865" r="3"/></g><path d="m636.878 646.469 14.105-14.301 5.064 19.437-19.169-5.136Z" stroke="#fff" stroke-width="3"/><path d="m1309.6 570.5 15.9-27.503 15.9 27.503h-31.8Z" stroke="#F7DD4B" stroke-width="3"/><path d="M274 550.5a20.495 20.495 0 0 0-11.018-18.175 20.502 20.502 0 0 0-21.21 1.361l2.204 3.161a16.648 16.648 0 0 1 26.17 13.653H274Z" fill="#fff"/><path opacity=".2" d="M254.305 569.802a20.506 20.506 0 0 0 5.939 20.407 20.497 20.497 0 0 0 20.84 4.175l-1.312-3.624a16.648 16.648 0 0 1-21.649-11.001 16.645 16.645 0 0 1-.095-8.96l-3.723-.997Z" fill="#fff"/><path d="m460.4 431.5-15.9 27.503-15.9-27.503h31.8Z" stroke="#F7DD4B" stroke-width="3"/><path stroke="#F7DD4B" stroke-width="11" d="m1402.78 510.452 82.536-78.676 78.676 82.536-82.536 78.676z"/><g opacity=".2" fill="#fff"><circle cx="183" cy="763" r="3"/><circle cx="153" cy="763" r="3"/><circle cx="123" cy="763" r="3"/><circle cx="93" cy="763" r="3"/><circle cx="63" cy="763" r="3"/><circle cx="33" cy="763" r="3"/><circle cx="3" cy="763" r="3"/><circle cx="183" cy="733" r="3"/><circle cx="153" cy="733" r="3"/><circle cx="123" cy="733" r="3"/><circle cx="93" cy="733" r="3"/><circle cx="63" cy="733" r="3"/><circle cx="33" cy="733" r="3"/><circle cx="3" cy="733" r="3"/><circle cx="183" cy="703" r="3"/><circle cx="153" cy="703" r="3"/><circle cx="123" cy="703" r="3"/><circle cx="93" cy="703" r="3"/><circle cx="63" cy="703" r="3"/><circle cx="33" cy="703" r="3"/><circle cx="3" cy="703" r="3"/><circle cx="183" cy="673" r="3"/><circle cx="153" cy="673" r="3"/><circle cx="123" cy="673" r="3"/><circle cx="93" cy="673" r="3"/><circle cx="63" cy="673" r="3"/><circle cx="33" cy="673" r="3"/><circle cx="3" cy="673" r="3"/><circle cx="183" cy="643" r="3"/><circle cx="153" cy="643" r="3"/><circle cx="123" cy="643" r="3"/><circle cx="93" cy="643" r="3"/><circle cx="63" cy="643" r="3"/><circle cx="33" cy="643" r="3"/><circle cx="3" cy="643" r="3"/><circle cx="183" cy="613" r="3"/><circle cx="153" cy="613" r="3"/><circle cx="123" cy="613" r="3"/><circle cx="93" cy="613" r="3"/><circle cx="63" cy="613" r="3"/><circle cx="33" cy="613" r="3"/><circle cx="3" cy="613" r="3"/><circle cx="183" cy="583" r="3"/><circle cx="153" cy="583" r="3"/><circle cx="123" cy="583" r="3"/><circle cx="93" cy="583" r="3"/><circle cx="63" cy="583" r="3"/><circle cx="33" cy="583" r="3"/><circle cx="3" cy="583" r="3"/><circle cx="183" cy="553" r="3"/><circle cx="153" cy="553" r="3"/><circle cx="123" cy="553" r="3"/><circle cx="93" cy="553" r="3"/><circle cx="63" cy="553" r="3"/><circle cx="33" cy="553" r="3"/><circle cx="3" cy="553" r="3"/><circle cx="183" cy="523" r="3"/><circle cx="153" cy="523" r="3"/><circle cx="123" cy="523" r="3"/><circle cx="93" cy="523" r="3"/><circle cx="63" cy="523" r="3"/><circle cx="33" cy="523" r="3"/><circle cx="3" cy="523" r="3"/><circle cx="183" cy="493" r="3"/><circle cx="153" cy="493" r="3"/><circle cx="123" cy="493" r="3"/><circle cx="93" cy="493" r="3"/><circle cx="63" cy="493" r="3"/><circle cx="33" cy="493" r="3"/><circle cx="3" cy="493" r="3"/><circle cx="183" cy="463" r="3"/><circle cx="153" cy="463" r="3"/><circle cx="123" cy="463" r="3"/><circle cx="93" cy="463" r="3"/><circle cx="63" cy="463" r="3"/><circle cx="33" cy="463" r="3"/><circle cx="3" cy="463" r="3"/><circle cx="183" cy="433" r="3"/><circle cx="153" cy="433" r="3"/><circle cx="123" cy="433" r="3"/><circle cx="93" cy="433" r="3"/><circle cx="63" cy="433" r="3"/><circle cx="33" cy="433" r="3"/><circle cx="3" cy="433" r="3"/><circle cx="183" cy="403" r="3"/><circle cx="153" cy="403" r="3"/><circle cx="123" cy="403" r="3"/><circle cx="93" cy="403" r="3"/><circle cx="63" cy="403" r="3"/><circle cx="33" cy="403" r="3"/><circle cx="3" cy="403" r="3"/><circle cx="183" cy="373" r="3"/><circle cx="153" cy="373" r="3"/><circle cx="123" cy="373" r="3"/><circle cx="93" cy="373" r="3"/><circle cx="63" cy="373" r="3"/><circle cx="33" cy="373" r="3"/><circle cx="3" cy="373" r="3"/><circle cx="183" cy="343" r="3"/><circle cx="153" cy="343" r="3"/><circle cx="123" cy="343" r="3"/><circle cx="93" cy="343" r="3"/><circle cx="63" cy="343" r="3"/><circle cx="33" cy="343" r="3"/><circle cx="3" cy="343" r="3"/><circle cx="183" cy="313" r="3"/><circle cx="153" cy="313" r="3"/><circle cx="123" cy="313" r="3"/><circle cx="93" cy="313" r="3"/><circle cx="63" cy="313" r="3"/><circle cx="33" cy="313" r="3"/><circle cx="3" cy="313" r="3"/><circle cx="183" cy="283" r="3"/><circle cx="153" cy="283" r="3"/><circle cx="123" cy="283" r="3"/><circle cx="93" cy="283" r="3"/><circle cx="63" cy="283" r="3"/><circle cx="33" cy="283" r="3"/><circle cx="3" cy="283" r="3"/><circle cx="183" cy="253" r="3"/><circle cx="153" cy="253" r="3"/><circle cx="123" cy="253" r="3"/><circle cx="93" cy="253" r="3"/><circle cx="63" cy="253" r="3"/><circle cx="33" cy="253" r="3"/><circle cx="3" cy="253" r="3"/><circle cx="183" cy="223" r="3"/><circle cx="153" cy="223" r="3"/><circle cx="123" cy="223" r="3"/><circle cx="93" cy="223" r="3"/><circle cx="63" cy="223" r="3"/><circle cx="33" cy="223" r="3"/><circle cx="3" cy="223" r="3"/><circle cx="183" cy="193" r="3"/><circle cx="153" cy="193" r="3"/><circle cx="123" cy="193" r="3"/><circle cx="93" cy="193" r="3"/><circle cx="63" cy="193" r="3"/><circle cx="33" cy="193" r="3"/><circle cx="3" cy="193" r="3"/></g><path d="M1306.93 30.321c4.53.615 7.71-2.562 7.1-7.096-.62-4.533 2.56-7.71 7.09-7.096 4.54.615 7.71-2.562 7.1-7.096-.62-4.534 2.56-7.711 7.1-7.097M1327.93 20.314c4.53.614 7.71-2.563 7.1-7.096-.62-4.534 2.56-7.71 7.09-7.096 4.54.614 7.71-2.563 7.1-7.096v-.002c-.62-4.533 2.56-7.71 7.1-7.096" stroke="#fff" stroke-width="3" stroke-miterlimit="10"/></g><defs><linearGradient id="b" x1="720" y1="0" x2="720" y2="1088" gradientUnits="userSpaceOnUse"><stop stop-color="#102F9E"/><stop offset="1" stop-color="#4800A5"/></linearGradient><clipPath id="a"><rect width="1440" height="1088" rx="32" fill="#fff"/></clipPath></defs></svg>