<svg width="1248" height="400" fill="none" xmlns="http://www.w3.org/2000/svg"><g clip-path="url(#a)"><rect width="1248" height="400" rx="32" fill="url(#b)"/><path d="m509.4 384.5-15.9 27.503-15.9-27.503h31.8ZM902 406.5l-64-64" stroke="#F7DD4B" stroke-width="3"/><path d="m952 301-36 36" stroke="#fff" stroke-width="3"/><g opacity=".2" fill="#fff"><circle cx="1227" cy="400" r="3"/><circle cx="1197" cy="400" r="3"/><circle cx="1167" cy="400" r="3"/><circle cx="1137" cy="400" r="3"/><circle cx="1107" cy="400" r="3"/><circle cx="1077" cy="400" r="3"/><circle cx="1047" cy="400" r="3"/><circle cx="1017" cy="400" r="3"/><circle cx="1227" cy="370" r="3"/><circle cx="1197" cy="370" r="3"/><circle cx="1167" cy="370" r="3"/><circle cx="1137" cy="370" r="3"/><circle cx="1107" cy="370" r="3"/><circle cx="1077" cy="370" r="3"/><circle cx="1047" cy="370" r="3"/><circle cx="1017" cy="370" r="3"/><circle cx="1227" cy="340" r="3"/><circle cx="1197" cy="340" r="3"/><circle cx="1167" cy="340" r="3"/><circle cx="1137" cy="340" r="3"/><circle cx="1107" cy="340" r="3"/><circle cx="1077" cy="340" r="3"/><circle cx="1047" cy="340" r="3"/><circle cx="1017" cy="340" r="3"/><circle cx="1227" cy="310" r="3"/><circle cx="1197" cy="310" r="3"/><circle cx="1167" cy="310" r="3"/><circle cx="1137" cy="310" r="3"/><circle cx="1107" cy="310" r="3"/><circle cx="1077" cy="310" r="3"/><circle cx="1047" cy="310" r="3"/><circle cx="1017" cy="310" r="3"/><circle cx="1227" cy="280" r="3"/><circle cx="1197" cy="280" r="3"/><circle cx="1167" cy="280" r="3"/><circle cx="1137" cy="280" r="3"/><circle cx="1107" cy="280" r="3"/><circle cx="1077" cy="280" r="3"/><circle cx="1047" cy="280" r="3"/><circle cx="1017" cy="280" r="3"/><circle cx="1227" cy="250" r="3"/><circle cx="1197" cy="250" r="3"/><circle cx="1167" cy="250" r="3"/><circle cx="1137" cy="250" r="3"/><circle cx="1107" cy="250" r="3"/><circle cx="1077" cy="250" r="3"/><circle cx="1047" cy="250" r="3"/><circle cx="1017" cy="250" r="3"/><circle cx="1227" cy="220" r="3"/><circle cx="1197" cy="220" r="3"/><circle cx="1167" cy="220" r="3"/><circle cx="1137" cy="220" r="3"/><circle cx="1107" cy="220" r="3"/><circle cx="1077" cy="220" r="3"/><circle cx="1047" cy="220" r="3"/><circle cx="1017" cy="220" r="3"/><circle cx="1227" cy="190" r="3"/><circle cx="1197" cy="190" r="3"/><circle cx="1167" cy="190" r="3"/><circle cx="1137" cy="190" r="3"/><circle cx="1107" cy="190" r="3"/><circle cx="1077" cy="190" r="3"/><circle cx="1047" cy="190" r="3"/><circle cx="1017" cy="190" r="3"/><circle cx="1227" cy="160" r="3"/><circle cx="1197" cy="160" r="3"/><circle cx="1167" cy="160" r="3"/><circle cx="1137" cy="160" r="3"/><circle cx="1107" cy="160" r="3"/><circle cx="1077" cy="160" r="3"/><circle cx="1047" cy="160" r="3"/><circle cx="1017" cy="160" r="3"/></g><path opacity=".2" d="m636.878 91.469 14.105-14.3 5.064 19.436-19.169-5.136Z" stroke="#fff" stroke-width="3"/><path d="m1165.6 85.5 15.9-27.503 15.9 27.503h-31.8Z" stroke="#F7DD4B" stroke-width="3"/><g opacity=".2" fill="#fff"><circle cx="183" cy="158" r="3"/><circle cx="153" cy="158" r="3"/><circle cx="123" cy="158" r="3"/><circle cx="93" cy="158" r="3"/><circle cx="63" cy="158" r="3"/><circle cx="33" cy="158" r="3"/><circle cx="3" cy="158" r="3"/><circle cx="183" cy="128" r="3"/><circle cx="153" cy="128" r="3"/><circle cx="123" cy="128" r="3"/><circle cx="93" cy="128" r="3"/><circle cx="63" cy="128" r="3"/><circle cx="33" cy="128" r="3"/><circle cx="3" cy="128" r="3"/><circle cx="183" cy="98" r="3"/><circle cx="153" cy="98" r="3"/><circle cx="123" cy="98" r="3"/><circle cx="93" cy="98" r="3"/><circle cx="63" cy="98" r="3"/><circle cx="33" cy="98" r="3"/><circle cx="3" cy="98" r="3"/><circle cx="183" cy="68" r="3"/><circle cx="153" cy="68" r="3"/><circle cx="123" cy="68" r="3"/><circle cx="93" cy="68" r="3"/><circle cx="63" cy="68" r="3"/><circle cx="33" cy="68" r="3"/><circle cx="3" cy="68" r="3"/><circle cx="183" cy="38" r="3"/><circle cx="153" cy="38" r="3"/><circle cx="123" cy="38" r="3"/><circle cx="93" cy="38" r="3"/><circle cx="63" cy="38" r="3"/><circle cx="33" cy="38" r="3"/><circle cx="3" cy="38" r="3"/><circle cx="183" cy="8" r="3"/><circle cx="153" cy="8" r="3"/><circle cx="123" cy="8" r="3"/><circle cx="93" cy="8" r="3"/><circle cx="63" cy="8" r="3"/><circle cx="33" cy="8" r="3"/><circle cx="3" cy="8" r="3"/></g><path d="M224 45.5a20.496 20.496 0 0 0-11.018-18.175 20.499 20.499 0 0 0-21.21 1.361l2.204 3.16a16.65 16.65 0 0 1 23.759 5.025 16.65 16.65 0 0 1 2.411 8.629H224Z" fill="#fff"/><path opacity=".2" d="M204.305 64.802a20.497 20.497 0 0 0 15.775 25.406c3.675.736 7.48.451 11.004-.824l-1.312-3.624a16.646 16.646 0 0 1-21.744-19.96l-3.723-.998Z" fill="#fff"/></g><defs><linearGradient id="b" x1="54.195" y1="-29.5" x2="1295.48" y2="487.263" gradientUnits="userSpaceOnUse"><stop stop-color="#102F9E"/><stop offset="1" stop-color="#4800A5"/></linearGradient><clipPath id="a"><rect width="1248" height="400" rx="32" fill="#fff"/></clipPath></defs></svg>