<svg width="312" height="392" fill="none" xmlns="http://www.w3.org/2000/svg"><g clip-path="url(#a)"><rect width="312" height="392" rx="32" fill="url(#b)"/><g opacity=".2" fill="#fff"><circle cx="183" cy="158" r="3"/><circle cx="153" cy="158" r="3"/><circle cx="123" cy="158" r="3"/><circle cx="93" cy="158" r="3"/><circle cx="63" cy="158" r="3"/><circle cx="33" cy="158" r="3"/><circle cx="3" cy="158" r="3"/><circle cx="183" cy="128" r="3"/><circle cx="153" cy="128" r="3"/><circle cx="123" cy="128" r="3"/><circle cx="93" cy="128" r="3"/><circle cx="63" cy="128" r="3"/><circle cx="33" cy="128" r="3"/><circle cx="3" cy="128" r="3"/><circle cx="183" cy="98" r="3"/><circle cx="153" cy="98" r="3"/><circle cx="123" cy="98" r="3"/><circle cx="93" cy="98" r="3"/><circle cx="63" cy="98" r="3"/><circle cx="33" cy="98" r="3"/><circle cx="3" cy="98" r="3"/><circle cx="183" cy="68" r="3"/><circle cx="153" cy="68" r="3"/><circle cx="123" cy="68" r="3"/><circle cx="93" cy="68" r="3"/><circle cx="63" cy="68" r="3"/><circle cx="33" cy="68" r="3"/><circle cx="3" cy="68" r="3"/><circle cx="183" cy="38" r="3"/><circle cx="153" cy="38" r="3"/><circle cx="123" cy="38" r="3"/><circle cx="93" cy="38" r="3"/><circle cx="63" cy="38" r="3"/><circle cx="33" cy="38" r="3"/><circle cx="3" cy="38" r="3"/><circle cx="183" cy="8" r="3"/><circle cx="153" cy="8" r="3"/><circle cx="123" cy="8" r="3"/><circle cx="93" cy="8" r="3"/><circle cx="63" cy="8" r="3"/><circle cx="33" cy="8" r="3"/><circle cx="3" cy="8" r="3"/></g><path d="M224 45.5a20.496 20.496 0 0 0-11.018-18.175 20.499 20.499 0 0 0-21.21 1.361l2.204 3.16a16.65 16.65 0 0 1 23.759 5.025 16.65 16.65 0 0 1 2.411 8.629H224Z" fill="#fff"/><path opacity=".2" d="M204.305 64.802a20.497 20.497 0 0 0 15.775 25.406c3.675.736 7.48.451 11.004-.824l-1.312-3.624a16.646 16.646 0 0 1-21.744-19.96l-3.723-.998Z" fill="#fff"/></g><defs><linearGradient id="b" x1="13.549" y1="-28.91" x2="373.593" y2="9.327" gradientUnits="userSpaceOnUse"><stop stop-color="#102F9E"/><stop offset="1" stop-color="#4800A5"/></linearGradient><clipPath id="a"><rect width="312" height="392" rx="32" fill="#fff"/></clipPath></defs></svg>