<svg width="1440" height="868" fill="none" xmlns="http://www.w3.org/2000/svg"><g filter="url(#a)"><g clip-path="url(#b)"><rect width="1440" height="868" rx="32" fill="url(#c)"/><path d="m520.4 853.5-15.9 27.503-15.9-27.503h31.8ZM973 855.5l-64-64" stroke="#F7DD4B" stroke-width="3"/><path d="m1023 750-36 36" stroke="#fff" stroke-width="3"/><g opacity=".2" fill="#fff"><circle cx="1418" cy="859" r="3"/><circle cx="1388" cy="859" r="3"/><circle cx="1358" cy="859" r="3"/><circle cx="1328" cy="859" r="3"/><circle cx="1298" cy="859" r="3"/><circle cx="1268" cy="859" r="3"/><circle cx="1238" cy="859" r="3"/><circle cx="1208" cy="859" r="3"/><circle cx="1178" cy="859" r="3"/><circle cx="1148" cy="859" r="3"/><circle cx="1118" cy="859" r="3"/><circle cx="1088" cy="859" r="3"/><circle cx="1418" cy="829" r="3"/><circle cx="1388" cy="829" r="3"/><circle cx="1358" cy="829" r="3"/><circle cx="1328" cy="829" r="3"/><circle cx="1298" cy="829" r="3"/><circle cx="1268" cy="829" r="3"/><circle cx="1238" cy="829" r="3"/><circle cx="1208" cy="829" r="3"/><circle cx="1178" cy="829" r="3"/><circle cx="1148" cy="829" r="3"/><circle cx="1118" cy="829" r="3"/><circle cx="1088" cy="829" r="3"/><circle cx="1418" cy="799" r="3"/><circle cx="1388" cy="799" r="3"/><circle cx="1358" cy="799" r="3"/><circle cx="1328" cy="799" r="3"/><circle cx="1298" cy="799" r="3"/><circle cx="1268" cy="799" r="3"/><circle cx="1238" cy="799" r="3"/><circle cx="1208" cy="799" r="3"/><circle cx="1178" cy="799" r="3"/><circle cx="1148" cy="799" r="3"/><circle cx="1118" cy="799" r="3"/><circle cx="1088" cy="799" r="3"/><circle cx="1418" cy="769" r="3"/><circle cx="1388" cy="769" r="3"/><circle cx="1358" cy="769" r="3"/><circle cx="1328" cy="769" r="3"/><circle cx="1298" cy="769" r="3"/><circle cx="1268" cy="769" r="3"/><circle cx="1238" cy="769" r="3"/><circle cx="1208" cy="769" r="3"/><circle cx="1178" cy="769" r="3"/><circle cx="1148" cy="769" r="3"/><circle cx="1118" cy="769" r="3"/><circle cx="1088" cy="769" r="3"/><circle cx="1418" cy="739" r="3"/><circle cx="1388" cy="739" r="3"/><circle cx="1358" cy="739" r="3"/><circle cx="1328" cy="739" r="3"/><circle cx="1298" cy="739" r="3"/><circle cx="1268" cy="739" r="3"/><circle cx="1238" cy="739" r="3"/><circle cx="1208" cy="739" r="3"/><circle cx="1178" cy="739" r="3"/><circle cx="1148" cy="739" r="3"/><circle cx="1118" cy="739" r="3"/><circle cx="1088" cy="739" r="3"/><circle cx="1418" cy="709" r="3"/><circle cx="1388" cy="709" r="3"/><circle cx="1358" cy="709" r="3"/><circle cx="1328" cy="709" r="3"/><circle cx="1298" cy="709" r="3"/><circle cx="1268" cy="709" r="3"/><circle cx="1238" cy="709" r="3"/><circle cx="1208" cy="709" r="3"/><circle cx="1178" cy="709" r="3"/><circle cx="1148" cy="709" r="3"/><circle cx="1118" cy="709" r="3"/><circle cx="1088" cy="709" r="3"/><circle cx="1418" cy="679" r="3"/><circle cx="1388" cy="679" r="3"/><circle cx="1358" cy="679" r="3"/><circle cx="1328" cy="679" r="3"/><circle cx="1298" cy="679" r="3"/><circle cx="1268" cy="679" r="3"/><circle cx="1238" cy="679" r="3"/><circle cx="1208" cy="679" r="3"/><circle cx="1178" cy="679" r="3"/><circle cx="1148" cy="679" r="3"/><circle cx="1118" cy="679" r="3"/><circle cx="1088" cy="679" r="3"/><circle cx="1418" cy="649" r="3"/><circle cx="1388" cy="649" r="3"/><circle cx="1358" cy="649" r="3"/><circle cx="1328" cy="649" r="3"/><circle cx="1298" cy="649" r="3"/><circle cx="1268" cy="649" r="3"/><circle cx="1238" cy="649" r="3"/><circle cx="1208" cy="649" r="3"/><circle cx="1178" cy="649" r="3"/><circle cx="1148" cy="649" r="3"/><circle cx="1118" cy="649" r="3"/><circle cx="1088" cy="649" r="3"/><circle cx="1418" cy="619" r="3"/><circle cx="1388" cy="619" r="3"/><circle cx="1358" cy="619" r="3"/><circle cx="1328" cy="619" r="3"/><circle cx="1298" cy="619" r="3"/><circle cx="1268" cy="619" r="3"/><circle cx="1238" cy="619" r="3"/><circle cx="1208" cy="619" r="3"/><circle cx="1178" cy="619" r="3"/><circle cx="1148" cy="619" r="3"/><circle cx="1118" cy="619" r="3"/><circle cx="1088" cy="619" r="3"/><circle cx="1418" cy="589" r="3"/><circle cx="1388" cy="589" r="3"/><circle cx="1358" cy="589" r="3"/><circle cx="1328" cy="589" r="3"/><circle cx="1298" cy="589" r="3"/><circle cx="1268" cy="589" r="3"/><circle cx="1238" cy="589" r="3"/><circle cx="1208" cy="589" r="3"/><circle cx="1178" cy="589" r="3"/><circle cx="1148" cy="589" r="3"/><circle cx="1118" cy="589" r="3"/><circle cx="1088" cy="589" r="3"/><circle cx="1418" cy="559" r="3"/><circle cx="1388" cy="559" r="3"/><circle cx="1358" cy="559" r="3"/><circle cx="1328" cy="559" r="3"/><circle cx="1298" cy="559" r="3"/><circle cx="1268" cy="559" r="3"/><circle cx="1238" cy="559" r="3"/><circle cx="1208" cy="559" r="3"/><circle cx="1178" cy="559" r="3"/><circle cx="1148" cy="559" r="3"/><circle cx="1118" cy="559" r="3"/><circle cx="1088" cy="559" r="3"/><circle cx="1418" cy="529" r="3"/><circle cx="1388" cy="529" r="3"/><circle cx="1358" cy="529" r="3"/><circle cx="1328" cy="529" r="3"/><circle cx="1298" cy="529" r="3"/><circle cx="1268" cy="529" r="3"/><circle cx="1238" cy="529" r="3"/><circle cx="1208" cy="529" r="3"/><circle cx="1178" cy="529" r="3"/><circle cx="1148" cy="529" r="3"/><circle cx="1118" cy="529" r="3"/><circle cx="1088" cy="529" r="3"/><circle cx="1418" cy="499" r="3"/><circle cx="1388" cy="499" r="3"/><circle cx="1358" cy="499" r="3"/><circle cx="1328" cy="499" r="3"/><circle cx="1298" cy="499" r="3"/><circle cx="1268" cy="499" r="3"/><circle cx="1238" cy="499" r="3"/><circle cx="1208" cy="499" r="3"/><circle cx="1178" cy="499" r="3"/><circle cx="1148" cy="499" r="3"/><circle cx="1118" cy="499" r="3"/><circle cx="1088" cy="499" r="3"/><circle cx="1418" cy="469" r="3"/><circle cx="1388" cy="469" r="3"/><circle cx="1358" cy="469" r="3"/><circle cx="1328" cy="469" r="3"/><circle cx="1298" cy="469" r="3"/><circle cx="1268" cy="469" r="3"/><circle cx="1238" cy="469" r="3"/><circle cx="1208" cy="469" r="3"/><circle cx="1178" cy="469" r="3"/><circle cx="1148" cy="469" r="3"/><circle cx="1118" cy="469" r="3"/><circle cx="1088" cy="469" r="3"/><circle cx="1418" cy="439" r="3"/><circle cx="1388" cy="439" r="3"/><circle cx="1358" cy="439" r="3"/><circle cx="1328" cy="439" r="3"/><circle cx="1298" cy="439" r="3"/><circle cx="1268" cy="439" r="3"/><circle cx="1238" cy="439" r="3"/><circle cx="1208" cy="439" r="3"/><circle cx="1178" cy="439" r="3"/><circle cx="1148" cy="439" r="3"/><circle cx="1118" cy="439" r="3"/><circle cx="1088" cy="439" r="3"/><circle cx="1418" cy="409" r="3"/><circle cx="1388" cy="409" r="3"/><circle cx="1358" cy="409" r="3"/><circle cx="1328" cy="409" r="3"/><circle cx="1298" cy="409" r="3"/><circle cx="1268" cy="409" r="3"/><circle cx="1238" cy="409" r="3"/><circle cx="1208" cy="409" r="3"/><circle cx="1178" cy="409" r="3"/><circle cx="1148" cy="409" r="3"/><circle cx="1118" cy="409" r="3"/><circle cx="1088" cy="409" r="3"/><circle cx="1418" cy="379" r="3"/><circle cx="1388" cy="379" r="3"/><circle cx="1358" cy="379" r="3"/><circle cx="1328" cy="379" r="3"/><circle cx="1298" cy="379" r="3"/><circle cx="1268" cy="379" r="3"/><circle cx="1238" cy="379" r="3"/><circle cx="1208" cy="379" r="3"/><circle cx="1178" cy="379" r="3"/><circle cx="1148" cy="379" r="3"/><circle cx="1118" cy="379" r="3"/><circle cx="1088" cy="379" r="3"/></g><path opacity=".2" d="m707.878 310.469 14.105-14.301 5.064 19.437-19.169-5.136Z" stroke="#fff" stroke-width="3"/><path d="m1296.6 114.5 15.9-27.503 15.9 27.503h-31.8Z" stroke="#F7DD4B" stroke-width="3"/><path d="M405 364.5a20.495 20.495 0 0 0-11.018-18.175 20.502 20.502 0 0 0-21.21 1.361l2.204 3.161a16.648 16.648 0 0 1 26.17 13.653H405Z" fill="#fff"/><path opacity=".2" d="M385.305 383.802a20.506 20.506 0 0 0 5.939 20.407 20.497 20.497 0 0 0 20.84 4.175l-1.312-3.624a16.648 16.648 0 0 1-21.649-11.001 16.645 16.645 0 0 1-.095-8.96l-3.723-.997Z" fill="#fff"/><g opacity=".2" fill="#fff"><circle cx="211" cy="215" r="3"/><circle cx="181" cy="215" r="3"/><circle cx="151" cy="215" r="3"/><circle cx="121" cy="215" r="3"/><circle cx="91" cy="215" r="3"/><circle cx="61" cy="215" r="3"/><circle cx="31" cy="215" r="3"/><circle cx="1" cy="215" r="3"/><circle cx="211" cy="185" r="3"/><circle cx="181" cy="185" r="3"/><circle cx="151" cy="185" r="3"/><circle cx="121" cy="185" r="3"/><circle cx="91" cy="185" r="3"/><circle cx="61" cy="185" r="3"/><circle cx="31" cy="185" r="3"/><circle cx="1" cy="185" r="3"/><circle cx="211" cy="155" r="3"/><circle cx="181" cy="155" r="3"/><circle cx="151" cy="155" r="3"/><circle cx="121" cy="155" r="3"/><circle cx="91" cy="155" r="3"/><circle cx="61" cy="155" r="3"/><circle cx="31" cy="155" r="3"/><circle cx="1" cy="155" r="3"/><circle cx="211" cy="125" r="3"/><circle cx="181" cy="125" r="3"/><circle cx="151" cy="125" r="3"/><circle cx="121" cy="125" r="3"/><circle cx="91" cy="125" r="3"/><circle cx="61" cy="125" r="3"/><circle cx="31" cy="125" r="3"/><circle cx="1" cy="125" r="3"/><circle cx="211" cy="95" r="3"/><circle cx="181" cy="95" r="3"/><circle cx="151" cy="95" r="3"/><circle cx="121" cy="95" r="3"/><circle cx="91" cy="95" r="3"/><circle cx="61" cy="95" r="3"/><circle cx="31" cy="95" r="3"/><circle cx="1" cy="95" r="3"/><circle cx="211" cy="65" r="3"/><circle cx="181" cy="65" r="3"/><circle cx="151" cy="65" r="3"/><circle cx="121" cy="65" r="3"/><circle cx="91" cy="65" r="3"/><circle cx="61" cy="65" r="3"/><circle cx="31" cy="65" r="3"/><circle cx="1" cy="65" r="3"/><circle cx="211" cy="35" r="3"/><circle cx="181" cy="35" r="3"/><circle cx="151" cy="35" r="3"/><circle cx="121" cy="35" r="3"/><circle cx="91" cy="35" r="3"/><circle cx="61" cy="35" r="3"/><circle cx="31" cy="35" r="3"/><circle cx="1" cy="35" r="3"/><circle cx="211" cy="5" r="3"/><circle cx="181" cy="5" r="3"/><circle cx="151" cy="5" r="3"/><circle cx="121" cy="5" r="3"/><circle cx="91" cy="5" r="3"/><circle cx="61" cy="5" r="3"/><circle cx="31" cy="5" r="3"/><circle cx="1" cy="5" r="3"/></g></g></g><defs><linearGradient id="c" x1="62.532" y1="-64.015" x2="1664.52" y2="290.607" gradientUnits="userSpaceOnUse"><stop stop-color="#102F9E"/><stop offset="1" stop-color="#4800A5"/></linearGradient><clipPath id="b"><rect width="1440" height="868" rx="32" fill="#fff"/></clipPath><filter id="a" x="-4" y="0" width="1448" height="876" filterUnits="userSpaceOnUse" color-interpolation-filters="sRGB"><feFlood flood-opacity="0" result="BackgroundImageFix"/><feColorMatrix in="SourceAlpha" values="0 0 0 0 0 0 0 0 0 0 0 0 0 0 0 0 0 0 127 0" result="hardAlpha"/><feOffset dy="4"/><feGaussianBlur stdDeviation="2"/><feComposite in2="hardAlpha" operator="out"/><feColorMatrix values="0 0 0 0 0 0 0 0 0 0 0 0 0 0 0 0 0 0 0.25 0"/><feBlend in2="BackgroundImageFix" result="effect1_dropShadow_931_26230"/><feBlend in="SourceGraphic" in2="effect1_dropShadow_931_26230" result="shape"/></filter></defs></svg>