<svg width="426" height="226" fill="none" xmlns="http://www.w3.org/2000/svg"><g opacity=".2" fill="#fff"><circle cx="423" cy="213" r="3"/><circle cx="393" cy="213" r="3"/><circle cx="363" cy="213" r="3"/><circle cx="333" cy="213" r="3"/><circle cx="303" cy="213" r="3"/><circle cx="273" cy="213" r="3"/><circle cx="243" cy="213" r="3"/><circle cx="213" cy="213" r="3"/><circle cx="183" cy="213" r="3"/><circle cx="153" cy="213" r="3"/><circle cx="123" cy="213" r="3"/><circle cx="93" cy="213" r="3"/><circle cx="63" cy="213" r="3"/><circle cx="33" cy="213" r="3"/><circle cx="3" cy="213" r="3"/><circle cx="423" cy="183" r="3"/><circle cx="393" cy="183" r="3"/><circle cx="363" cy="183" r="3"/><circle cx="333" cy="183" r="3"/><circle cx="303" cy="183" r="3"/><circle cx="273" cy="183" r="3"/><circle cx="243" cy="183" r="3"/><circle cx="213" cy="183" r="3"/><circle cx="183" cy="183" r="3"/><circle cx="153" cy="183" r="3"/><circle cx="123" cy="183" r="3"/><circle cx="93" cy="183" r="3"/><circle cx="63" cy="183" r="3"/><circle cx="33" cy="183" r="3"/><circle cx="3" cy="183" r="3"/><circle cx="423" cy="153" r="3"/><circle cx="393" cy="153" r="3"/><circle cx="363" cy="153" r="3"/><circle cx="333" cy="153" r="3"/><circle cx="303" cy="153" r="3"/><circle cx="273" cy="153" r="3"/><circle cx="243" cy="153" r="3"/><circle cx="213" cy="153" r="3"/><circle cx="183" cy="153" r="3"/><circle cx="153" cy="153" r="3"/><circle cx="123" cy="153" r="3"/><circle cx="93" cy="153" r="3"/><circle cx="63" cy="153" r="3"/><circle cx="33" cy="153" r="3"/><circle cx="3" cy="153" r="3"/><circle cx="423" cy="123" r="3"/><circle cx="393" cy="123" r="3"/><circle cx="363" cy="123" r="3"/><circle cx="333" cy="123" r="3"/><circle cx="303" cy="123" r="3"/><circle cx="273" cy="123" r="3"/><circle cx="243" cy="123" r="3"/><circle cx="213" cy="123" r="3"/><circle cx="183" cy="123" r="3"/><circle cx="153" cy="123" r="3"/><circle cx="123" cy="123" r="3"/><circle cx="93" cy="123" r="3"/><circle cx="63" cy="123" r="3"/><circle cx="33" cy="123" r="3"/><circle cx="3" cy="123" r="3"/><circle cx="423" cy="93" r="3"/><circle cx="393" cy="93" r="3"/><circle cx="363" cy="93" r="3"/><circle cx="333" cy="93" r="3"/><circle cx="303" cy="93" r="3"/><circle cx="273" cy="93" r="3"/><circle cx="243" cy="93" r="3"/><circle cx="213" cy="93" r="3"/><circle cx="183" cy="93" r="3"/><circle cx="153" cy="93" r="3"/><circle cx="123" cy="93" r="3"/><circle cx="93" cy="93" r="3"/><circle cx="63" cy="93" r="3"/><circle cx="33" cy="93" r="3"/><circle cx="3" cy="93" r="3"/><circle cx="423" cy="63" r="3"/><circle cx="393" cy="63" r="3"/><circle cx="363" cy="63" r="3"/><circle cx="333" cy="63" r="3"/><circle cx="303" cy="63" r="3"/><circle cx="273" cy="63" r="3"/><circle cx="243" cy="63" r="3"/><circle cx="213" cy="63" r="3"/><circle cx="183" cy="63" r="3"/><circle cx="153" cy="63" r="3"/><circle cx="123" cy="63" r="3"/><circle cx="93" cy="63" r="3"/><circle cx="63" cy="63" r="3"/><circle cx="33" cy="63" r="3"/><circle cx="3" cy="63" r="3"/><circle cx="423" cy="33" r="3"/><circle cx="393" cy="33" r="3"/><circle cx="363" cy="33" r="3"/><circle cx="333" cy="33" r="3"/><circle cx="303" cy="33" r="3"/><circle cx="273" cy="33" r="3"/><circle cx="243" cy="33" r="3"/><circle cx="213" cy="33" r="3"/><circle cx="183" cy="33" r="3"/><circle cx="153" cy="33" r="3"/><circle cx="123" cy="33" r="3"/><circle cx="93" cy="33" r="3"/><circle cx="63" cy="33" r="3"/><circle cx="33" cy="33" r="3"/><circle cx="3" cy="33" r="3"/><circle cx="423" cy="3" r="3"/><circle cx="393" cy="3" r="3"/><circle cx="363" cy="3" r="3"/><circle cx="333" cy="3" r="3"/><circle cx="303" cy="3" r="3"/><circle cx="273" cy="3" r="3"/><circle cx="243" cy="3" r="3"/><circle cx="213" cy="3" r="3"/><circle cx="183" cy="3" r="3"/><circle cx="153" cy="3" r="3"/><circle cx="123" cy="3" r="3"/><circle cx="93" cy="3" r="3"/><circle cx="63" cy="3" r="3"/><circle cx="33" cy="3" r="3"/><circle cx="3" cy="3" r="3"/></g></svg>