<svg width="186" height="576" fill="none" xmlns="http://www.w3.org/2000/svg"><g opacity=".2" fill="#fff"><circle cx="183" cy="573" r="3"/><circle cx="153" cy="573" r="3"/><circle cx="123" cy="573" r="3"/><circle cx="93" cy="573" r="3"/><circle cx="63" cy="573" r="3"/><circle cx="33" cy="573" r="3"/><circle cx="3" cy="573" r="3"/><circle cx="183" cy="543" r="3"/><circle cx="153" cy="543" r="3"/><circle cx="123" cy="543" r="3"/><circle cx="93" cy="543" r="3"/><circle cx="63" cy="543" r="3"/><circle cx="33" cy="543" r="3"/><circle cx="3" cy="543" r="3"/><circle cx="183" cy="513" r="3"/><circle cx="153" cy="513" r="3"/><circle cx="123" cy="513" r="3"/><circle cx="93" cy="513" r="3"/><circle cx="63" cy="513" r="3"/><circle cx="33" cy="513" r="3"/><circle cx="3" cy="513" r="3"/><circle cx="183" cy="483" r="3"/><circle cx="153" cy="483" r="3"/><circle cx="123" cy="483" r="3"/><circle cx="93" cy="483" r="3"/><circle cx="63" cy="483" r="3"/><circle cx="33" cy="483" r="3"/><circle cx="3" cy="483" r="3"/><circle cx="183" cy="453" r="3"/><circle cx="153" cy="453" r="3"/><circle cx="123" cy="453" r="3"/><circle cx="93" cy="453" r="3"/><circle cx="63" cy="453" r="3"/><circle cx="33" cy="453" r="3"/><circle cx="3" cy="453" r="3"/><circle cx="183" cy="423" r="3"/><circle cx="153" cy="423" r="3"/><circle cx="123" cy="423" r="3"/><circle cx="93" cy="423" r="3"/><circle cx="63" cy="423" r="3"/><circle cx="33" cy="423" r="3"/><circle cx="3" cy="423" r="3"/><circle cx="183" cy="393" r="3"/><circle cx="153" cy="393" r="3"/><circle cx="123" cy="393" r="3"/><circle cx="93" cy="393" r="3"/><circle cx="63" cy="393" r="3"/><circle cx="33" cy="393" r="3"/><circle cx="3" cy="393" r="3"/><circle cx="183" cy="363" r="3"/><circle cx="153" cy="363" r="3"/><circle cx="123" cy="363" r="3"/><circle cx="93" cy="363" r="3"/><circle cx="63" cy="363" r="3"/><circle cx="33" cy="363" r="3"/><circle cx="3" cy="363" r="3"/><circle cx="183" cy="333" r="3"/><circle cx="153" cy="333" r="3"/><circle cx="123" cy="333" r="3"/><circle cx="93" cy="333" r="3"/><circle cx="63" cy="333" r="3"/><circle cx="33" cy="333" r="3"/><circle cx="3" cy="333" r="3"/><circle cx="183" cy="303" r="3"/><circle cx="153" cy="303" r="3"/><circle cx="123" cy="303" r="3"/><circle cx="93" cy="303" r="3"/><circle cx="63" cy="303" r="3"/><circle cx="33" cy="303" r="3"/><circle cx="3" cy="303" r="3"/><circle cx="183" cy="273" r="3"/><circle cx="153" cy="273" r="3"/><circle cx="123" cy="273" r="3"/><circle cx="93" cy="273" r="3"/><circle cx="63" cy="273" r="3"/><circle cx="33" cy="273" r="3"/><circle cx="3" cy="273" r="3"/><circle cx="183" cy="243" r="3"/><circle cx="153" cy="243" r="3"/><circle cx="123" cy="243" r="3"/><circle cx="93" cy="243" r="3"/><circle cx="63" cy="243" r="3"/><circle cx="33" cy="243" r="3"/><circle cx="3" cy="243" r="3"/><circle cx="183" cy="213" r="3"/><circle cx="153" cy="213" r="3"/><circle cx="123" cy="213" r="3"/><circle cx="93" cy="213" r="3"/><circle cx="63" cy="213" r="3"/><circle cx="33" cy="213" r="3"/><circle cx="3" cy="213" r="3"/><circle cx="183" cy="183" r="3"/><circle cx="153" cy="183" r="3"/><circle cx="123" cy="183" r="3"/><circle cx="93" cy="183" r="3"/><circle cx="63" cy="183" r="3"/><circle cx="33" cy="183" r="3"/><circle cx="3" cy="183" r="3"/><circle cx="183" cy="153" r="3"/><circle cx="153" cy="153" r="3"/><circle cx="123" cy="153" r="3"/><circle cx="93" cy="153" r="3"/><circle cx="63" cy="153" r="3"/><circle cx="33" cy="153" r="3"/><circle cx="3" cy="153" r="3"/><circle cx="183" cy="123" r="3"/><circle cx="153" cy="123" r="3"/><circle cx="123" cy="123" r="3"/><circle cx="93" cy="123" r="3"/><circle cx="63" cy="123" r="3"/><circle cx="33" cy="123" r="3"/><circle cx="3" cy="123" r="3"/><circle cx="183" cy="93" r="3"/><circle cx="153" cy="93" r="3"/><circle cx="123" cy="93" r="3"/><circle cx="93" cy="93" r="3"/><circle cx="63" cy="93" r="3"/><circle cx="33" cy="93" r="3"/><circle cx="3" cy="93" r="3"/><circle cx="183" cy="63" r="3"/><circle cx="153" cy="63" r="3"/><circle cx="123" cy="63" r="3"/><circle cx="93" cy="63" r="3"/><circle cx="63" cy="63" r="3"/><circle cx="33" cy="63" r="3"/><circle cx="3" cy="63" r="3"/><circle cx="183" cy="33" r="3"/><circle cx="153" cy="33" r="3"/><circle cx="123" cy="33" r="3"/><circle cx="93" cy="33" r="3"/><circle cx="63" cy="33" r="3"/><circle cx="33" cy="33" r="3"/><circle cx="3" cy="33" r="3"/><circle cx="183" cy="3" r="3"/><circle cx="153" cy="3" r="3"/><circle cx="123" cy="3" r="3"/><circle cx="93" cy="3" r="3"/><circle cx="63" cy="3" r="3"/><circle cx="33" cy="3" r="3"/><circle cx="3" cy="3" r="3"/></g></svg>