<svg width="19" height="18" fill="none" xmlns="http://www.w3.org/2000/svg"><path d="M18.667 7.607c0-4.102-4.112-7.439-9.167-7.439S.333 3.505.333 7.607c0 3.677 3.261 6.757 7.667 7.339.298.065.704.197.807.452.093.232.06.595.03.829l-.131.785c-.04.231-.184.906.794.494.978-.413 5.279-3.109 7.202-5.322 1.328-1.457 1.964-2.936 1.964-4.577Z" fill="#141485"/><g fill="#FFE066"><path d="M15.617 9.976H13.04a.175.175 0 0 1-.175-.175V5.8c0-.097.079-.175.175-.175h2.576c.096 0 .175.079.175.175v.65a.175.175 0 0 1-.175.175h-1.75V7.3h1.75c.096 0 .175.079.175.175v.65a.175.175 0 0 1-.175.175h-1.75v.675h1.75c.096 0 .175.08.175.175v.65a.175.175 0 0 1-.175.175ZM6.09 9.976a.175.175 0 0 0 .176-.175v-.65a.176.176 0 0 0-.175-.176H4.34V5.8a.176.176 0 0 0-.176-.175h-.65a.175.175 0 0 0-.175.175v4c0 .097.079.176.175.176h2.576ZM7.641 5.625h-.65a.175.175 0 0 0-.175.175v4c0 .097.078.176.175.176h.65a.175.175 0 0 0 .175-.175V5.8a.175.175 0 0 0-.175-.175ZM12.067 5.625h-.65a.175.175 0 0 0-.175.175v2.376l-1.83-2.472a.17.17 0 0 0-.015-.018v-.001a.184.184 0 0 0-.011-.011l-.004-.003a.17.17 0 0 0-.01-.008l-.004-.004a.174.174 0 0 0-.01-.006l-.004-.003a.154.154 0 0 0-.026-.013c-.002 0-.004 0-.006-.002a.21.21 0 0 0-.027-.007h-.007l-.01-.002h-.662a.175.175 0 0 0-.175.174v4c0 .097.079.176.175.176h.65a.175.175 0 0 0 .175-.175V7.425L11.274 9.9a.175.175 0 0 0 .045.044l.002.002.011.007a.223.223 0 0 0 .014.006l.008.004a.27.27 0 0 0 .018.006h.002c.015.005.03.007.046.007h.647a.175.175 0 0 0 .175-.175v-4a.175.175 0 0 0-.175-.176Z"/></g></svg>