<svg width="14" height="14" viewBox="0 0 14 14" fill="none" xmlns="http://www.w3.org/2000/svg">
<path d="M3.125 14H0.21875V4.65625H3.125V14ZM1.65625 3.40625C0.75 3.40625 0 2.625 0 1.6875C0 0.78125 0.75 0.03125 1.65625 0.03125C2.59375 0.03125 3.34375 0.78125 3.34375 1.6875C3.34375 2.625 2.59375 3.40625 1.65625 3.40625ZM13.9688 14H11.0938V9.46875C11.0938 8.375 11.0625 7 9.5625 7C8.0625 7 7.84375 8.15625 7.84375 9.375V14H4.9375V4.65625H7.71875V5.9375H7.75C8.15625 5.21875 9.09375 4.4375 10.5 4.4375C13.4375 4.4375 14 6.375 14 8.875V14H13.9688Z" fill="#141485"/>
</svg>
