<svg width="20" height="21" viewBox="0 0 20 21" fill="none" xmlns="http://www.w3.org/2000/svg">
<mask id="mask0_1106_22612" style="mask-type:alpha" maskUnits="userSpaceOnUse" x="0" y="0" width="20" height="21">
<rect y="0.5" width="20" height="20" fill="#D9D9D9"/>
</mask>
<g mask="url(#mask0_1106_22612)">
<path d="M3.33332 17.1654C2.87499 17.1654 2.48263 17.0022 2.15624 16.6758C1.82985 16.3494 1.66666 15.957 1.66666 15.4987V5.4987C1.66666 5.04036 1.82985 4.648 2.15624 4.32161C2.48263 3.99523 2.87499 3.83203 3.33332 3.83203H16.6667C17.125 3.83203 17.5174 3.99523 17.8437 4.32161C18.1701 4.648 18.3333 5.04036 18.3333 5.4987V15.4987C18.3333 15.957 18.1701 16.3494 17.8437 16.6758C17.5174 17.0022 17.125 17.1654 16.6667 17.1654H3.33332ZM9.99999 11.1862C10.0694 11.1862 10.1424 11.1758 10.2187 11.1549C10.2951 11.1341 10.368 11.1029 10.4375 11.0612L16.3333 7.3737C16.4444 7.30425 16.5278 7.21745 16.5833 7.11328C16.6389 7.00911 16.6667 6.89453 16.6667 6.76953C16.6667 6.49175 16.5486 6.28342 16.3125 6.14453C16.0764 6.00564 15.8333 6.01259 15.5833 6.16536L9.99999 9.66536L4.41666 6.16536C4.16666 6.01259 3.9236 6.00911 3.68749 6.15495C3.45138 6.30078 3.33332 6.50564 3.33332 6.76953C3.33332 6.90842 3.3611 7.02995 3.41666 7.13411C3.47221 7.23828 3.55555 7.31814 3.66666 7.3737L9.56249 11.0612C9.63194 11.1029 9.70485 11.1341 9.78124 11.1549C9.85763 11.1758 9.93055 11.1862 9.99999 11.1862Z" fill="#141485"/>
</g>
</svg>
