<svg width="32" height="32" viewBox="0 0 32 32" fill="none" xmlns="http://www.w3.org/2000/svg">
<rect width="32" height="32" rx="16" fill="#FFE066"/>
<mask id="mask0_1043_23846" style="mask-type:alpha" maskUnits="userSpaceOnUse" x="8" y="8" width="16" height="16">
<rect x="8" y="8" width="16" height="16" fill="#D9D9D9"/>
</mask>
<g mask="url(#mask0_1043_23846)">
<path d="M15.5334 20.8659C15.4111 20.7437 15.3472 20.5881 15.3417 20.3992C15.3361 20.2103 15.3945 20.0548 15.5167 19.9326L18.7834 16.6659H11.3334C11.1445 16.6659 10.9861 16.602 10.8584 16.4742C10.7306 16.3464 10.6667 16.1881 10.6667 15.9992C10.6667 15.8103 10.7306 15.652 10.8584 15.5242C10.9861 15.3964 11.1445 15.3326 11.3334 15.3326H18.7834L15.5167 12.0659C15.3945 11.9437 15.3361 11.7881 15.3417 11.5992C15.3472 11.4103 15.4111 11.2548 15.5334 11.1326C15.6556 11.0103 15.8111 10.9492 16 10.9492C16.1889 10.9492 16.3445 11.0103 16.4667 11.1326L20.8667 15.5326C20.9334 15.5881 20.9806 15.6576 21.0084 15.7409C21.0361 15.8242 21.05 15.9103 21.05 15.9992C21.05 16.0881 21.0361 16.1714 21.0084 16.2492C20.9806 16.327 20.9334 16.3992 20.8667 16.4659L16.4667 20.8659C16.3445 20.9881 16.1889 21.0492 16 21.0492C15.8111 21.0492 15.6556 20.9881 15.5334 20.8659Z" fill="#141485"/>
</g>
</svg>
