<svg width="2446" height="116" viewBox="0 0 2446 116" fill="none" xmlns="http://www.w3.org/2000/svg">
<g opacity="0.2">
<path d="M0.160001 71.12V5.03999C0.160001 3.43999 1.6 1.99999 3.2 1.99999H22.88C24.64 1.99999 25.92 3.43999 25.92 5.03999V69.84C25.92 81.04 34.24 90 45.6 90C57.12 90 65.6 81.04 65.6 69.84V5.03999C65.6 3.43999 66.88 1.99999 68.64 1.99999H88.32C89.92 1.99999 91.36 3.43999 91.36 5.03999V71.12C91.36 95.44 70.88 115.6 45.6 115.6C20.48 115.6 0.160001 95.44 0.160001 71.12ZM125.073 110.96V5.03999C125.073 3.43999 126.353 1.99999 128.113 1.99999H166.673C186.353 1.99999 202.513 18 202.513 37.36C202.513 57.2 186.353 73.36 166.833 73.36H150.033V110.96C150.033 112.56 148.593 114 146.993 114H128.113C126.353 114 125.073 112.56 125.073 110.96ZM150.033 50H165.233C172.113 50 177.873 44.56 177.873 37.36C177.873 30.64 172.113 25.52 165.233 25.52H150.033V50ZM226.823 110.96V5.03999C226.823 3.43999 228.103 1.99999 229.703 1.99999H268.743C299.623 1.99999 324.903 27.12 324.903 57.84C324.903 88.88 299.623 114 268.743 114H229.703C228.103 114 226.823 112.56 226.823 110.96ZM251.783 90.32H267.143C285.223 90.32 298.343 76.08 298.343 57.84C298.343 39.76 285.223 25.52 267.143 25.52H251.783V90.32ZM339.705 114C337.305 114 336.025 111.92 336.985 109.84L387.065 2.15999C387.545 1.19999 388.665 0.399994 389.785 0.399994H391.385C392.505 0.399994 393.625 1.19999 394.105 2.15999L444.185 109.84C445.145 111.92 443.865 114 441.465 114H423.705C420.825 114 419.545 113.04 418.105 110L412.345 97.36H368.825L363.065 110.16C362.265 112.08 360.505 114 357.305 114H339.705ZM378.425 75.6H402.745L390.585 49.2H390.425L378.425 75.6ZM473.941 110.96V25.52H451.061C449.301 25.52 448.021 24.08 448.021 22.48V5.03999C448.021 3.43999 449.301 1.99999 451.061 1.99999H522.101C523.861 1.99999 525.141 3.43999 525.141 5.03999V22.48C525.141 24.08 523.861 25.52 522.101 25.52H499.221V110.96C499.221 112.56 497.781 114 496.181 114H476.981C475.381 114 473.941 112.56 473.941 110.96ZM549.104 110.96V5.03999C549.104 3.43999 550.384 1.99999 552.144 1.99999H618.384C620.144 1.99999 621.424 3.43999 621.424 5.03999V22.48C621.424 24.08 620.144 25.52 618.384 25.52H574.064V45.36H610.544C612.144 45.36 613.584 46.8 613.584 48.4V65.84C613.584 67.6 612.144 68.88 610.544 68.88H574.064V90.48H618.384C620.144 90.48 621.424 91.92 621.424 93.52V110.96C621.424 112.56 620.144 114 618.384 114H552.144C550.384 114 549.104 112.56 549.104 110.96ZM708.566 110.96V25.52H685.686C683.926 25.52 682.646 24.08 682.646 22.48V5.03999C682.646 3.43999 683.926 1.99999 685.686 1.99999H756.726C758.486 1.99999 759.766 3.43999 759.766 5.03999V22.48C759.766 24.08 758.486 25.52 756.726 25.52H733.846V110.96C733.846 112.56 732.406 114 730.806 114H711.606C710.006 114 708.566 112.56 708.566 110.96ZM783.729 110.96V5.03999C783.729 3.43999 785.169 1.99999 786.769 1.99999H805.809C807.569 1.99999 808.849 3.43999 808.849 5.03999V45.36H854.609V5.03999C854.609 3.43999 855.889 1.99999 857.649 1.99999H876.689C878.289 1.99999 879.729 3.43999 879.729 5.03999V110.96C879.729 112.56 878.289 114 876.689 114H857.649C855.889 114 854.609 112.56 854.609 110.96V68.88H808.849V110.96C808.849 112.56 807.569 114 805.809 114H786.769C785.169 114 783.729 112.56 783.729 110.96ZM915.323 110.96V5.03999C915.323 3.43999 916.603 1.99999 918.363 1.99999H984.603C986.363 1.99999 987.643 3.43999 987.643 5.03999V22.48C987.643 24.08 986.363 25.52 984.603 25.52H940.283V45.36H976.763C978.363 45.36 979.803 46.8 979.803 48.4V65.84C979.803 67.6 978.363 68.88 976.763 68.88H940.283V90.48H984.603C986.363 90.48 987.643 91.92 987.643 93.52V110.96C987.643 112.56 986.363 114 984.603 114H918.363C916.603 114 915.323 112.56 915.323 110.96ZM1060.39 110.96V5.03999C1060.39 3.43999 1061.67 1.99999 1063.43 1.99999H1129.67C1131.43 1.99999 1132.71 3.43999 1132.71 5.03999V22.48C1132.71 24.08 1131.43 25.52 1129.67 25.52H1085.35V48.56H1121.83C1123.43 48.56 1124.87 50 1124.87 51.6V69.04C1124.87 70.64 1123.43 72.08 1121.83 72.08H1085.35V110.96C1085.35 112.56 1083.91 114 1082.31 114H1063.43C1061.67 114 1060.39 112.56 1060.39 110.96ZM1156.94 71.12V5.03999C1156.94 3.43999 1158.38 1.99999 1159.98 1.99999H1179.66C1181.42 1.99999 1182.7 3.43999 1182.7 5.03999V69.84C1182.7 81.04 1191.02 90 1202.38 90C1213.9 90 1222.38 81.04 1222.38 69.84V5.03999C1222.38 3.43999 1223.66 1.99999 1225.42 1.99999H1245.1C1246.7 1.99999 1248.14 3.43999 1248.14 5.03999V71.12C1248.14 95.44 1227.66 115.6 1202.38 115.6C1177.26 115.6 1156.94 95.44 1156.94 71.12ZM1296.25 110.96V25.52H1273.37C1271.61 25.52 1270.33 24.08 1270.33 22.48V5.03999C1270.33 3.43999 1271.61 1.99999 1273.37 1.99999H1344.41C1346.17 1.99999 1347.45 3.43999 1347.45 5.03999V22.48C1347.45 24.08 1346.17 25.52 1344.41 25.52H1321.53V110.96C1321.53 112.56 1320.09 114 1318.49 114H1299.29C1297.69 114 1296.25 112.56 1296.25 110.96ZM1369.82 71.12V5.03999C1369.82 3.43999 1371.26 1.99999 1372.86 1.99999H1392.54C1394.3 1.99999 1395.58 3.43999 1395.58 5.03999V69.84C1395.58 81.04 1403.9 90 1415.26 90C1426.78 90 1435.26 81.04 1435.26 69.84V5.03999C1435.26 3.43999 1436.54 1.99999 1438.3 1.99999H1457.98C1459.58 1.99999 1461.02 3.43999 1461.02 5.03999V71.12C1461.02 95.44 1440.54 115.6 1415.26 115.6C1390.14 115.6 1369.82 95.44 1369.82 71.12ZM1494.73 110.96V5.03999C1494.73 3.43999 1496.01 1.99999 1497.77 1.99999H1545.61C1564.81 1.99999 1580.49 17.52 1580.49 36.56C1580.49 51.28 1570.73 63.12 1556.81 68.72L1578.73 109.36C1579.85 111.44 1578.73 114 1576.01 114H1554.73C1553.45 114 1552.49 113.2 1552.17 112.56L1530.89 70.16H1519.85V110.96C1519.85 112.56 1518.41 114 1516.81 114H1497.77C1496.01 114 1494.73 112.56 1494.73 110.96ZM1519.85 49.84H1543.53C1550.09 49.84 1555.69 43.76 1555.69 37.04C1555.69 30.32 1550.09 24.88 1543.53 24.88H1519.85V49.84ZM1609.92 110.96V5.03999C1609.92 3.43999 1611.2 1.99999 1612.96 1.99999H1679.2C1680.96 1.99999 1682.24 3.43999 1682.24 5.03999V22.48C1682.24 24.08 1680.96 25.52 1679.2 25.52H1634.88V45.36H1671.36C1672.96 45.36 1674.4 46.8 1674.4 48.4V65.84C1674.4 67.6 1672.96 68.88 1671.36 68.88H1634.88V90.48H1679.2C1680.96 90.48 1682.24 91.92 1682.24 93.52V110.96C1682.24 112.56 1680.96 114 1679.2 114H1612.96C1611.2 114 1609.92 112.56 1609.92 110.96ZM1754.98 110.96V5.03999C1754.98 3.43999 1756.42 1.99999 1758.02 1.99999H1777.22C1778.82 1.99999 1780.26 3.43999 1780.26 5.03999V110.96C1780.26 112.56 1778.82 114 1777.22 114H1758.02C1756.42 114 1754.98 112.56 1754.98 110.96ZM1815.79 110.96L1815.63 3.27999C1815.63 1.68 1817.07 0.399994 1818.67 0.399994H1822.67L1886.51 61.84H1886.67V5.03999C1886.67 3.43999 1887.95 1.99999 1889.71 1.99999H1908.91C1910.51 1.99999 1911.95 3.43999 1911.95 5.03999V112.72C1911.95 114.32 1910.51 115.6 1908.91 115.6H1906.35C1905.87 115.6 1904.59 115.12 1904.27 114.8L1841.07 51.28H1840.91V110.96C1840.91 112.56 1839.63 114 1837.87 114H1818.83C1817.23 114 1815.79 112.56 1815.79 110.96ZM1985.25 103.28C1983.65 101.68 1983.17 101.04 1984.45 98.8L1991.97 85.52C1993.25 83.44 1996.29 83.76 1997.41 84.56C1998.05 84.88 2009.57 93.36 2020.13 93.36C2026.53 93.36 2031.17 89.36 2031.17 83.76C2031.17 77.04 2025.57 71.92 2014.69 67.6C2000.93 62.16 1983.65 51.44 1983.65 32.24C1983.65 16.4 1995.97 0.399994 2020.61 0.399994C2037.25 0.399994 2050.05 8.88 2054.85 12.4C2056.77 13.52 2056.45 16.4 2055.81 17.52L2047.65 29.84C2046.53 31.6 2043.65 33.04 2042.21 31.92C2040.77 31.12 2029.09 22.32 2019.33 22.32C2013.57 22.32 2009.25 26.16 2009.25 30.48C2009.25 36.4 2014.05 40.88 2026.69 46C2039.17 50.96 2059.01 60.72 2059.01 82.48C2059.01 98.96 2044.77 115.6 2021.25 115.6C2000.45 115.6 1988.93 106.96 1985.25 103.28ZM2100.91 110.96V25.52H2078.03C2076.27 25.52 2074.99 24.08 2074.99 22.48V5.03999C2074.99 3.43999 2076.27 1.99999 2078.03 1.99999H2149.07C2150.83 1.99999 2152.11 3.43999 2152.11 5.03999V22.48C2152.11 24.08 2150.83 25.52 2149.07 25.52H2126.19V110.96C2126.19 112.56 2124.75 114 2123.15 114H2103.95C2102.35 114 2100.91 112.56 2100.91 110.96ZM2202.18 110.96V60.08L2166.82 6.64C2165.54 4.56 2166.82 1.99999 2169.38 1.99999H2190.18C2191.46 1.99999 2192.26 2.79999 2192.74 3.43999L2214.98 36.24L2237.22 3.43999C2237.7 2.79999 2238.34 1.99999 2239.78 1.99999H2260.58C2263.14 1.99999 2264.42 4.56 2263.14 6.64L2227.3 59.92V110.96C2227.3 112.56 2225.86 114 2224.26 114H2205.22C2203.46 114 2202.18 112.56 2202.18 110.96ZM2283.92 110.96V5.03999C2283.92 3.43999 2285.2 1.99999 2286.96 1.99999H2306C2307.6 1.99999 2309.04 3.43999 2309.04 5.03999V90.48H2347.12C2348.88 90.48 2350.16 91.92 2350.16 93.52V110.96C2350.16 112.56 2348.88 114 2347.12 114H2286.96C2285.2 114 2283.92 112.56 2283.92 110.96ZM2373.64 110.96V5.03999C2373.64 3.43999 2374.92 1.99999 2376.68 1.99999H2442.92C2444.68 1.99999 2445.96 3.43999 2445.96 5.03999V22.48C2445.96 24.08 2444.68 25.52 2442.92 25.52H2398.6V45.36H2435.08C2436.68 45.36 2438.12 46.8 2438.12 48.4V65.84C2438.12 67.6 2436.68 68.88 2435.08 68.88H2398.6V90.48H2442.92C2444.68 90.48 2445.96 91.92 2445.96 93.52V110.96C2445.96 112.56 2444.68 114 2442.92 114H2376.68C2374.92 114 2373.64 112.56 2373.64 110.96Z" fill="url(#paint0_linear_904_28920)"/>
<path d="M1.66 71.12V5.03999H-1.34V71.12H1.66ZM1.66 5.03999C1.66 4.26842 2.42843 3.49999 3.2 3.49999V0.499992C0.771573 0.499992 -1.34 2.61157 -1.34 5.03999H1.66ZM3.2 3.49999H22.88V0.499992H3.2V3.49999ZM22.88 3.49999C23.7606 3.49999 24.42 4.21654 24.42 5.03999H27.42C27.42 2.66345 25.5194 0.499992 22.88 0.499992V3.49999ZM24.42 5.03999V69.84H27.42V5.03999H24.42ZM24.42 69.84C24.42 81.8124 33.3567 91.5 45.6 91.5V88.5C35.1233 88.5 27.42 80.2676 27.42 69.84H24.42ZM45.6 91.5C57.9797 91.5 67.1 81.8368 67.1 69.84H64.1C64.1 80.2432 56.2603 88.5 45.6 88.5V91.5ZM67.1 69.84V5.03999H64.1V69.84H67.1ZM67.1 5.03999C67.1 4.21654 67.7594 3.49999 68.64 3.49999V0.499992C66.0006 0.499992 64.1 2.66345 64.1 5.03999H67.1ZM68.64 3.49999H88.32V0.499992H68.64V3.49999ZM88.32 3.49999C89.0916 3.49999 89.86 4.26842 89.86 5.03999H92.86C92.86 2.61157 90.7484 0.499992 88.32 0.499992V3.49999ZM89.86 5.03999V71.12H92.86V5.03999H89.86ZM89.86 71.12C89.86 94.5772 70.0864 114.1 45.6 114.1V117.1C71.6736 117.1 92.86 96.3028 92.86 71.12H89.86ZM45.6 114.1C21.284 114.1 1.66 94.5874 1.66 71.12H-1.34C-1.34 96.2926 19.676 117.1 45.6 117.1V114.1ZM150.033 73.36V71.86H148.533V73.36H150.033ZM150.033 50H148.533V51.5H150.033V50ZM150.033 25.52V24.02H148.533V25.52H150.033ZM126.572 110.96V5.03999H123.572V110.96H126.572ZM126.572 5.03999C126.572 4.21654 127.232 3.49999 128.113 3.49999V0.499992C125.473 0.499992 123.572 2.66345 123.572 5.03999H126.572ZM128.113 3.49999H166.673V0.499992H128.113V3.49999ZM166.673 3.49999C185.542 3.49999 201.013 18.8459 201.013 37.36H204.013C204.013 17.1541 187.163 0.499992 166.673 0.499992V3.49999ZM201.013 37.36C201.013 56.3803 185.515 71.86 166.833 71.86V74.86C187.19 74.86 204.013 58.0197 204.013 37.36H201.013ZM166.833 71.86H150.033V74.86H166.833V71.86ZM148.533 73.36V110.96H151.533V73.36H148.533ZM148.533 110.96C148.533 111.732 147.764 112.5 146.993 112.5V115.5C149.421 115.5 151.533 113.388 151.533 110.96H148.533ZM146.993 112.5H128.113V115.5H146.993V112.5ZM128.113 112.5C127.232 112.5 126.572 111.783 126.572 110.96H123.572C123.572 113.337 125.473 115.5 128.113 115.5V112.5ZM150.033 51.5H165.232V48.5H150.033V51.5ZM165.232 51.5C172.916 51.5 179.372 45.4131 179.372 37.36H176.372C176.372 43.7069 171.309 48.5 165.232 48.5V51.5ZM179.372 37.36C179.372 29.6988 172.824 24.02 165.232 24.02V27.02C171.402 27.02 176.372 31.5812 176.372 37.36H179.372ZM165.232 24.02H150.033V27.02H165.232V24.02ZM148.533 25.52V50H151.533V25.52H148.533ZM251.783 90.32H250.283V91.82H251.783V90.32ZM251.783 25.52V24.02H250.283V25.52H251.783ZM228.322 110.96V5.03999H225.322V110.96H228.322ZM228.322 5.03999C228.322 4.1618 229.034 3.49999 229.702 3.49999V0.499992C227.171 0.499992 225.322 2.71819 225.322 5.03999H228.322ZM229.702 3.49999H268.742V0.499992H229.702V3.49999ZM268.742 3.49999C298.802 3.49999 323.402 27.9568 323.402 57.84H326.402C326.402 26.2832 300.443 0.499992 268.742 0.499992V3.49999ZM323.402 57.84C323.402 88.0488 298.797 112.5 268.742 112.5V115.5C300.448 115.5 326.402 89.7112 326.402 57.84H323.402ZM268.742 112.5H229.702V115.5H268.742V112.5ZM229.702 112.5C229.034 112.5 228.322 111.838 228.322 110.96H225.322C225.322 113.282 227.171 115.5 229.702 115.5V112.5ZM251.783 91.82H267.143V88.82H251.783V91.82ZM267.143 91.82C286.124 91.82 299.842 76.8329 299.842 57.84H296.842C296.842 75.3271 284.321 88.82 267.143 88.82V91.82ZM299.842 57.84C299.842 39.0021 286.12 24.02 267.143 24.02V27.02C284.325 27.02 296.842 40.5179 296.842 57.84H299.842ZM267.143 24.02H251.783V27.02H267.143V24.02ZM250.283 25.52V90.32H253.283V25.52H250.283ZM336.985 109.84L335.625 109.207L335.623 109.211L336.985 109.84ZM387.065 2.15999L385.723 1.48917L385.714 1.50817L385.705 1.52743L387.065 2.15999ZM394.105 2.15999L395.465 1.52743L395.456 1.50817L395.447 1.48917L394.105 2.15999ZM444.185 109.84L445.547 109.211L445.545 109.207L444.185 109.84ZM418.105 110L416.74 110.622L416.745 110.632L416.749 110.642L418.105 110ZM412.345 97.36L413.71 96.738L413.31 95.86H412.345V97.36ZM368.825 97.36V95.86H367.855L367.457 96.7445L368.825 97.36ZM363.065 110.16L361.697 109.544L361.688 109.564L361.68 109.583L363.065 110.16ZM378.425 75.6L377.059 74.9793L376.095 77.1H378.425V75.6ZM402.745 75.6V77.1H405.087L404.107 74.9725L402.745 75.6ZM390.585 49.2L391.947 48.5725L391.546 47.7H390.585V49.2ZM390.425 49.2V47.7H389.459L389.059 48.5793L390.425 49.2ZM339.705 112.5C338.957 112.5 338.541 112.192 338.348 111.891C338.151 111.584 338.059 111.092 338.347 110.469L335.623 109.211C334.951 110.668 335.019 112.256 335.822 113.51C336.629 114.768 338.053 115.5 339.705 115.5V112.5ZM338.345 110.473L388.425 2.79255L385.705 1.52743L335.625 109.207L338.345 110.473ZM388.407 2.83081C388.67 2.30459 389.312 1.89999 389.785 1.89999V-1.10001C388.018 -1.10001 386.42 0.0953979 385.723 1.48917L388.407 2.83081ZM389.785 1.89999H391.385V-1.10001H389.785V1.89999ZM391.385 1.89999C391.858 1.89999 392.5 2.30459 392.763 2.83081L395.447 1.48917C394.75 0.0953979 393.152 -1.10001 391.385 -1.10001V1.89999ZM392.745 2.79255L442.825 110.473L445.545 109.207L395.465 1.52743L392.745 2.79255ZM442.823 110.469C443.111 111.092 443.019 111.584 442.822 111.891C442.629 112.192 442.213 112.5 441.465 112.5V115.5C443.117 115.5 444.541 114.768 445.348 113.509C446.151 112.256 446.219 110.668 445.547 109.211L442.823 110.469ZM441.465 112.5H423.705V115.5H441.465V112.5ZM423.705 112.5C422.426 112.5 421.745 112.286 421.242 111.923C420.697 111.53 420.15 110.814 419.461 109.358L416.749 110.642C417.5 112.227 418.313 113.51 419.488 114.357C420.705 115.234 422.104 115.5 423.705 115.5V112.5ZM419.47 109.378L413.71 96.738L410.98 97.982L416.74 110.622L419.47 109.378ZM412.345 95.86H368.825V98.86H412.345V95.86ZM367.457 96.7445L361.697 109.544L364.433 110.776L370.193 97.9755L367.457 96.7445ZM361.68 109.583C361.05 111.097 359.75 112.5 357.305 112.5V115.5C361.26 115.5 363.48 113.063 364.45 110.737L361.68 109.583ZM357.305 112.5H339.705V115.5H357.305V112.5ZM378.425 77.1H402.745V74.1H378.425V77.1ZM404.107 74.9725L391.947 48.5725L389.223 49.8275L401.383 76.2275L404.107 74.9725ZM390.585 47.7H390.425V50.7H390.585V47.7ZM389.059 48.5793L377.059 74.9793L379.791 76.2207L391.791 49.8207L389.059 48.5793ZM473.941 25.52H475.441V24.02H473.941V25.52ZM499.221 25.52V24.02H497.721V25.52H499.221ZM475.441 110.96V25.52H472.441V110.96H475.441ZM473.941 24.02H451.061V27.02H473.941V24.02ZM451.061 24.02C450.181 24.02 449.521 23.3035 449.521 22.48H446.521C446.521 24.8565 448.422 27.02 451.061 27.02V24.02ZM449.521 22.48V5.03999H446.521V22.48H449.521ZM449.521 5.03999C449.521 4.21654 450.181 3.49999 451.061 3.49999V0.499992C448.422 0.499992 446.521 2.66345 446.521 5.03999H449.521ZM451.061 3.49999H522.101V0.499992H451.061V3.49999ZM522.101 3.49999C522.982 3.49999 523.641 4.21653 523.641 5.03999H526.641C526.641 2.66345 524.741 0.499992 522.101 0.499992V3.49999ZM523.641 5.03999V22.48H526.641V5.03999H523.641ZM523.641 22.48C523.641 23.3035 522.982 24.02 522.101 24.02V27.02C524.741 27.02 526.641 24.8565 526.641 22.48H523.641ZM522.101 24.02H499.221V27.02H522.101V24.02ZM497.721 25.52V110.96H500.721V25.52H497.721ZM497.721 110.96C497.721 111.732 496.953 112.5 496.181 112.5V115.5C498.61 115.5 500.721 113.388 500.721 110.96H497.721ZM496.181 112.5H476.981V115.5H496.181V112.5ZM476.981 112.5C476.21 112.5 475.441 111.732 475.441 110.96H472.441C472.441 113.388 474.553 115.5 476.981 115.5V112.5ZM574.064 25.52V24.02H572.564V25.52H574.064ZM574.064 45.36H572.564V46.86H574.064V45.36ZM574.064 68.88V67.38H572.564V68.88H574.064ZM574.064 90.48H572.564V91.98H574.064V90.48ZM550.604 110.96V5.03999H547.604V110.96H550.604ZM550.604 5.03999C550.604 4.21654 551.263 3.49999 552.144 3.49999V0.499992C549.504 0.499992 547.604 2.66345 547.604 5.03999H550.604ZM552.144 3.49999H618.384V0.499992H552.144V3.49999ZM618.384 3.49999C619.264 3.49999 619.924 4.21654 619.924 5.03999H622.924C622.924 2.66345 621.023 0.499992 618.384 0.499992V3.49999ZM619.924 5.03999V22.48H622.924V5.03999H619.924ZM619.924 22.48C619.924 23.3035 619.264 24.02 618.384 24.02V27.02C621.023 27.02 622.924 24.8565 622.924 22.48H619.924ZM618.384 24.02H574.064V27.02H618.384V24.02ZM572.564 25.52V45.36H575.564V25.52H572.564ZM574.064 46.86H610.544V43.86H574.064V46.86ZM610.544 46.86C611.315 46.86 612.084 47.6284 612.084 48.4H615.084C615.084 45.9716 612.972 43.86 610.544 43.86V46.86ZM612.084 48.4V65.84H615.084V48.4H612.084ZM612.084 65.84C612.084 66.7206 611.367 67.38 610.544 67.38V70.38C612.92 70.38 615.084 68.4794 615.084 65.84H612.084ZM610.544 67.38H574.064V70.38H610.544V67.38ZM572.564 68.88V90.48H575.564V68.88H572.564ZM574.064 91.98H618.384V88.98H574.064V91.98ZM618.384 91.98C619.264 91.98 619.924 92.6965 619.924 93.52H622.924C622.924 91.1435 621.023 88.98 618.384 88.98V91.98ZM619.924 93.52V110.96H622.924V93.52H619.924ZM619.924 110.96C619.924 111.783 619.264 112.5 618.384 112.5V115.5C621.023 115.5 622.924 113.337 622.924 110.96H619.924ZM618.384 112.5H552.144V115.5H618.384V112.5ZM552.144 112.5C551.263 112.5 550.604 111.783 550.604 110.96H547.604C547.604 113.337 549.504 115.5 552.144 115.5V112.5ZM708.566 25.52H710.066V24.02H708.566V25.52ZM733.846 25.52V24.02H732.346V25.52H733.846ZM710.066 110.96V25.52H707.066V110.96H710.066ZM708.566 24.02H685.686V27.02H708.566V24.02ZM685.686 24.02C684.806 24.02 684.146 23.3035 684.146 22.48H681.146C681.146 24.8565 683.047 27.02 685.686 27.02V24.02ZM684.146 22.48V5.03999H681.146V22.48H684.146ZM684.146 5.03999C684.146 4.21654 684.806 3.49999 685.686 3.49999V0.499992C683.047 0.499992 681.146 2.66345 681.146 5.03999H684.146ZM685.686 3.49999H756.726V0.499992H685.686V3.49999ZM756.726 3.49999C757.607 3.49999 758.266 4.21653 758.266 5.03999H761.266C761.266 2.66345 759.366 0.499992 756.726 0.499992V3.49999ZM758.266 5.03999V22.48H761.266V5.03999H758.266ZM758.266 22.48C758.266 23.3035 757.607 24.02 756.726 24.02V27.02C759.366 27.02 761.266 24.8565 761.266 22.48H758.266ZM756.726 24.02H733.846V27.02H756.726V24.02ZM732.346 25.52V110.96H735.346V25.52H732.346ZM732.346 110.96C732.346 111.732 731.578 112.5 730.806 112.5V115.5C733.235 115.5 735.346 113.388 735.346 110.96H732.346ZM730.806 112.5H711.606V115.5H730.806V112.5ZM711.606 112.5C710.835 112.5 710.066 111.732 710.066 110.96H707.066C707.066 113.388 709.178 115.5 711.606 115.5V112.5ZM808.849 45.36H807.349V46.86H808.849V45.36ZM854.609 45.36V46.86H856.109V45.36H854.609ZM854.609 68.88H856.109V67.38H854.609V68.88ZM808.849 68.88V67.38H807.349V68.88H808.849ZM785.229 110.96V5.03999H782.229V110.96H785.229ZM785.229 5.03999C785.229 4.26842 785.997 3.49999 786.769 3.49999V0.499992C784.34 0.499992 782.229 2.61156 782.229 5.03999H785.229ZM786.769 3.49999H805.809V0.499992H786.769V3.49999ZM805.809 3.49999C806.689 3.49999 807.349 4.21654 807.349 5.03999H810.349C810.349 2.66345 808.448 0.499992 805.809 0.499992V3.49999ZM807.349 5.03999V45.36H810.349V5.03999H807.349ZM808.849 46.86H854.609V43.86H808.849V46.86ZM856.109 45.36V5.03999H853.109V45.36H856.109ZM856.109 5.03999C856.109 4.21653 856.768 3.49999 857.649 3.49999V0.499992C855.009 0.499992 853.109 2.66345 853.109 5.03999H856.109ZM857.649 3.49999H876.689V0.499992H857.649V3.49999ZM876.689 3.49999C877.46 3.49999 878.229 4.26842 878.229 5.03999H881.229C881.229 2.61157 879.117 0.499992 876.689 0.499992V3.49999ZM878.229 5.03999V110.96H881.229V5.03999H878.229ZM878.229 110.96C878.229 111.732 877.46 112.5 876.689 112.5V115.5C879.117 115.5 881.229 113.388 881.229 110.96H878.229ZM876.689 112.5H857.649V115.5H876.689V112.5ZM857.649 112.5C856.768 112.5 856.109 111.783 856.109 110.96H853.109C853.109 113.337 855.009 115.5 857.649 115.5V112.5ZM856.109 110.96V68.88H853.109V110.96H856.109ZM854.609 67.38H808.849V70.38H854.609V67.38ZM807.349 68.88V110.96H810.349V68.88H807.349ZM807.349 110.96C807.349 111.783 806.689 112.5 805.809 112.5V115.5C808.448 115.5 810.349 113.337 810.349 110.96H807.349ZM805.809 112.5H786.769V115.5H805.809V112.5ZM786.769 112.5C785.997 112.5 785.229 111.732 785.229 110.96H782.229C782.229 113.388 784.34 115.5 786.769 115.5V112.5ZM940.283 25.52V24.02H938.783V25.52H940.283ZM940.283 45.36H938.783V46.86H940.283V45.36ZM940.283 68.88V67.38H938.783V68.88H940.283ZM940.283 90.48H938.783V91.98H940.283V90.48ZM916.823 110.96V5.03999H913.823V110.96H916.823ZM916.823 5.03999C916.823 4.21654 917.482 3.49999 918.362 3.49999V0.499992C915.723 0.499992 913.823 2.66345 913.823 5.03999H916.823ZM918.362 3.49999H984.603V0.499992H918.362V3.49999ZM984.603 3.49999C985.483 3.49999 986.143 4.21654 986.143 5.03999H989.143C989.143 2.66345 987.242 0.499992 984.603 0.499992V3.49999ZM986.143 5.03999V22.48H989.143V5.03999H986.143ZM986.143 22.48C986.143 23.3035 985.483 24.02 984.603 24.02V27.02C987.242 27.02 989.143 24.8565 989.143 22.48H986.143ZM984.603 24.02H940.283V27.02H984.603V24.02ZM938.783 25.52V45.36H941.783V25.52H938.783ZM940.283 46.86H976.763V43.86H940.283V46.86ZM976.763 46.86C977.534 46.86 978.302 47.6284 978.302 48.4H981.302C981.302 45.9716 979.191 43.86 976.763 43.86V46.86ZM978.302 48.4V65.84H981.302V48.4H978.302ZM978.302 65.84C978.302 66.7206 977.586 67.38 976.763 67.38V70.38C979.139 70.38 981.302 68.4794 981.302 65.84H978.302ZM976.763 67.38H940.283V70.38H976.763V67.38ZM938.783 68.88V90.48H941.783V68.88H938.783ZM940.283 91.98H984.603V88.98H940.283V91.98ZM984.603 91.98C985.483 91.98 986.143 92.6965 986.143 93.52H989.143C989.143 91.1435 987.242 88.98 984.603 88.98V91.98ZM986.143 93.52V110.96H989.143V93.52H986.143ZM986.143 110.96C986.143 111.783 985.483 112.5 984.603 112.5V115.5C987.242 115.5 989.143 113.337 989.143 110.96H986.143ZM984.603 112.5H918.362V115.5H984.603V112.5ZM918.362 112.5C917.482 112.5 916.823 111.783 916.823 110.96H913.823C913.823 113.337 915.723 115.5 918.362 115.5V112.5ZM1085.34 25.52V24.02H1083.84V25.52H1085.34ZM1085.34 48.56H1083.84V50.06H1085.34V48.56ZM1085.34 72.08V70.58H1083.84V72.08H1085.34ZM1061.89 110.96V5.03999H1058.89V110.96H1061.89ZM1061.89 5.03999C1061.89 4.21654 1062.54 3.49999 1063.43 3.49999V0.499992C1060.79 0.499992 1058.89 2.66345 1058.89 5.03999H1061.89ZM1063.43 3.49999H1129.67V0.499992H1063.43V3.49999ZM1129.67 3.49999C1130.55 3.49999 1131.2 4.21654 1131.2 5.03999H1134.2C1134.2 2.66345 1132.3 0.499992 1129.67 0.499992V3.49999ZM1131.2 5.03999V22.48H1134.2V5.03999H1131.2ZM1131.2 22.48C1131.2 23.3035 1130.55 24.02 1129.67 24.02V27.02C1132.3 27.02 1134.2 24.8565 1134.2 22.48H1131.2ZM1129.67 24.02H1085.34V27.02H1129.67V24.02ZM1083.84 25.52V48.56H1086.84V25.52H1083.84ZM1085.34 50.06H1121.82V47.06H1085.34V50.06ZM1121.82 50.06C1122.6 50.06 1123.36 50.8284 1123.36 51.6H1126.36C1126.36 49.1716 1124.25 47.06 1121.82 47.06V50.06ZM1123.36 51.6V69.04H1126.36V51.6H1123.36ZM1123.36 69.04C1123.36 69.8116 1122.6 70.58 1121.82 70.58V73.58C1124.25 73.58 1126.36 71.4684 1126.36 69.04H1123.36ZM1121.82 70.58H1085.34V73.58H1121.82V70.58ZM1083.84 72.08V110.96H1086.84V72.08H1083.84ZM1083.84 110.96C1083.84 111.732 1083.08 112.5 1082.31 112.5V115.5C1084.73 115.5 1086.84 113.388 1086.84 110.96H1083.84ZM1082.31 112.5H1063.43V115.5H1082.31V112.5ZM1063.43 112.5C1062.54 112.5 1061.89 111.783 1061.89 110.96H1058.89C1058.89 113.337 1060.79 115.5 1063.43 115.5V112.5ZM1158.44 71.12V5.03999H1155.44V71.12H1158.44ZM1158.44 5.03999C1158.44 4.26842 1159.21 3.49999 1159.98 3.49999V0.499992C1157.55 0.499992 1155.44 2.61157 1155.44 5.03999H1158.44ZM1159.98 3.49999H1179.66V0.499992H1159.98V3.49999ZM1179.66 3.49999C1180.54 3.49999 1181.2 4.21654 1181.2 5.03999H1184.2C1184.2 2.66345 1182.3 0.499992 1179.66 0.499992V3.49999ZM1181.2 5.03999V69.84H1184.2V5.03999H1181.2ZM1181.2 69.84C1181.2 81.8124 1190.14 91.5 1202.38 91.5V88.5C1191.9 88.5 1184.2 80.2676 1184.2 69.84H1181.2ZM1202.38 91.5C1214.76 91.5 1223.88 81.8368 1223.88 69.84H1220.88C1220.88 80.2432 1213.04 88.5 1202.38 88.5V91.5ZM1223.88 69.84V5.03999H1220.88V69.84H1223.88ZM1223.88 5.03999C1223.88 4.21654 1224.54 3.49999 1225.42 3.49999V0.499992C1222.78 0.499992 1220.88 2.66345 1220.88 5.03999H1223.88ZM1225.42 3.49999H1245.1V0.499992H1225.42V3.49999ZM1245.1 3.49999C1245.87 3.49999 1246.64 4.26842 1246.64 5.03999H1249.64C1249.64 2.61157 1247.53 0.499992 1245.1 0.499992V3.49999ZM1246.64 5.03999V71.12H1249.64V5.03999H1246.64ZM1246.64 71.12C1246.64 94.5772 1226.87 114.1 1202.38 114.1V117.1C1228.45 117.1 1249.64 96.3028 1249.64 71.12H1246.64ZM1202.38 114.1C1178.07 114.1 1158.44 94.5874 1158.44 71.12H1155.44C1155.44 96.2926 1176.46 117.1 1202.38 117.1V114.1ZM1296.25 25.52H1297.75V24.02H1296.25V25.52ZM1321.53 25.52V24.02H1320.03V25.52H1321.53ZM1297.75 110.96V25.52H1294.75V110.96H1297.75ZM1296.25 24.02H1273.37V27.02H1296.25V24.02ZM1273.37 24.02C1272.49 24.02 1271.83 23.3035 1271.83 22.48H1268.83C1268.83 24.8565 1270.73 27.02 1273.37 27.02V24.02ZM1271.83 22.48V5.03999H1268.83V22.48H1271.83ZM1271.83 5.03999C1271.83 4.21654 1272.49 3.49999 1273.37 3.49999V0.499992C1270.73 0.499992 1268.83 2.66345 1268.83 5.03999H1271.83ZM1273.37 3.49999H1344.41V0.499992H1273.37V3.49999ZM1344.41 3.49999C1345.29 3.49999 1345.95 4.21653 1345.95 5.03999H1348.95C1348.95 2.66345 1347.05 0.499992 1344.41 0.499992V3.49999ZM1345.95 5.03999V22.48H1348.95V5.03999H1345.95ZM1345.95 22.48C1345.95 23.3035 1345.29 24.02 1344.41 24.02V27.02C1347.05 27.02 1348.95 24.8565 1348.95 22.48H1345.95ZM1344.41 24.02H1321.53V27.02H1344.41V24.02ZM1320.03 25.52V110.96H1323.03V25.52H1320.03ZM1320.03 110.96C1320.03 111.732 1319.27 112.5 1318.49 112.5V115.5C1320.92 115.5 1323.03 113.388 1323.03 110.96H1320.03ZM1318.49 112.5H1299.29V115.5H1318.49V112.5ZM1299.29 112.5C1298.52 112.5 1297.75 111.732 1297.75 110.96H1294.75C1294.75 113.388 1296.87 115.5 1299.29 115.5V112.5ZM1371.32 71.12V5.03999H1368.32V71.12H1371.32ZM1371.32 5.03999C1371.32 4.26842 1372.08 3.49999 1372.86 3.49999V0.499992C1370.43 0.499992 1368.32 2.61157 1368.32 5.03999H1371.32ZM1372.86 3.49999H1392.54V0.499992H1372.86V3.49999ZM1392.54 3.49999C1393.42 3.49999 1394.08 4.21654 1394.08 5.03999H1397.08C1397.08 2.66345 1395.18 0.499992 1392.54 0.499992V3.49999ZM1394.08 5.03999V69.84H1397.08V5.03999H1394.08ZM1394.08 69.84C1394.08 81.8124 1403.01 91.5 1415.26 91.5V88.5C1404.78 88.5 1397.08 80.2676 1397.08 69.84H1394.08ZM1415.26 91.5C1427.64 91.5 1436.76 81.8368 1436.76 69.84H1433.76C1433.76 80.2432 1425.92 88.5 1415.26 88.5V91.5ZM1436.76 69.84V5.03999H1433.76V69.84H1436.76ZM1436.76 5.03999C1436.76 4.21654 1437.42 3.49999 1438.3 3.49999V0.499992C1435.66 0.499992 1433.76 2.66345 1433.76 5.03999H1436.76ZM1438.3 3.49999H1457.98V0.499992H1438.3V3.49999ZM1457.98 3.49999C1458.75 3.49999 1459.52 4.26842 1459.52 5.03999H1462.52C1462.52 2.61157 1460.4 0.499992 1457.98 0.499992V3.49999ZM1459.52 5.03999V71.12H1462.52V5.03999H1459.52ZM1459.52 71.12C1459.52 94.5772 1439.74 114.1 1415.26 114.1V117.1C1441.33 117.1 1462.52 96.3028 1462.52 71.12H1459.52ZM1415.26 114.1C1390.94 114.1 1371.32 94.5874 1371.32 71.12H1368.32C1368.32 96.2926 1389.33 117.1 1415.26 117.1V114.1ZM1556.81 68.72L1556.25 67.3284L1554.69 67.9548L1555.49 69.4321L1556.81 68.72ZM1578.73 109.36L1580.05 108.649L1580.05 108.648L1578.73 109.36ZM1552.17 112.56L1553.51 111.889L1553.51 111.887L1552.17 112.56ZM1530.89 70.16L1532.23 69.4872L1531.81 68.66H1530.89V70.16ZM1519.85 70.16V68.66H1518.35V70.16H1519.85ZM1519.85 49.84H1518.35V51.34H1519.85V49.84ZM1519.85 24.88V23.38H1518.35V24.88H1519.85ZM1496.23 110.96V5.03999H1493.23V110.96H1496.23ZM1496.23 5.03999C1496.23 4.21654 1496.89 3.49999 1497.77 3.49999V0.499992C1495.13 0.499992 1493.23 2.66345 1493.23 5.03999H1496.23ZM1497.77 3.49999H1545.61V0.499992H1497.77V3.49999ZM1545.61 3.49999C1563.99 3.49999 1578.99 18.3619 1578.99 36.56H1581.99C1581.99 16.6781 1565.62 0.499992 1545.61 0.499992V3.49999ZM1578.99 36.56C1578.99 50.5389 1569.73 61.9047 1556.25 67.3284L1557.37 70.1116C1571.73 64.3353 1581.99 52.0211 1581.99 36.56H1578.99ZM1555.49 69.4321L1577.41 110.072L1580.05 108.648L1558.13 68.0079L1555.49 69.4321ZM1577.41 110.071C1577.75 110.703 1577.71 111.33 1577.49 111.754C1577.28 112.135 1576.85 112.5 1576.01 112.5V115.5C1577.89 115.5 1579.38 114.585 1580.13 113.166C1580.87 111.79 1580.83 110.097 1580.05 108.649L1577.41 110.071ZM1576.01 112.5H1554.73V115.5H1576.01V112.5ZM1554.73 112.5C1554.41 112.5 1554.12 112.4 1553.89 112.255C1553.65 112.097 1553.53 111.93 1553.51 111.889L1550.83 113.231C1551.39 114.351 1552.85 115.5 1554.73 115.5V112.5ZM1553.51 111.887L1532.23 69.4872L1529.55 70.8328L1550.83 113.233L1553.51 111.887ZM1530.89 68.66H1519.85V71.66H1530.89V68.66ZM1518.35 70.16V110.96H1521.35V70.16H1518.35ZM1518.35 110.96C1518.35 111.732 1517.58 112.5 1516.81 112.5V115.5C1519.24 115.5 1521.35 113.388 1521.35 110.96H1518.35ZM1516.81 112.5H1497.77V115.5H1516.81V112.5ZM1497.77 112.5C1496.89 112.5 1496.23 111.783 1496.23 110.96H1493.23C1493.23 113.337 1495.13 115.5 1497.77 115.5V112.5ZM1519.85 51.34H1543.53V48.34H1519.85V51.34ZM1543.53 51.34C1551 51.34 1557.19 44.5007 1557.19 37.04H1554.19C1554.19 43.0193 1549.18 48.34 1543.53 48.34V51.34ZM1557.19 37.04C1557.19 29.4788 1550.9 23.38 1543.53 23.38V26.38C1549.27 26.38 1554.19 31.1612 1554.19 37.04H1557.19ZM1543.53 23.38H1519.85V26.38H1543.53V23.38ZM1518.35 24.88V49.84H1521.35V24.88H1518.35ZM1634.88 25.52V24.02H1633.38V25.52H1634.88ZM1634.88 45.36H1633.38V46.86H1634.88V45.36ZM1634.88 68.88V67.38H1633.38V68.88H1634.88ZM1634.88 90.48H1633.38V91.98H1634.88V90.48ZM1611.42 110.96V5.03999H1608.42V110.96H1611.42ZM1611.42 5.03999C1611.42 4.21654 1612.08 3.49999 1612.96 3.49999V0.499992C1610.32 0.499992 1608.42 2.66345 1608.42 5.03999H1611.42ZM1612.96 3.49999H1679.2V0.499992H1612.96V3.49999ZM1679.2 3.49999C1680.08 3.49999 1680.74 4.21654 1680.74 5.03999H1683.74C1683.74 2.66345 1681.84 0.499992 1679.2 0.499992V3.49999ZM1680.74 5.03999V22.48H1683.74V5.03999H1680.74ZM1680.74 22.48C1680.74 23.3035 1680.08 24.02 1679.2 24.02V27.02C1681.84 27.02 1683.74 24.8565 1683.74 22.48H1680.74ZM1679.2 24.02H1634.88V27.02H1679.2V24.02ZM1633.38 25.52V45.36H1636.38V25.52H1633.38ZM1634.88 46.86H1671.36V43.86H1634.88V46.86ZM1671.36 46.86C1672.13 46.86 1672.9 47.6284 1672.9 48.4H1675.9C1675.9 45.9716 1673.78 43.86 1671.36 43.86V46.86ZM1672.9 48.4V65.84H1675.9V48.4H1672.9ZM1672.9 65.84C1672.9 66.7206 1672.18 67.38 1671.36 67.38V70.38C1673.73 70.38 1675.9 68.4794 1675.9 65.84H1672.9ZM1671.36 67.38H1634.88V70.38H1671.36V67.38ZM1633.38 68.88V90.48H1636.38V68.88H1633.38ZM1634.88 91.98H1679.2V88.98H1634.88V91.98ZM1679.2 91.98C1680.08 91.98 1680.74 92.6965 1680.74 93.52H1683.74C1683.74 91.1435 1681.84 88.98 1679.2 88.98V91.98ZM1680.74 93.52V110.96H1683.74V93.52H1680.74ZM1680.74 110.96C1680.74 111.783 1680.08 112.5 1679.2 112.5V115.5C1681.84 115.5 1683.74 113.337 1683.74 110.96H1680.74ZM1679.2 112.5H1612.96V115.5H1679.2V112.5ZM1612.96 112.5C1612.08 112.5 1611.42 111.783 1611.42 110.96H1608.42C1608.42 113.337 1610.32 115.5 1612.96 115.5V112.5ZM1756.48 110.96V5.03999H1753.48V110.96H1756.48ZM1756.48 5.03999C1756.48 4.26842 1757.25 3.49999 1758.02 3.49999V0.499992C1755.59 0.499992 1753.48 2.61156 1753.48 5.03999H1756.48ZM1758.02 3.49999H1777.22V0.499992H1758.02V3.49999ZM1777.22 3.49999C1777.99 3.49999 1778.76 4.26842 1778.76 5.03999H1781.76C1781.76 2.61156 1779.65 0.499992 1777.22 0.499992V3.49999ZM1778.76 5.03999V110.96H1781.76V5.03999H1778.76ZM1778.76 110.96C1778.76 111.732 1777.99 112.5 1777.22 112.5V115.5C1779.65 115.5 1781.76 113.388 1781.76 110.96H1778.76ZM1777.22 112.5H1758.02V115.5H1777.22V112.5ZM1758.02 112.5C1757.25 112.5 1756.48 111.732 1756.48 110.96H1753.48C1753.48 113.388 1755.59 115.5 1758.02 115.5V112.5ZM1815.79 110.96H1817.29V110.958L1815.79 110.96ZM1815.63 3.27999H1814.13V3.28222L1815.63 3.27999ZM1822.67 0.399994L1823.71 -0.680786L1823.28 -1.10001H1822.67V0.399994ZM1886.51 61.84L1885.47 62.9208L1885.91 63.34H1886.51V61.84ZM1886.67 61.84V63.34H1888.17V61.84H1886.67ZM1904.27 114.8L1903.21 115.858L1903.21 115.861L1904.27 114.8ZM1841.07 51.28L1842.13 50.222L1841.69 49.78H1841.07V51.28ZM1840.91 51.28V49.78H1839.41V51.28H1840.91ZM1817.29 110.958L1817.13 3.27777L1814.13 3.28222L1814.29 110.962L1817.29 110.958ZM1817.13 3.27999C1817.13 2.61117 1817.79 1.89999 1818.67 1.89999V-1.10001C1816.35 -1.10001 1814.13 0.748823 1814.13 3.27999H1817.13ZM1818.67 1.89999H1822.67V-1.10001H1818.67V1.89999ZM1821.63 1.48077L1885.47 62.9208L1887.55 60.7592L1823.71 -0.680786L1821.63 1.48077ZM1886.51 63.34H1886.67V60.34H1886.51V63.34ZM1888.17 61.84V5.03999H1885.17V61.84H1888.17ZM1888.17 5.03999C1888.17 4.21653 1888.83 3.49999 1889.71 3.49999V0.499992C1887.07 0.499992 1885.17 2.66345 1885.17 5.03999H1888.17ZM1889.71 3.49999H1908.91V0.499992H1889.71V3.49999ZM1908.91 3.49999C1909.68 3.49999 1910.45 4.26842 1910.45 5.03999H1913.45C1913.45 2.61157 1911.34 0.499992 1908.91 0.499992V3.49999ZM1910.45 5.03999V112.72H1913.45V5.03999H1910.45ZM1910.45 112.72C1910.45 113.389 1909.79 114.1 1908.91 114.1V117.1C1911.23 117.1 1913.45 115.251 1913.45 112.72H1910.45ZM1908.91 114.1H1906.35V117.1H1908.91V114.1ZM1906.35 114.1C1906.4 114.1 1906.42 114.106 1906.39 114.1C1906.36 114.095 1906.31 114.085 1906.25 114.068C1906.11 114.034 1905.95 113.982 1905.79 113.918C1905.62 113.854 1905.47 113.787 1905.36 113.73C1905.3 113.702 1905.27 113.682 1905.26 113.673C1905.24 113.659 1905.27 113.68 1905.33 113.739L1903.21 115.861C1903.46 116.11 1903.77 116.286 1903.97 116.39C1904.21 116.513 1904.47 116.626 1904.72 116.722C1904.97 116.818 1905.24 116.906 1905.49 116.972C1905.72 117.03 1906.04 117.1 1906.35 117.1V114.1ZM1905.33 113.742L1842.13 50.222L1840.01 52.338L1903.21 115.858L1905.33 113.742ZM1841.07 49.78H1840.91V52.78H1841.07V49.78ZM1839.41 51.28V110.96H1842.41V51.28H1839.41ZM1839.41 110.96C1839.41 111.783 1838.75 112.5 1837.87 112.5V115.5C1840.51 115.5 1842.41 113.337 1842.41 110.96H1839.41ZM1837.87 112.5H1818.83V115.5H1837.87V112.5ZM1818.83 112.5C1818.06 112.5 1817.29 111.732 1817.29 110.96H1814.29C1814.29 113.388 1816.4 115.5 1818.83 115.5V112.5ZM1985.25 103.28L1984.19 104.341L1985.25 103.28ZM1984.45 98.8L1985.76 99.5442L1985.76 99.5391L1984.45 98.8ZM1991.97 85.52L1990.7 84.7339L1990.68 84.7571L1990.67 84.7809L1991.97 85.52ZM1997.41 84.56L1996.54 85.7806L1996.64 85.849L1996.74 85.9016L1997.41 84.56ZM2014.69 67.6L2015.25 66.2059L2015.25 66.2051L2014.69 67.6ZM2054.85 12.4L2053.97 13.6096L2054.03 13.6561L2054.1 13.6957L2054.85 12.4ZM2055.81 17.52L2057.06 18.3483L2057.09 18.3071L2057.12 18.2642L2055.81 17.52ZM2047.65 29.84L2046.4 29.0117L2046.4 29.0231L2046.39 29.0347L2047.65 29.84ZM2042.21 31.92L2043.13 30.736L2043.04 30.6649L2042.94 30.6088L2042.21 31.92ZM2026.69 46L2026.13 47.3903L2026.14 47.3939L2026.69 46ZM1986.31 102.219C1985.91 101.814 1985.64 101.534 1985.46 101.297C1985.28 101.069 1985.24 100.959 1985.23 100.916C1985.22 100.88 1985.15 100.613 1985.76 99.5442L1983.15 98.0558C1982.48 99.2265 1982.01 100.4 1982.32 101.644C1982.47 102.241 1982.77 102.731 1983.09 103.143C1983.41 103.546 1983.8 103.946 1984.19 104.341L1986.31 102.219ZM1985.76 99.5391L1993.28 86.2591L1990.67 84.7809L1983.15 98.0609L1985.76 99.5391ZM1993.25 86.3061C1993.56 85.7989 1994.12 85.512 1994.87 85.4557C1995.66 85.3956 1996.33 85.6304 1996.54 85.7806L1998.29 83.3394C1997.38 82.6896 1995.96 82.3644 1994.64 82.4642C1993.27 82.568 1991.66 83.1611 1990.7 84.7339L1993.25 86.3061ZM1996.74 85.9016C1996.69 85.8741 1996.69 85.8685 1996.84 85.9677C1996.96 86.0441 1997.11 86.1465 1997.31 86.2811C1997.71 86.5461 1998.27 86.9108 1998.95 87.3396C2000.31 88.1966 2002.18 89.312 2004.38 90.4191C2008.73 92.6135 2014.5 94.86 2020.13 94.86V91.86C2015.21 91.86 2009.94 89.8665 2005.73 87.7409C2003.64 86.688 2001.86 85.6234 2000.55 84.8004C1999.89 84.3892 1999.36 84.0389 1998.97 83.7789C1998.77 83.651 1998.61 83.5384 1998.48 83.4554C1998.39 83.3952 1998.22 83.2859 1998.08 83.2184L1996.74 85.9016ZM2020.13 94.86C2027.15 94.86 2032.67 90.3817 2032.67 83.76H2029.67C2029.67 88.3383 2025.91 91.86 2020.13 91.86V94.86ZM2032.67 83.76C2032.67 76.0037 2026.17 70.5408 2015.25 66.2059L2014.14 68.9941C2024.98 73.2991 2029.67 78.0763 2029.67 83.76H2032.67ZM2015.25 66.2051C2008.46 63.5214 2000.89 59.5687 1995.05 53.9945C1989.23 48.4442 1985.15 41.3345 1985.15 32.24H1982.15C1982.15 42.3455 1986.72 50.1958 1992.98 56.1655C1999.21 62.1113 2007.17 66.2386 2014.14 68.9949L2015.25 66.2051ZM1985.15 32.24C1985.15 24.7073 1988.08 17.1413 1993.94 11.4563C1999.78 5.78255 2008.63 1.89999 2020.61 1.89999V-1.10001C2007.96 -1.10001 1998.32 3.01744 1991.85 9.30373C1985.39 15.5787 1982.15 23.9327 1982.15 32.24H1985.15ZM2020.61 1.89999C2036.77 1.89999 2049.24 10.1443 2053.97 13.6096L2055.74 11.1904C2050.87 7.61572 2037.74 -1.10001 2020.61 -1.10001V1.89999ZM2054.1 13.6957C2054.48 13.9203 2054.74 14.3645 2054.8 15.0796C2054.86 15.8221 2054.66 16.5131 2054.51 16.7758L2057.12 18.2642C2057.61 17.4069 2057.89 16.0979 2057.79 14.8404C2057.69 13.5555 2057.14 11.9997 2055.61 11.1043L2054.1 13.6957ZM2054.56 16.6917L2046.4 29.0117L2048.9 30.6683L2057.06 18.3483L2054.56 16.6917ZM2046.39 29.0347C2046.01 29.6227 2045.27 30.2396 2044.47 30.5785C2043.59 30.9486 2043.2 30.7867 2043.13 30.736L2041.29 33.104C2042.67 34.1732 2044.43 33.8514 2045.64 33.3414C2046.92 32.8003 2048.17 31.8173 2048.92 30.6453L2046.39 29.0347ZM2042.94 30.6088C2042.83 30.5461 2042.56 30.3667 2042.05 30.0294C2041.57 29.7134 2040.95 29.2982 2040.22 28.8229C2038.75 27.8718 2036.81 26.6727 2034.6 25.496C2030.23 23.1701 2024.6 20.82 2019.33 20.82V23.82C2023.83 23.82 2028.92 25.8699 2033.19 28.144C2035.3 29.2673 2037.16 30.4182 2038.59 31.3421C2039.3 31.8043 2039.91 32.2078 2040.39 32.5263C2040.83 32.8233 2041.24 33.0939 2041.49 33.2312L2042.94 30.6088ZM2019.33 20.82C2013.01 20.82 2007.75 25.0871 2007.75 30.48H2010.75C2010.75 27.2329 2014.13 23.82 2019.33 23.82V20.82ZM2007.75 30.48C2007.75 33.9353 2009.19 36.9212 2012.23 39.6553C2015.21 42.3331 2019.76 44.8116 2026.13 47.3903L2027.26 44.6097C2020.98 42.0684 2016.82 39.7469 2014.24 37.4247C2011.72 35.1588 2010.75 32.9447 2010.75 30.48H2007.75ZM2026.14 47.3939C2032.34 49.859 2040.22 53.4617 2046.54 59.0624C2052.82 64.629 2057.51 72.1259 2057.51 82.48H2060.51C2060.51 71.0741 2055.29 62.811 2048.53 56.8176C2041.81 50.8583 2033.53 47.101 2027.25 44.6061L2026.14 47.3939ZM2057.51 82.48C2057.51 98.07 2044.01 114.1 2021.25 114.1V117.1C2045.54 117.1 2060.51 99.85 2060.51 82.48H2057.51ZM2021.25 114.1C2000.9 114.1 1989.75 105.654 1986.31 102.219L1984.19 104.341C1988.12 108.266 2000.01 117.1 2021.25 117.1V114.1ZM2100.91 25.52H2102.41V24.02H2100.91V25.52ZM2126.19 25.52V24.02H2124.69V25.52H2126.19ZM2102.41 110.96V25.52H2099.41V110.96H2102.41ZM2100.91 24.02H2078.03V27.02H2100.91V24.02ZM2078.03 24.02C2077.15 24.02 2076.49 23.3035 2076.49 22.48H2073.49C2073.49 24.8565 2075.39 27.02 2078.03 27.02V24.02ZM2076.49 22.48V5.03999H2073.49V22.48H2076.49ZM2076.49 5.03999C2076.49 4.21654 2077.15 3.49999 2078.03 3.49999V0.499992C2075.39 0.499992 2073.49 2.66345 2073.49 5.03999H2076.49ZM2078.03 3.49999H2149.07V0.499992H2078.03V3.49999ZM2149.07 3.49999C2149.95 3.49999 2150.61 4.21653 2150.61 5.03999H2153.61C2153.61 2.66345 2151.71 0.499992 2149.07 0.499992V3.49999ZM2150.61 5.03999V22.48H2153.61V5.03999H2150.61ZM2150.61 22.48C2150.61 23.3035 2149.95 24.02 2149.07 24.02V27.02C2151.71 27.02 2153.61 24.8565 2153.61 22.48H2150.61ZM2149.07 24.02H2126.19V27.02H2149.07V24.02ZM2124.69 25.52V110.96H2127.69V25.52H2124.69ZM2124.69 110.96C2124.69 111.732 2123.92 112.5 2123.15 112.5V115.5C2125.58 115.5 2127.69 113.388 2127.69 110.96H2124.69ZM2123.15 112.5H2103.95V115.5H2123.15V112.5ZM2103.95 112.5C2103.18 112.5 2102.41 111.732 2102.41 110.96H2099.41C2099.41 113.388 2101.52 115.5 2103.95 115.5V112.5ZM2202.18 60.08H2203.68V59.6287L2203.43 59.2523L2202.18 60.08ZM2166.82 6.64L2165.54 7.42615L2165.56 7.44715L2165.57 7.46772L2166.82 6.64ZM2192.74 3.43999L2193.98 2.59818L2193.96 2.5686L2193.94 2.54L2192.74 3.43999ZM2214.98 36.24L2213.74 37.0818L2214.98 38.9128L2216.22 37.0818L2214.98 36.24ZM2237.22 3.43999L2236.02 2.54L2236 2.5686L2235.98 2.59818L2237.22 3.43999ZM2263.14 6.64L2264.39 7.47722L2264.4 7.45201L2264.42 7.42615L2263.14 6.64ZM2227.3 59.92L2226.06 59.0828L2225.8 59.4624V59.92H2227.3ZM2203.68 110.96V60.08H2200.68V110.96H2203.68ZM2203.43 59.2523L2168.07 5.81227L2165.57 7.46772L2200.93 60.9077L2203.43 59.2523ZM2168.1 5.85385C2167.73 5.25449 2167.76 4.66213 2167.98 4.24588C2168.2 3.84617 2168.64 3.49999 2169.38 3.49999V0.499992C2167.56 0.499992 2166.08 1.43382 2165.34 2.83411C2164.6 4.21786 2164.63 5.94551 2165.54 7.42615L2168.1 5.85385ZM2169.38 3.49999H2190.18V0.499992H2169.38V3.49999ZM2190.18 3.49999C2190.75 3.49999 2191.16 3.82819 2191.54 4.33999L2193.94 2.54C2193.36 1.77179 2192.18 0.499992 2190.18 0.499992V3.49999ZM2191.5 4.2818L2213.74 37.0818L2216.22 35.3982L2193.98 2.59818L2191.5 4.2818ZM2216.22 37.0818L2238.46 4.2818L2235.98 2.59818L2213.74 35.3982L2216.22 37.0818ZM2238.42 4.33999C2238.66 4.02254 2238.82 3.83851 2239 3.70884C2239.15 3.60577 2239.37 3.49999 2239.78 3.49999V0.499992C2238.75 0.499992 2237.93 0.79421 2237.28 1.25114C2236.67 1.68147 2236.26 2.21744 2236.02 2.54L2238.42 4.33999ZM2239.78 3.49999H2260.58V0.499992H2239.78V3.49999ZM2260.58 3.49999C2261.32 3.49999 2261.76 3.84617 2261.98 4.24588C2262.2 4.66213 2262.23 5.25449 2261.86 5.85385L2264.42 7.42615C2265.33 5.94551 2265.36 4.21786 2264.62 2.83411C2263.88 1.43382 2262.4 0.499992 2260.58 0.499992V3.49999ZM2261.9 5.80278L2226.06 59.0828L2228.55 60.7572L2264.39 7.47722L2261.9 5.80278ZM2225.8 59.92V110.96H2228.8V59.92H2225.8ZM2225.8 110.96C2225.8 111.732 2225.03 112.5 2224.26 112.5V115.5C2226.69 115.5 2228.8 113.388 2228.8 110.96H2225.8ZM2224.26 112.5H2205.22V115.5H2224.26V112.5ZM2205.22 112.5C2204.34 112.5 2203.68 111.783 2203.68 110.96H2200.68C2200.68 113.337 2202.58 115.5 2205.22 115.5V112.5ZM2309.04 90.48H2307.54V91.98H2309.04V90.48ZM2285.42 110.96V5.03999H2282.42V110.96H2285.42ZM2285.42 5.03999C2285.42 4.21654 2286.08 3.49999 2286.96 3.49999V0.499992C2284.32 0.499992 2282.42 2.66345 2282.42 5.03999H2285.42ZM2286.96 3.49999H2306V0.499992H2286.96V3.49999ZM2306 3.49999C2306.77 3.49999 2307.54 4.26842 2307.54 5.03999H2310.54C2310.54 2.61156 2308.42 0.499992 2306 0.499992V3.49999ZM2307.54 5.03999V90.48H2310.54V5.03999H2307.54ZM2309.04 91.98H2347.12V88.98H2309.04V91.98ZM2347.12 91.98C2348 91.98 2348.66 92.6965 2348.66 93.52H2351.66C2351.66 91.1435 2349.76 88.98 2347.12 88.98V91.98ZM2348.66 93.52V110.96H2351.66V93.52H2348.66ZM2348.66 110.96C2348.66 111.783 2348 112.5 2347.12 112.5V115.5C2349.76 115.5 2351.66 113.337 2351.66 110.96H2348.66ZM2347.12 112.5H2286.96V115.5H2347.12V112.5ZM2286.96 112.5C2286.08 112.5 2285.42 111.783 2285.42 110.96H2282.42C2282.42 113.337 2284.32 115.5 2286.96 115.5V112.5ZM2398.59 25.52V24.02H2397.09V25.52H2398.59ZM2398.59 45.36H2397.09V46.86H2398.59V45.36ZM2398.59 68.88V67.38H2397.09V68.88H2398.59ZM2398.59 90.48H2397.09V91.98H2398.59V90.48ZM2375.14 110.96V5.03999H2372.14V110.96H2375.14ZM2375.14 5.03999C2375.14 4.21654 2375.79 3.49999 2376.68 3.49999V0.499992C2374.04 0.499992 2372.14 2.66345 2372.14 5.03999H2375.14ZM2376.68 3.49999H2442.92V0.499992H2376.68V3.49999ZM2442.92 3.49999C2443.8 3.49999 2444.46 4.21654 2444.46 5.03999H2447.46C2447.46 2.66345 2445.55 0.499992 2442.92 0.499992V3.49999ZM2444.46 5.03999V22.48H2447.46V5.03999H2444.46ZM2444.46 22.48C2444.46 23.3035 2443.8 24.02 2442.92 24.02V27.02C2445.55 27.02 2447.46 24.8565 2447.46 22.48H2444.46ZM2442.92 24.02H2398.59V27.02H2442.92V24.02ZM2397.09 25.52V45.36H2400.09V25.52H2397.09ZM2398.59 46.86H2435.07V43.86H2398.59V46.86ZM2435.07 46.86C2435.85 46.86 2436.61 47.6284 2436.61 48.4H2439.61C2439.61 45.9716 2437.5 43.86 2435.07 43.86V46.86ZM2436.61 48.4V65.84H2439.61V48.4H2436.61ZM2436.61 65.84C2436.61 66.7206 2435.9 67.38 2435.07 67.38V70.38C2437.45 70.38 2439.61 68.4794 2439.61 65.84H2436.61ZM2435.07 67.38H2398.59V70.38H2435.07V67.38ZM2397.09 68.88V90.48H2400.09V68.88H2397.09ZM2398.59 91.98H2442.92V88.98H2398.59V91.98ZM2442.92 91.98C2443.8 91.98 2444.46 92.6965 2444.46 93.52H2447.46C2447.46 91.1435 2445.55 88.98 2442.92 88.98V91.98ZM2444.46 93.52V110.96H2447.46V93.52H2444.46ZM2444.46 110.96C2444.46 111.783 2443.8 112.5 2442.92 112.5V115.5C2445.55 115.5 2447.46 113.337 2447.46 110.96H2444.46ZM2442.92 112.5H2376.68V115.5H2442.92V112.5ZM2376.68 112.5C2375.79 112.5 2375.14 111.783 2375.14 110.96H2372.14C2372.14 113.337 2374.04 115.5 2376.68 115.5V112.5Z" fill="url(#paint1_linear_904_28920)"/>
<path d="M1.66 71.12V5.03999H-1.34V71.12H1.66ZM1.66 5.03999C1.66 4.26842 2.42843 3.49999 3.2 3.49999V0.499992C0.771573 0.499992 -1.34 2.61157 -1.34 5.03999H1.66ZM3.2 3.49999H22.88V0.499992H3.2V3.49999ZM22.88 3.49999C23.7606 3.49999 24.42 4.21654 24.42 5.03999H27.42C27.42 2.66345 25.5194 0.499992 22.88 0.499992V3.49999ZM24.42 5.03999V69.84H27.42V5.03999H24.42ZM24.42 69.84C24.42 81.8124 33.3567 91.5 45.6 91.5V88.5C35.1233 88.5 27.42 80.2676 27.42 69.84H24.42ZM45.6 91.5C57.9797 91.5 67.1 81.8368 67.1 69.84H64.1C64.1 80.2432 56.2603 88.5 45.6 88.5V91.5ZM67.1 69.84V5.03999H64.1V69.84H67.1ZM67.1 5.03999C67.1 4.21654 67.7594 3.49999 68.64 3.49999V0.499992C66.0006 0.499992 64.1 2.66345 64.1 5.03999H67.1ZM68.64 3.49999H88.32V0.499992H68.64V3.49999ZM88.32 3.49999C89.0916 3.49999 89.86 4.26842 89.86 5.03999H92.86C92.86 2.61157 90.7484 0.499992 88.32 0.499992V3.49999ZM89.86 5.03999V71.12H92.86V5.03999H89.86ZM89.86 71.12C89.86 94.5772 70.0864 114.1 45.6 114.1V117.1C71.6736 117.1 92.86 96.3028 92.86 71.12H89.86ZM45.6 114.1C21.284 114.1 1.66 94.5874 1.66 71.12H-1.34C-1.34 96.2926 19.676 117.1 45.6 117.1V114.1ZM150.033 73.36V71.86H148.533V73.36H150.033ZM150.033 50H148.533V51.5H150.033V50ZM150.033 25.52V24.02H148.533V25.52H150.033ZM126.572 110.96V5.03999H123.572V110.96H126.572ZM126.572 5.03999C126.572 4.21654 127.232 3.49999 128.113 3.49999V0.499992C125.473 0.499992 123.572 2.66345 123.572 5.03999H126.572ZM128.113 3.49999H166.673V0.499992H128.113V3.49999ZM166.673 3.49999C185.542 3.49999 201.013 18.8459 201.013 37.36H204.013C204.013 17.1541 187.163 0.499992 166.673 0.499992V3.49999ZM201.013 37.36C201.013 56.3803 185.515 71.86 166.833 71.86V74.86C187.19 74.86 204.013 58.0197 204.013 37.36H201.013ZM166.833 71.86H150.033V74.86H166.833V71.86ZM148.533 73.36V110.96H151.533V73.36H148.533ZM148.533 110.96C148.533 111.732 147.764 112.5 146.993 112.5V115.5C149.421 115.5 151.533 113.388 151.533 110.96H148.533ZM146.993 112.5H128.113V115.5H146.993V112.5ZM128.113 112.5C127.232 112.5 126.572 111.783 126.572 110.96H123.572C123.572 113.337 125.473 115.5 128.113 115.5V112.5ZM150.033 51.5H165.232V48.5H150.033V51.5ZM165.232 51.5C172.916 51.5 179.372 45.4131 179.372 37.36H176.372C176.372 43.7069 171.309 48.5 165.232 48.5V51.5ZM179.372 37.36C179.372 29.6988 172.824 24.02 165.232 24.02V27.02C171.402 27.02 176.372 31.5812 176.372 37.36H179.372ZM165.232 24.02H150.033V27.02H165.232V24.02ZM148.533 25.52V50H151.533V25.52H148.533ZM251.783 90.32H250.283V91.82H251.783V90.32ZM251.783 25.52V24.02H250.283V25.52H251.783ZM228.322 110.96V5.03999H225.322V110.96H228.322ZM228.322 5.03999C228.322 4.1618 229.034 3.49999 229.702 3.49999V0.499992C227.171 0.499992 225.322 2.71819 225.322 5.03999H228.322ZM229.702 3.49999H268.742V0.499992H229.702V3.49999ZM268.742 3.49999C298.802 3.49999 323.402 27.9568 323.402 57.84H326.402C326.402 26.2832 300.443 0.499992 268.742 0.499992V3.49999ZM323.402 57.84C323.402 88.0488 298.797 112.5 268.742 112.5V115.5C300.448 115.5 326.402 89.7112 326.402 57.84H323.402ZM268.742 112.5H229.702V115.5H268.742V112.5ZM229.702 112.5C229.034 112.5 228.322 111.838 228.322 110.96H225.322C225.322 113.282 227.171 115.5 229.702 115.5V112.5ZM251.783 91.82H267.143V88.82H251.783V91.82ZM267.143 91.82C286.124 91.82 299.842 76.8329 299.842 57.84H296.842C296.842 75.3271 284.321 88.82 267.143 88.82V91.82ZM299.842 57.84C299.842 39.0021 286.12 24.02 267.143 24.02V27.02C284.325 27.02 296.842 40.5179 296.842 57.84H299.842ZM267.143 24.02H251.783V27.02H267.143V24.02ZM250.283 25.52V90.32H253.283V25.52H250.283ZM336.985 109.84L335.625 109.207L335.623 109.211L336.985 109.84ZM387.065 2.15999L385.723 1.48917L385.714 1.50817L385.705 1.52743L387.065 2.15999ZM394.105 2.15999L395.465 1.52743L395.456 1.50817L395.447 1.48917L394.105 2.15999ZM444.185 109.84L445.547 109.211L445.545 109.207L444.185 109.84ZM418.105 110L416.74 110.622L416.745 110.632L416.749 110.642L418.105 110ZM412.345 97.36L413.71 96.738L413.31 95.86H412.345V97.36ZM368.825 97.36V95.86H367.855L367.457 96.7445L368.825 97.36ZM363.065 110.16L361.697 109.544L361.688 109.564L361.68 109.583L363.065 110.16ZM378.425 75.6L377.059 74.9793L376.095 77.1H378.425V75.6ZM402.745 75.6V77.1H405.087L404.107 74.9725L402.745 75.6ZM390.585 49.2L391.947 48.5725L391.546 47.7H390.585V49.2ZM390.425 49.2V47.7H389.459L389.059 48.5793L390.425 49.2ZM339.705 112.5C338.957 112.5 338.541 112.192 338.348 111.891C338.151 111.584 338.059 111.092 338.347 110.469L335.623 109.211C334.951 110.668 335.019 112.256 335.822 113.51C336.629 114.768 338.053 115.5 339.705 115.5V112.5ZM338.345 110.473L388.425 2.79255L385.705 1.52743L335.625 109.207L338.345 110.473ZM388.407 2.83081C388.67 2.30459 389.312 1.89999 389.785 1.89999V-1.10001C388.018 -1.10001 386.42 0.0953979 385.723 1.48917L388.407 2.83081ZM389.785 1.89999H391.385V-1.10001H389.785V1.89999ZM391.385 1.89999C391.858 1.89999 392.5 2.30459 392.763 2.83081L395.447 1.48917C394.75 0.0953979 393.152 -1.10001 391.385 -1.10001V1.89999ZM392.745 2.79255L442.825 110.473L445.545 109.207L395.465 1.52743L392.745 2.79255ZM442.823 110.469C443.111 111.092 443.019 111.584 442.822 111.891C442.629 112.192 442.213 112.5 441.465 112.5V115.5C443.117 115.5 444.541 114.768 445.348 113.509C446.151 112.256 446.219 110.668 445.547 109.211L442.823 110.469ZM441.465 112.5H423.705V115.5H441.465V112.5ZM423.705 112.5C422.426 112.5 421.745 112.286 421.242 111.923C420.697 111.53 420.15 110.814 419.461 109.358L416.749 110.642C417.5 112.227 418.313 113.51 419.488 114.357C420.705 115.234 422.104 115.5 423.705 115.5V112.5ZM419.47 109.378L413.71 96.738L410.98 97.982L416.74 110.622L419.47 109.378ZM412.345 95.86H368.825V98.86H412.345V95.86ZM367.457 96.7445L361.697 109.544L364.433 110.776L370.193 97.9755L367.457 96.7445ZM361.68 109.583C361.05 111.097 359.75 112.5 357.305 112.5V115.5C361.26 115.5 363.48 113.063 364.45 110.737L361.68 109.583ZM357.305 112.5H339.705V115.5H357.305V112.5ZM378.425 77.1H402.745V74.1H378.425V77.1ZM404.107 74.9725L391.947 48.5725L389.223 49.8275L401.383 76.2275L404.107 74.9725ZM390.585 47.7H390.425V50.7H390.585V47.7ZM389.059 48.5793L377.059 74.9793L379.791 76.2207L391.791 49.8207L389.059 48.5793ZM473.941 25.52H475.441V24.02H473.941V25.52ZM499.221 25.52V24.02H497.721V25.52H499.221ZM475.441 110.96V25.52H472.441V110.96H475.441ZM473.941 24.02H451.061V27.02H473.941V24.02ZM451.061 24.02C450.181 24.02 449.521 23.3035 449.521 22.48H446.521C446.521 24.8565 448.422 27.02 451.061 27.02V24.02ZM449.521 22.48V5.03999H446.521V22.48H449.521ZM449.521 5.03999C449.521 4.21654 450.181 3.49999 451.061 3.49999V0.499992C448.422 0.499992 446.521 2.66345 446.521 5.03999H449.521ZM451.061 3.49999H522.101V0.499992H451.061V3.49999ZM522.101 3.49999C522.982 3.49999 523.641 4.21653 523.641 5.03999H526.641C526.641 2.66345 524.741 0.499992 522.101 0.499992V3.49999ZM523.641 5.03999V22.48H526.641V5.03999H523.641ZM523.641 22.48C523.641 23.3035 522.982 24.02 522.101 24.02V27.02C524.741 27.02 526.641 24.8565 526.641 22.48H523.641ZM522.101 24.02H499.221V27.02H522.101V24.02ZM497.721 25.52V110.96H500.721V25.52H497.721ZM497.721 110.96C497.721 111.732 496.953 112.5 496.181 112.5V115.5C498.61 115.5 500.721 113.388 500.721 110.96H497.721ZM496.181 112.5H476.981V115.5H496.181V112.5ZM476.981 112.5C476.21 112.5 475.441 111.732 475.441 110.96H472.441C472.441 113.388 474.553 115.5 476.981 115.5V112.5ZM574.064 25.52V24.02H572.564V25.52H574.064ZM574.064 45.36H572.564V46.86H574.064V45.36ZM574.064 68.88V67.38H572.564V68.88H574.064ZM574.064 90.48H572.564V91.98H574.064V90.48ZM550.604 110.96V5.03999H547.604V110.96H550.604ZM550.604 5.03999C550.604 4.21654 551.263 3.49999 552.144 3.49999V0.499992C549.504 0.499992 547.604 2.66345 547.604 5.03999H550.604ZM552.144 3.49999H618.384V0.499992H552.144V3.49999ZM618.384 3.49999C619.264 3.49999 619.924 4.21654 619.924 5.03999H622.924C622.924 2.66345 621.023 0.499992 618.384 0.499992V3.49999ZM619.924 5.03999V22.48H622.924V5.03999H619.924ZM619.924 22.48C619.924 23.3035 619.264 24.02 618.384 24.02V27.02C621.023 27.02 622.924 24.8565 622.924 22.48H619.924ZM618.384 24.02H574.064V27.02H618.384V24.02ZM572.564 25.52V45.36H575.564V25.52H572.564ZM574.064 46.86H610.544V43.86H574.064V46.86ZM610.544 46.86C611.315 46.86 612.084 47.6284 612.084 48.4H615.084C615.084 45.9716 612.972 43.86 610.544 43.86V46.86ZM612.084 48.4V65.84H615.084V48.4H612.084ZM612.084 65.84C612.084 66.7206 611.367 67.38 610.544 67.38V70.38C612.92 70.38 615.084 68.4794 615.084 65.84H612.084ZM610.544 67.38H574.064V70.38H610.544V67.38ZM572.564 68.88V90.48H575.564V68.88H572.564ZM574.064 91.98H618.384V88.98H574.064V91.98ZM618.384 91.98C619.264 91.98 619.924 92.6965 619.924 93.52H622.924C622.924 91.1435 621.023 88.98 618.384 88.98V91.98ZM619.924 93.52V110.96H622.924V93.52H619.924ZM619.924 110.96C619.924 111.783 619.264 112.5 618.384 112.5V115.5C621.023 115.5 622.924 113.337 622.924 110.96H619.924ZM618.384 112.5H552.144V115.5H618.384V112.5ZM552.144 112.5C551.263 112.5 550.604 111.783 550.604 110.96H547.604C547.604 113.337 549.504 115.5 552.144 115.5V112.5ZM708.566 25.52H710.066V24.02H708.566V25.52ZM733.846 25.52V24.02H732.346V25.52H733.846ZM710.066 110.96V25.52H707.066V110.96H710.066ZM708.566 24.02H685.686V27.02H708.566V24.02ZM685.686 24.02C684.806 24.02 684.146 23.3035 684.146 22.48H681.146C681.146 24.8565 683.047 27.02 685.686 27.02V24.02ZM684.146 22.48V5.03999H681.146V22.48H684.146ZM684.146 5.03999C684.146 4.21654 684.806 3.49999 685.686 3.49999V0.499992C683.047 0.499992 681.146 2.66345 681.146 5.03999H684.146ZM685.686 3.49999H756.726V0.499992H685.686V3.49999ZM756.726 3.49999C757.607 3.49999 758.266 4.21653 758.266 5.03999H761.266C761.266 2.66345 759.366 0.499992 756.726 0.499992V3.49999ZM758.266 5.03999V22.48H761.266V5.03999H758.266ZM758.266 22.48C758.266 23.3035 757.607 24.02 756.726 24.02V27.02C759.366 27.02 761.266 24.8565 761.266 22.48H758.266ZM756.726 24.02H733.846V27.02H756.726V24.02ZM732.346 25.52V110.96H735.346V25.52H732.346ZM732.346 110.96C732.346 111.732 731.578 112.5 730.806 112.5V115.5C733.235 115.5 735.346 113.388 735.346 110.96H732.346ZM730.806 112.5H711.606V115.5H730.806V112.5ZM711.606 112.5C710.835 112.5 710.066 111.732 710.066 110.96H707.066C707.066 113.388 709.178 115.5 711.606 115.5V112.5ZM808.849 45.36H807.349V46.86H808.849V45.36ZM854.609 45.36V46.86H856.109V45.36H854.609ZM854.609 68.88H856.109V67.38H854.609V68.88ZM808.849 68.88V67.38H807.349V68.88H808.849ZM785.229 110.96V5.03999H782.229V110.96H785.229ZM785.229 5.03999C785.229 4.26842 785.997 3.49999 786.769 3.49999V0.499992C784.34 0.499992 782.229 2.61156 782.229 5.03999H785.229ZM786.769 3.49999H805.809V0.499992H786.769V3.49999ZM805.809 3.49999C806.689 3.49999 807.349 4.21654 807.349 5.03999H810.349C810.349 2.66345 808.448 0.499992 805.809 0.499992V3.49999ZM807.349 5.03999V45.36H810.349V5.03999H807.349ZM808.849 46.86H854.609V43.86H808.849V46.86ZM856.109 45.36V5.03999H853.109V45.36H856.109ZM856.109 5.03999C856.109 4.21653 856.768 3.49999 857.649 3.49999V0.499992C855.009 0.499992 853.109 2.66345 853.109 5.03999H856.109ZM857.649 3.49999H876.689V0.499992H857.649V3.49999ZM876.689 3.49999C877.46 3.49999 878.229 4.26842 878.229 5.03999H881.229C881.229 2.61157 879.117 0.499992 876.689 0.499992V3.49999ZM878.229 5.03999V110.96H881.229V5.03999H878.229ZM878.229 110.96C878.229 111.732 877.46 112.5 876.689 112.5V115.5C879.117 115.5 881.229 113.388 881.229 110.96H878.229ZM876.689 112.5H857.649V115.5H876.689V112.5ZM857.649 112.5C856.768 112.5 856.109 111.783 856.109 110.96H853.109C853.109 113.337 855.009 115.5 857.649 115.5V112.5ZM856.109 110.96V68.88H853.109V110.96H856.109ZM854.609 67.38H808.849V70.38H854.609V67.38ZM807.349 68.88V110.96H810.349V68.88H807.349ZM807.349 110.96C807.349 111.783 806.689 112.5 805.809 112.5V115.5C808.448 115.5 810.349 113.337 810.349 110.96H807.349ZM805.809 112.5H786.769V115.5H805.809V112.5ZM786.769 112.5C785.997 112.5 785.229 111.732 785.229 110.96H782.229C782.229 113.388 784.34 115.5 786.769 115.5V112.5ZM940.283 25.52V24.02H938.783V25.52H940.283ZM940.283 45.36H938.783V46.86H940.283V45.36ZM940.283 68.88V67.38H938.783V68.88H940.283ZM940.283 90.48H938.783V91.98H940.283V90.48ZM916.823 110.96V5.03999H913.823V110.96H916.823ZM916.823 5.03999C916.823 4.21654 917.482 3.49999 918.362 3.49999V0.499992C915.723 0.499992 913.823 2.66345 913.823 5.03999H916.823ZM918.362 3.49999H984.603V0.499992H918.362V3.49999ZM984.603 3.49999C985.483 3.49999 986.143 4.21654 986.143 5.03999H989.143C989.143 2.66345 987.242 0.499992 984.603 0.499992V3.49999ZM986.143 5.03999V22.48H989.143V5.03999H986.143ZM986.143 22.48C986.143 23.3035 985.483 24.02 984.603 24.02V27.02C987.242 27.02 989.143 24.8565 989.143 22.48H986.143ZM984.603 24.02H940.283V27.02H984.603V24.02ZM938.783 25.52V45.36H941.783V25.52H938.783ZM940.283 46.86H976.763V43.86H940.283V46.86ZM976.763 46.86C977.534 46.86 978.302 47.6284 978.302 48.4H981.302C981.302 45.9716 979.191 43.86 976.763 43.86V46.86ZM978.302 48.4V65.84H981.302V48.4H978.302ZM978.302 65.84C978.302 66.7206 977.586 67.38 976.763 67.38V70.38C979.139 70.38 981.302 68.4794 981.302 65.84H978.302ZM976.763 67.38H940.283V70.38H976.763V67.38ZM938.783 68.88V90.48H941.783V68.88H938.783ZM940.283 91.98H984.603V88.98H940.283V91.98ZM984.603 91.98C985.483 91.98 986.143 92.6965 986.143 93.52H989.143C989.143 91.1435 987.242 88.98 984.603 88.98V91.98ZM986.143 93.52V110.96H989.143V93.52H986.143ZM986.143 110.96C986.143 111.783 985.483 112.5 984.603 112.5V115.5C987.242 115.5 989.143 113.337 989.143 110.96H986.143ZM984.603 112.5H918.362V115.5H984.603V112.5ZM918.362 112.5C917.482 112.5 916.823 111.783 916.823 110.96H913.823C913.823 113.337 915.723 115.5 918.362 115.5V112.5ZM1085.34 25.52V24.02H1083.84V25.52H1085.34ZM1085.34 48.56H1083.84V50.06H1085.34V48.56ZM1085.34 72.08V70.58H1083.84V72.08H1085.34ZM1061.89 110.96V5.03999H1058.89V110.96H1061.89ZM1061.89 5.03999C1061.89 4.21654 1062.54 3.49999 1063.43 3.49999V0.499992C1060.79 0.499992 1058.89 2.66345 1058.89 5.03999H1061.89ZM1063.43 3.49999H1129.67V0.499992H1063.43V3.49999ZM1129.67 3.49999C1130.55 3.49999 1131.2 4.21654 1131.2 5.03999H1134.2C1134.2 2.66345 1132.3 0.499992 1129.67 0.499992V3.49999ZM1131.2 5.03999V22.48H1134.2V5.03999H1131.2ZM1131.2 22.48C1131.2 23.3035 1130.55 24.02 1129.67 24.02V27.02C1132.3 27.02 1134.2 24.8565 1134.2 22.48H1131.2ZM1129.67 24.02H1085.34V27.02H1129.67V24.02ZM1083.84 25.52V48.56H1086.84V25.52H1083.84ZM1085.34 50.06H1121.82V47.06H1085.34V50.06ZM1121.82 50.06C1122.6 50.06 1123.36 50.8284 1123.36 51.6H1126.36C1126.36 49.1716 1124.25 47.06 1121.82 47.06V50.06ZM1123.36 51.6V69.04H1126.36V51.6H1123.36ZM1123.36 69.04C1123.36 69.8116 1122.6 70.58 1121.82 70.58V73.58C1124.25 73.58 1126.36 71.4684 1126.36 69.04H1123.36ZM1121.82 70.58H1085.34V73.58H1121.82V70.58ZM1083.84 72.08V110.96H1086.84V72.08H1083.84ZM1083.84 110.96C1083.84 111.732 1083.08 112.5 1082.31 112.5V115.5C1084.73 115.5 1086.84 113.388 1086.84 110.96H1083.84ZM1082.31 112.5H1063.43V115.5H1082.31V112.5ZM1063.43 112.5C1062.54 112.5 1061.89 111.783 1061.89 110.96H1058.89C1058.89 113.337 1060.79 115.5 1063.43 115.5V112.5ZM1158.44 71.12V5.03999H1155.44V71.12H1158.44ZM1158.44 5.03999C1158.44 4.26842 1159.21 3.49999 1159.98 3.49999V0.499992C1157.55 0.499992 1155.44 2.61157 1155.44 5.03999H1158.44ZM1159.98 3.49999H1179.66V0.499992H1159.98V3.49999ZM1179.66 3.49999C1180.54 3.49999 1181.2 4.21654 1181.2 5.03999H1184.2C1184.2 2.66345 1182.3 0.499992 1179.66 0.499992V3.49999ZM1181.2 5.03999V69.84H1184.2V5.03999H1181.2ZM1181.2 69.84C1181.2 81.8124 1190.14 91.5 1202.38 91.5V88.5C1191.9 88.5 1184.2 80.2676 1184.2 69.84H1181.2ZM1202.38 91.5C1214.76 91.5 1223.88 81.8368 1223.88 69.84H1220.88C1220.88 80.2432 1213.04 88.5 1202.38 88.5V91.5ZM1223.88 69.84V5.03999H1220.88V69.84H1223.88ZM1223.88 5.03999C1223.88 4.21654 1224.54 3.49999 1225.42 3.49999V0.499992C1222.78 0.499992 1220.88 2.66345 1220.88 5.03999H1223.88ZM1225.42 3.49999H1245.1V0.499992H1225.42V3.49999ZM1245.1 3.49999C1245.87 3.49999 1246.64 4.26842 1246.64 5.03999H1249.64C1249.64 2.61157 1247.53 0.499992 1245.1 0.499992V3.49999ZM1246.64 5.03999V71.12H1249.64V5.03999H1246.64ZM1246.64 71.12C1246.64 94.5772 1226.87 114.1 1202.38 114.1V117.1C1228.45 117.1 1249.64 96.3028 1249.64 71.12H1246.64ZM1202.38 114.1C1178.07 114.1 1158.44 94.5874 1158.44 71.12H1155.44C1155.44 96.2926 1176.46 117.1 1202.38 117.1V114.1ZM1296.25 25.52H1297.75V24.02H1296.25V25.52ZM1321.53 25.52V24.02H1320.03V25.52H1321.53ZM1297.75 110.96V25.52H1294.75V110.96H1297.75ZM1296.25 24.02H1273.37V27.02H1296.25V24.02ZM1273.37 24.02C1272.49 24.02 1271.83 23.3035 1271.83 22.48H1268.83C1268.83 24.8565 1270.73 27.02 1273.37 27.02V24.02ZM1271.83 22.48V5.03999H1268.83V22.48H1271.83ZM1271.83 5.03999C1271.83 4.21654 1272.49 3.49999 1273.37 3.49999V0.499992C1270.73 0.499992 1268.83 2.66345 1268.83 5.03999H1271.83ZM1273.37 3.49999H1344.41V0.499992H1273.37V3.49999ZM1344.41 3.49999C1345.29 3.49999 1345.95 4.21653 1345.95 5.03999H1348.95C1348.95 2.66345 1347.05 0.499992 1344.41 0.499992V3.49999ZM1345.95 5.03999V22.48H1348.95V5.03999H1345.95ZM1345.95 22.48C1345.95 23.3035 1345.29 24.02 1344.41 24.02V27.02C1347.05 27.02 1348.95 24.8565 1348.95 22.48H1345.95ZM1344.41 24.02H1321.53V27.02H1344.41V24.02ZM1320.03 25.52V110.96H1323.03V25.52H1320.03ZM1320.03 110.96C1320.03 111.732 1319.27 112.5 1318.49 112.5V115.5C1320.92 115.5 1323.03 113.388 1323.03 110.96H1320.03ZM1318.49 112.5H1299.29V115.5H1318.49V112.5ZM1299.29 112.5C1298.52 112.5 1297.75 111.732 1297.75 110.96H1294.75C1294.75 113.388 1296.87 115.5 1299.29 115.5V112.5ZM1371.32 71.12V5.03999H1368.32V71.12H1371.32ZM1371.32 5.03999C1371.32 4.26842 1372.08 3.49999 1372.86 3.49999V0.499992C1370.43 0.499992 1368.32 2.61157 1368.32 5.03999H1371.32ZM1372.86 3.49999H1392.54V0.499992H1372.86V3.49999ZM1392.54 3.49999C1393.42 3.49999 1394.08 4.21654 1394.08 5.03999H1397.08C1397.08 2.66345 1395.18 0.499992 1392.54 0.499992V3.49999ZM1394.08 5.03999V69.84H1397.08V5.03999H1394.08ZM1394.08 69.84C1394.08 81.8124 1403.01 91.5 1415.26 91.5V88.5C1404.78 88.5 1397.08 80.2676 1397.08 69.84H1394.08ZM1415.26 91.5C1427.64 91.5 1436.76 81.8368 1436.76 69.84H1433.76C1433.76 80.2432 1425.92 88.5 1415.26 88.5V91.5ZM1436.76 69.84V5.03999H1433.76V69.84H1436.76ZM1436.76 5.03999C1436.76 4.21654 1437.42 3.49999 1438.3 3.49999V0.499992C1435.66 0.499992 1433.76 2.66345 1433.76 5.03999H1436.76ZM1438.3 3.49999H1457.98V0.499992H1438.3V3.49999ZM1457.98 3.49999C1458.75 3.49999 1459.52 4.26842 1459.52 5.03999H1462.52C1462.52 2.61157 1460.4 0.499992 1457.98 0.499992V3.49999ZM1459.52 5.03999V71.12H1462.52V5.03999H1459.52ZM1459.52 71.12C1459.52 94.5772 1439.74 114.1 1415.26 114.1V117.1C1441.33 117.1 1462.52 96.3028 1462.52 71.12H1459.52ZM1415.26 114.1C1390.94 114.1 1371.32 94.5874 1371.32 71.12H1368.32C1368.32 96.2926 1389.33 117.1 1415.26 117.1V114.1ZM1556.81 68.72L1556.25 67.3284L1554.69 67.9548L1555.49 69.4321L1556.81 68.72ZM1578.73 109.36L1580.05 108.649L1580.05 108.648L1578.73 109.36ZM1552.17 112.56L1553.51 111.889L1553.51 111.887L1552.17 112.56ZM1530.89 70.16L1532.23 69.4872L1531.81 68.66H1530.89V70.16ZM1519.85 70.16V68.66H1518.35V70.16H1519.85ZM1519.85 49.84H1518.35V51.34H1519.85V49.84ZM1519.85 24.88V23.38H1518.35V24.88H1519.85ZM1496.23 110.96V5.03999H1493.23V110.96H1496.23ZM1496.23 5.03999C1496.23 4.21654 1496.89 3.49999 1497.77 3.49999V0.499992C1495.13 0.499992 1493.23 2.66345 1493.23 5.03999H1496.23ZM1497.77 3.49999H1545.61V0.499992H1497.77V3.49999ZM1545.61 3.49999C1563.99 3.49999 1578.99 18.3619 1578.99 36.56H1581.99C1581.99 16.6781 1565.62 0.499992 1545.61 0.499992V3.49999ZM1578.99 36.56C1578.99 50.5389 1569.73 61.9047 1556.25 67.3284L1557.37 70.1116C1571.73 64.3353 1581.99 52.0211 1581.99 36.56H1578.99ZM1555.49 69.4321L1577.41 110.072L1580.05 108.648L1558.13 68.0079L1555.49 69.4321ZM1577.41 110.071C1577.75 110.703 1577.71 111.33 1577.49 111.754C1577.28 112.135 1576.85 112.5 1576.01 112.5V115.5C1577.89 115.5 1579.38 114.585 1580.13 113.166C1580.87 111.79 1580.83 110.097 1580.05 108.649L1577.41 110.071ZM1576.01 112.5H1554.73V115.5H1576.01V112.5ZM1554.73 112.5C1554.41 112.5 1554.12 112.4 1553.89 112.255C1553.65 112.097 1553.53 111.93 1553.51 111.889L1550.83 113.231C1551.39 114.351 1552.85 115.5 1554.73 115.5V112.5ZM1553.51 111.887L1532.23 69.4872L1529.55 70.8328L1550.83 113.233L1553.51 111.887ZM1530.89 68.66H1519.85V71.66H1530.89V68.66ZM1518.35 70.16V110.96H1521.35V70.16H1518.35ZM1518.35 110.96C1518.35 111.732 1517.58 112.5 1516.81 112.5V115.5C1519.24 115.5 1521.35 113.388 1521.35 110.96H1518.35ZM1516.81 112.5H1497.77V115.5H1516.81V112.5ZM1497.77 112.5C1496.89 112.5 1496.23 111.783 1496.23 110.96H1493.23C1493.23 113.337 1495.13 115.5 1497.77 115.5V112.5ZM1519.85 51.34H1543.53V48.34H1519.85V51.34ZM1543.53 51.34C1551 51.34 1557.19 44.5007 1557.19 37.04H1554.19C1554.19 43.0193 1549.18 48.34 1543.53 48.34V51.34ZM1557.19 37.04C1557.19 29.4788 1550.9 23.38 1543.53 23.38V26.38C1549.27 26.38 1554.19 31.1612 1554.19 37.04H1557.19ZM1543.53 23.38H1519.85V26.38H1543.53V23.38ZM1518.35 24.88V49.84H1521.35V24.88H1518.35ZM1634.88 25.52V24.02H1633.38V25.52H1634.88ZM1634.88 45.36H1633.38V46.86H1634.88V45.36ZM1634.88 68.88V67.38H1633.38V68.88H1634.88ZM1634.88 90.48H1633.38V91.98H1634.88V90.48ZM1611.42 110.96V5.03999H1608.42V110.96H1611.42ZM1611.42 5.03999C1611.42 4.21654 1612.08 3.49999 1612.96 3.49999V0.499992C1610.32 0.499992 1608.42 2.66345 1608.42 5.03999H1611.42ZM1612.96 3.49999H1679.2V0.499992H1612.96V3.49999ZM1679.2 3.49999C1680.08 3.49999 1680.74 4.21654 1680.74 5.03999H1683.74C1683.74 2.66345 1681.84 0.499992 1679.2 0.499992V3.49999ZM1680.74 5.03999V22.48H1683.74V5.03999H1680.74ZM1680.74 22.48C1680.74 23.3035 1680.08 24.02 1679.2 24.02V27.02C1681.84 27.02 1683.74 24.8565 1683.74 22.48H1680.74ZM1679.2 24.02H1634.88V27.02H1679.2V24.02ZM1633.38 25.52V45.36H1636.38V25.52H1633.38ZM1634.88 46.86H1671.36V43.86H1634.88V46.86ZM1671.36 46.86C1672.13 46.86 1672.9 47.6284 1672.9 48.4H1675.9C1675.9 45.9716 1673.78 43.86 1671.36 43.86V46.86ZM1672.9 48.4V65.84H1675.9V48.4H1672.9ZM1672.9 65.84C1672.9 66.7206 1672.18 67.38 1671.36 67.38V70.38C1673.73 70.38 1675.9 68.4794 1675.9 65.84H1672.9ZM1671.36 67.38H1634.88V70.38H1671.36V67.38ZM1633.38 68.88V90.48H1636.38V68.88H1633.38ZM1634.88 91.98H1679.2V88.98H1634.88V91.98ZM1679.2 91.98C1680.08 91.98 1680.74 92.6965 1680.74 93.52H1683.74C1683.74 91.1435 1681.84 88.98 1679.2 88.98V91.98ZM1680.74 93.52V110.96H1683.74V93.52H1680.74ZM1680.74 110.96C1680.74 111.783 1680.08 112.5 1679.2 112.5V115.5C1681.84 115.5 1683.74 113.337 1683.74 110.96H1680.74ZM1679.2 112.5H1612.96V115.5H1679.2V112.5ZM1612.96 112.5C1612.08 112.5 1611.42 111.783 1611.42 110.96H1608.42C1608.42 113.337 1610.32 115.5 1612.96 115.5V112.5ZM1756.48 110.96V5.03999H1753.48V110.96H1756.48ZM1756.48 5.03999C1756.48 4.26842 1757.25 3.49999 1758.02 3.49999V0.499992C1755.59 0.499992 1753.48 2.61156 1753.48 5.03999H1756.48ZM1758.02 3.49999H1777.22V0.499992H1758.02V3.49999ZM1777.22 3.49999C1777.99 3.49999 1778.76 4.26842 1778.76 5.03999H1781.76C1781.76 2.61156 1779.65 0.499992 1777.22 0.499992V3.49999ZM1778.76 5.03999V110.96H1781.76V5.03999H1778.76ZM1778.76 110.96C1778.76 111.732 1777.99 112.5 1777.22 112.5V115.5C1779.65 115.5 1781.76 113.388 1781.76 110.96H1778.76ZM1777.22 112.5H1758.02V115.5H1777.22V112.5ZM1758.02 112.5C1757.25 112.5 1756.48 111.732 1756.48 110.96H1753.48C1753.48 113.388 1755.59 115.5 1758.02 115.5V112.5ZM1815.79 110.96H1817.29V110.958L1815.79 110.96ZM1815.63 3.27999H1814.13V3.28222L1815.63 3.27999ZM1822.67 0.399994L1823.71 -0.680786L1823.28 -1.10001H1822.67V0.399994ZM1886.51 61.84L1885.47 62.9208L1885.91 63.34H1886.51V61.84ZM1886.67 61.84V63.34H1888.17V61.84H1886.67ZM1904.27 114.8L1903.21 115.858L1903.21 115.861L1904.27 114.8ZM1841.07 51.28L1842.13 50.222L1841.69 49.78H1841.07V51.28ZM1840.91 51.28V49.78H1839.41V51.28H1840.91ZM1817.29 110.958L1817.13 3.27777L1814.13 3.28222L1814.29 110.962L1817.29 110.958ZM1817.13 3.27999C1817.13 2.61117 1817.79 1.89999 1818.67 1.89999V-1.10001C1816.35 -1.10001 1814.13 0.748823 1814.13 3.27999H1817.13ZM1818.67 1.89999H1822.67V-1.10001H1818.67V1.89999ZM1821.63 1.48077L1885.47 62.9208L1887.55 60.7592L1823.71 -0.680786L1821.63 1.48077ZM1886.51 63.34H1886.67V60.34H1886.51V63.34ZM1888.17 61.84V5.03999H1885.17V61.84H1888.17ZM1888.17 5.03999C1888.17 4.21653 1888.83 3.49999 1889.71 3.49999V0.499992C1887.07 0.499992 1885.17 2.66345 1885.17 5.03999H1888.17ZM1889.71 3.49999H1908.91V0.499992H1889.71V3.49999ZM1908.91 3.49999C1909.68 3.49999 1910.45 4.26842 1910.45 5.03999H1913.45C1913.45 2.61157 1911.34 0.499992 1908.91 0.499992V3.49999ZM1910.45 5.03999V112.72H1913.45V5.03999H1910.45ZM1910.45 112.72C1910.45 113.389 1909.79 114.1 1908.91 114.1V117.1C1911.23 117.1 1913.45 115.251 1913.45 112.72H1910.45ZM1908.91 114.1H1906.35V117.1H1908.91V114.1ZM1906.35 114.1C1906.4 114.1 1906.42 114.106 1906.39 114.1C1906.36 114.095 1906.31 114.085 1906.25 114.068C1906.11 114.034 1905.95 113.982 1905.79 113.918C1905.62 113.854 1905.47 113.787 1905.36 113.73C1905.3 113.702 1905.27 113.682 1905.26 113.673C1905.24 113.659 1905.27 113.68 1905.33 113.739L1903.21 115.861C1903.46 116.11 1903.77 116.286 1903.97 116.39C1904.21 116.513 1904.47 116.626 1904.72 116.722C1904.97 116.818 1905.24 116.906 1905.49 116.972C1905.72 117.03 1906.04 117.1 1906.35 117.1V114.1ZM1905.33 113.742L1842.13 50.222L1840.01 52.338L1903.21 115.858L1905.33 113.742ZM1841.07 49.78H1840.91V52.78H1841.07V49.78ZM1839.41 51.28V110.96H1842.41V51.28H1839.41ZM1839.41 110.96C1839.41 111.783 1838.75 112.5 1837.87 112.5V115.5C1840.51 115.5 1842.41 113.337 1842.41 110.96H1839.41ZM1837.87 112.5H1818.83V115.5H1837.87V112.5ZM1818.83 112.5C1818.06 112.5 1817.29 111.732 1817.29 110.96H1814.29C1814.29 113.388 1816.4 115.5 1818.83 115.5V112.5ZM1985.25 103.28L1984.19 104.341L1985.25 103.28ZM1984.45 98.8L1985.76 99.5442L1985.76 99.5391L1984.45 98.8ZM1991.97 85.52L1990.7 84.7339L1990.68 84.7571L1990.67 84.7809L1991.97 85.52ZM1997.41 84.56L1996.54 85.7806L1996.64 85.849L1996.74 85.9016L1997.41 84.56ZM2014.69 67.6L2015.25 66.2059L2015.25 66.2051L2014.69 67.6ZM2054.85 12.4L2053.97 13.6096L2054.03 13.6561L2054.1 13.6957L2054.85 12.4ZM2055.81 17.52L2057.06 18.3483L2057.09 18.3071L2057.12 18.2642L2055.81 17.52ZM2047.65 29.84L2046.4 29.0117L2046.4 29.0231L2046.39 29.0347L2047.65 29.84ZM2042.21 31.92L2043.13 30.736L2043.04 30.6649L2042.94 30.6088L2042.21 31.92ZM2026.69 46L2026.13 47.3903L2026.14 47.3939L2026.69 46ZM1986.31 102.219C1985.91 101.814 1985.64 101.534 1985.46 101.297C1985.28 101.069 1985.24 100.959 1985.23 100.916C1985.22 100.88 1985.15 100.613 1985.76 99.5442L1983.15 98.0558C1982.48 99.2265 1982.01 100.4 1982.32 101.644C1982.47 102.241 1982.77 102.731 1983.09 103.143C1983.41 103.546 1983.8 103.946 1984.19 104.341L1986.31 102.219ZM1985.76 99.5391L1993.28 86.2591L1990.67 84.7809L1983.15 98.0609L1985.76 99.5391ZM1993.25 86.3061C1993.56 85.7989 1994.12 85.512 1994.87 85.4557C1995.66 85.3956 1996.33 85.6304 1996.54 85.7806L1998.29 83.3394C1997.38 82.6896 1995.96 82.3644 1994.64 82.4642C1993.27 82.568 1991.66 83.1611 1990.7 84.7339L1993.25 86.3061ZM1996.74 85.9016C1996.69 85.8741 1996.69 85.8685 1996.84 85.9677C1996.96 86.0441 1997.11 86.1465 1997.31 86.2811C1997.71 86.5461 1998.27 86.9108 1998.95 87.3396C2000.31 88.1966 2002.18 89.312 2004.38 90.4191C2008.73 92.6135 2014.5 94.86 2020.13 94.86V91.86C2015.21 91.86 2009.94 89.8665 2005.73 87.7409C2003.64 86.688 2001.86 85.6234 2000.55 84.8004C1999.89 84.3892 1999.36 84.0389 1998.97 83.7789C1998.77 83.651 1998.61 83.5384 1998.48 83.4554C1998.39 83.3952 1998.22 83.2859 1998.08 83.2184L1996.74 85.9016ZM2020.13 94.86C2027.15 94.86 2032.67 90.3817 2032.67 83.76H2029.67C2029.67 88.3383 2025.91 91.86 2020.13 91.86V94.86ZM2032.67 83.76C2032.67 76.0037 2026.17 70.5408 2015.25 66.2059L2014.14 68.9941C2024.98 73.2991 2029.67 78.0763 2029.67 83.76H2032.67ZM2015.25 66.2051C2008.46 63.5214 2000.89 59.5687 1995.05 53.9945C1989.23 48.4442 1985.15 41.3345 1985.15 32.24H1982.15C1982.15 42.3455 1986.72 50.1958 1992.98 56.1655C1999.21 62.1113 2007.17 66.2386 2014.14 68.9949L2015.25 66.2051ZM1985.15 32.24C1985.15 24.7073 1988.08 17.1413 1993.94 11.4563C1999.78 5.78255 2008.63 1.89999 2020.61 1.89999V-1.10001C2007.96 -1.10001 1998.32 3.01744 1991.85 9.30373C1985.39 15.5787 1982.15 23.9327 1982.15 32.24H1985.15ZM2020.61 1.89999C2036.77 1.89999 2049.24 10.1443 2053.97 13.6096L2055.74 11.1904C2050.87 7.61572 2037.74 -1.10001 2020.61 -1.10001V1.89999ZM2054.1 13.6957C2054.48 13.9203 2054.74 14.3645 2054.8 15.0796C2054.86 15.8221 2054.66 16.5131 2054.51 16.7758L2057.12 18.2642C2057.61 17.4069 2057.89 16.0979 2057.79 14.8404C2057.69 13.5555 2057.14 11.9997 2055.61 11.1043L2054.1 13.6957ZM2054.56 16.6917L2046.4 29.0117L2048.9 30.6683L2057.06 18.3483L2054.56 16.6917ZM2046.39 29.0347C2046.01 29.6227 2045.27 30.2396 2044.47 30.5785C2043.59 30.9486 2043.2 30.7867 2043.13 30.736L2041.29 33.104C2042.67 34.1732 2044.43 33.8514 2045.64 33.3414C2046.92 32.8003 2048.17 31.8173 2048.92 30.6453L2046.39 29.0347ZM2042.94 30.6088C2042.83 30.5461 2042.56 30.3667 2042.05 30.0294C2041.57 29.7134 2040.95 29.2982 2040.22 28.8229C2038.75 27.8718 2036.81 26.6727 2034.6 25.496C2030.23 23.1701 2024.6 20.82 2019.33 20.82V23.82C2023.83 23.82 2028.92 25.8699 2033.19 28.144C2035.3 29.2673 2037.16 30.4182 2038.59 31.3421C2039.3 31.8043 2039.91 32.2078 2040.39 32.5263C2040.83 32.8233 2041.24 33.0939 2041.49 33.2312L2042.94 30.6088ZM2019.33 20.82C2013.01 20.82 2007.75 25.0871 2007.75 30.48H2010.75C2010.75 27.2329 2014.13 23.82 2019.33 23.82V20.82ZM2007.75 30.48C2007.75 33.9353 2009.19 36.9212 2012.23 39.6553C2015.21 42.3331 2019.76 44.8116 2026.13 47.3903L2027.26 44.6097C2020.98 42.0684 2016.82 39.7469 2014.24 37.4247C2011.72 35.1588 2010.75 32.9447 2010.75 30.48H2007.75ZM2026.14 47.3939C2032.34 49.859 2040.22 53.4617 2046.54 59.0624C2052.82 64.629 2057.51 72.1259 2057.51 82.48H2060.51C2060.51 71.0741 2055.29 62.811 2048.53 56.8176C2041.81 50.8583 2033.53 47.101 2027.25 44.6061L2026.14 47.3939ZM2057.51 82.48C2057.51 98.07 2044.01 114.1 2021.25 114.1V117.1C2045.54 117.1 2060.51 99.85 2060.51 82.48H2057.51ZM2021.25 114.1C2000.9 114.1 1989.75 105.654 1986.31 102.219L1984.19 104.341C1988.12 108.266 2000.01 117.1 2021.25 117.1V114.1ZM2100.91 25.52H2102.41V24.02H2100.91V25.52ZM2126.19 25.52V24.02H2124.69V25.52H2126.19ZM2102.41 110.96V25.52H2099.41V110.96H2102.41ZM2100.91 24.02H2078.03V27.02H2100.91V24.02ZM2078.03 24.02C2077.15 24.02 2076.49 23.3035 2076.49 22.48H2073.49C2073.49 24.8565 2075.39 27.02 2078.03 27.02V24.02ZM2076.49 22.48V5.03999H2073.49V22.48H2076.49ZM2076.49 5.03999C2076.49 4.21654 2077.15 3.49999 2078.03 3.49999V0.499992C2075.39 0.499992 2073.49 2.66345 2073.49 5.03999H2076.49ZM2078.03 3.49999H2149.07V0.499992H2078.03V3.49999ZM2149.07 3.49999C2149.95 3.49999 2150.61 4.21653 2150.61 5.03999H2153.61C2153.61 2.66345 2151.71 0.499992 2149.07 0.499992V3.49999ZM2150.61 5.03999V22.48H2153.61V5.03999H2150.61ZM2150.61 22.48C2150.61 23.3035 2149.95 24.02 2149.07 24.02V27.02C2151.71 27.02 2153.61 24.8565 2153.61 22.48H2150.61ZM2149.07 24.02H2126.19V27.02H2149.07V24.02ZM2124.69 25.52V110.96H2127.69V25.52H2124.69ZM2124.69 110.96C2124.69 111.732 2123.92 112.5 2123.15 112.5V115.5C2125.58 115.5 2127.69 113.388 2127.69 110.96H2124.69ZM2123.15 112.5H2103.95V115.5H2123.15V112.5ZM2103.95 112.5C2103.18 112.5 2102.41 111.732 2102.41 110.96H2099.41C2099.41 113.388 2101.52 115.5 2103.95 115.5V112.5ZM2202.18 60.08H2203.68V59.6287L2203.43 59.2523L2202.18 60.08ZM2166.82 6.64L2165.54 7.42615L2165.56 7.44715L2165.57 7.46772L2166.82 6.64ZM2192.74 3.43999L2193.98 2.59818L2193.96 2.5686L2193.94 2.54L2192.74 3.43999ZM2214.98 36.24L2213.74 37.0818L2214.98 38.9128L2216.22 37.0818L2214.98 36.24ZM2237.22 3.43999L2236.02 2.54L2236 2.5686L2235.98 2.59818L2237.22 3.43999ZM2263.14 6.64L2264.39 7.47722L2264.4 7.45201L2264.42 7.42615L2263.14 6.64ZM2227.3 59.92L2226.06 59.0828L2225.8 59.4624V59.92H2227.3ZM2203.68 110.96V60.08H2200.68V110.96H2203.68ZM2203.43 59.2523L2168.07 5.81227L2165.57 7.46772L2200.93 60.9077L2203.43 59.2523ZM2168.1 5.85385C2167.73 5.25449 2167.76 4.66213 2167.98 4.24588C2168.2 3.84617 2168.64 3.49999 2169.38 3.49999V0.499992C2167.56 0.499992 2166.08 1.43382 2165.34 2.83411C2164.6 4.21786 2164.63 5.94551 2165.54 7.42615L2168.1 5.85385ZM2169.38 3.49999H2190.18V0.499992H2169.38V3.49999ZM2190.18 3.49999C2190.75 3.49999 2191.16 3.82819 2191.54 4.33999L2193.94 2.54C2193.36 1.77179 2192.18 0.499992 2190.18 0.499992V3.49999ZM2191.5 4.2818L2213.74 37.0818L2216.22 35.3982L2193.98 2.59818L2191.5 4.2818ZM2216.22 37.0818L2238.46 4.2818L2235.98 2.59818L2213.74 35.3982L2216.22 37.0818ZM2238.42 4.33999C2238.66 4.02254 2238.82 3.83851 2239 3.70884C2239.15 3.60577 2239.37 3.49999 2239.78 3.49999V0.499992C2238.75 0.499992 2237.93 0.79421 2237.28 1.25114C2236.67 1.68147 2236.26 2.21744 2236.02 2.54L2238.42 4.33999ZM2239.78 3.49999H2260.58V0.499992H2239.78V3.49999ZM2260.58 3.49999C2261.32 3.49999 2261.76 3.84617 2261.98 4.24588C2262.2 4.66213 2262.23 5.25449 2261.86 5.85385L2264.42 7.42615C2265.33 5.94551 2265.36 4.21786 2264.62 2.83411C2263.88 1.43382 2262.4 0.499992 2260.58 0.499992V3.49999ZM2261.9 5.80278L2226.06 59.0828L2228.55 60.7572L2264.39 7.47722L2261.9 5.80278ZM2225.8 59.92V110.96H2228.8V59.92H2225.8ZM2225.8 110.96C2225.8 111.732 2225.03 112.5 2224.26 112.5V115.5C2226.69 115.5 2228.8 113.388 2228.8 110.96H2225.8ZM2224.26 112.5H2205.22V115.5H2224.26V112.5ZM2205.22 112.5C2204.34 112.5 2203.68 111.783 2203.68 110.96H2200.68C2200.68 113.337 2202.58 115.5 2205.22 115.5V112.5ZM2309.04 90.48H2307.54V91.98H2309.04V90.48ZM2285.42 110.96V5.03999H2282.42V110.96H2285.42ZM2285.42 5.03999C2285.42 4.21654 2286.08 3.49999 2286.96 3.49999V0.499992C2284.32 0.499992 2282.42 2.66345 2282.42 5.03999H2285.42ZM2286.96 3.49999H2306V0.499992H2286.96V3.49999ZM2306 3.49999C2306.77 3.49999 2307.54 4.26842 2307.54 5.03999H2310.54C2310.54 2.61156 2308.42 0.499992 2306 0.499992V3.49999ZM2307.54 5.03999V90.48H2310.54V5.03999H2307.54ZM2309.04 91.98H2347.12V88.98H2309.04V91.98ZM2347.12 91.98C2348 91.98 2348.66 92.6965 2348.66 93.52H2351.66C2351.66 91.1435 2349.76 88.98 2347.12 88.98V91.98ZM2348.66 93.52V110.96H2351.66V93.52H2348.66ZM2348.66 110.96C2348.66 111.783 2348 112.5 2347.12 112.5V115.5C2349.76 115.5 2351.66 113.337 2351.66 110.96H2348.66ZM2347.12 112.5H2286.96V115.5H2347.12V112.5ZM2286.96 112.5C2286.08 112.5 2285.42 111.783 2285.42 110.96H2282.42C2282.42 113.337 2284.32 115.5 2286.96 115.5V112.5ZM2398.59 25.52V24.02H2397.09V25.52H2398.59ZM2398.59 45.36H2397.09V46.86H2398.59V45.36ZM2398.59 68.88V67.38H2397.09V68.88H2398.59ZM2398.59 90.48H2397.09V91.98H2398.59V90.48ZM2375.14 110.96V5.03999H2372.14V110.96H2375.14ZM2375.14 5.03999C2375.14 4.21654 2375.79 3.49999 2376.68 3.49999V0.499992C2374.04 0.499992 2372.14 2.66345 2372.14 5.03999H2375.14ZM2376.68 3.49999H2442.92V0.499992H2376.68V3.49999ZM2442.92 3.49999C2443.8 3.49999 2444.46 4.21654 2444.46 5.03999H2447.46C2447.46 2.66345 2445.55 0.499992 2442.92 0.499992V3.49999ZM2444.46 5.03999V22.48H2447.46V5.03999H2444.46ZM2444.46 22.48C2444.46 23.3035 2443.8 24.02 2442.92 24.02V27.02C2445.55 27.02 2447.46 24.8565 2447.46 22.48H2444.46ZM2442.92 24.02H2398.59V27.02H2442.92V24.02ZM2397.09 25.52V45.36H2400.09V25.52H2397.09ZM2398.59 46.86H2435.07V43.86H2398.59V46.86ZM2435.07 46.86C2435.85 46.86 2436.61 47.6284 2436.61 48.4H2439.61C2439.61 45.9716 2437.5 43.86 2435.07 43.86V46.86ZM2436.61 48.4V65.84H2439.61V48.4H2436.61ZM2436.61 65.84C2436.61 66.7206 2435.9 67.38 2435.07 67.38V70.38C2437.45 70.38 2439.61 68.4794 2439.61 65.84H2436.61ZM2435.07 67.38H2398.59V70.38H2435.07V67.38ZM2397.09 68.88V90.48H2400.09V68.88H2397.09ZM2398.59 91.98H2442.92V88.98H2398.59V91.98ZM2442.92 91.98C2443.8 91.98 2444.46 92.6965 2444.46 93.52H2447.46C2447.46 91.1435 2445.55 88.98 2442.92 88.98V91.98ZM2444.46 93.52V110.96H2447.46V93.52H2444.46ZM2444.46 110.96C2444.46 111.783 2443.8 112.5 2442.92 112.5V115.5C2445.55 115.5 2447.46 113.337 2447.46 110.96H2444.46ZM2442.92 112.5H2376.68V115.5H2442.92V112.5ZM2376.68 112.5C2375.79 112.5 2375.14 111.783 2375.14 110.96H2372.14C2372.14 113.337 2374.04 115.5 2376.68 115.5V112.5Z" fill="url(#paint2_linear_904_28920)"/>
</g>
<defs>
<linearGradient id="paint0_linear_904_28920" x1="-12" y1="59.9999" x2="2454" y2="59.9997" gradientUnits="userSpaceOnUse">
<stop stop-color="#FFCA8C"/>
<stop offset="0.505208" stop-color="#C585F1"/>
<stop offset="1" stop-color="#5433FF"/>
</linearGradient>
<linearGradient id="paint1_linear_904_28920" x1="-12" y1="59.9999" x2="2454" y2="59.9997" gradientUnits="userSpaceOnUse">
<stop stop-color="#FF8CE6"/>
<stop offset="1" stop-color="#5433FF"/>
</linearGradient>
<linearGradient id="paint2_linear_904_28920" x1="-12" y1="59.9999" x2="2454" y2="59.9997" gradientUnits="userSpaceOnUse">
<stop stop-color="#FF8CE6"/>
<stop offset="1" stop-color="#5433FF"/>
</linearGradient>
</defs>
</svg>
