<svg width="20" height="20" viewBox="0 0 20 20" fill="none" xmlns="http://www.w3.org/2000/svg">
<g id="mail">
<mask id="mask0_1109_8819" style="mask-type:alpha" maskUnits="userSpaceOnUse" x="0" y="0" width="20" height="20">
<rect id="Bounding box" width="20" height="20" fill="#D9D9D9"/>
</mask>
<g mask="url(#mask0_1109_8819)">
<path id="mail_2" d="M3.33332 16.6654C2.87499 16.6654 2.48263 16.5022 2.15624 16.1758C1.82985 15.8494 1.66666 15.457 1.66666 14.9987V4.9987C1.66666 4.54036 1.82985 4.148 2.15624 3.82161C2.48263 3.49523 2.87499 3.33203 3.33332 3.33203H16.6667C17.125 3.33203 17.5174 3.49523 17.8437 3.82161C18.1701 4.148 18.3333 4.54036 18.3333 4.9987V14.9987C18.3333 15.457 18.1701 15.8494 17.8437 16.1758C17.5174 16.5022 17.125 16.6654 16.6667 16.6654H3.33332ZM9.99999 10.6862C10.0694 10.6862 10.1424 10.6758 10.2187 10.6549C10.2951 10.6341 10.368 10.6029 10.4375 10.5612L16.3333 6.8737C16.4444 6.80425 16.5278 6.71745 16.5833 6.61328C16.6389 6.50911 16.6667 6.39453 16.6667 6.26953C16.6667 5.99175 16.5486 5.78342 16.3125 5.64453C16.0764 5.50564 15.8333 5.51259 15.5833 5.66536L9.99999 9.16536L4.41666 5.66536C4.16666 5.51259 3.9236 5.50911 3.68749 5.65495C3.45138 5.80078 3.33332 6.00564 3.33332 6.26953C3.33332 6.40842 3.3611 6.52995 3.41666 6.63411C3.47221 6.73828 3.55555 6.81814 3.66666 6.8737L9.56249 10.5612C9.63194 10.6029 9.70485 10.6341 9.78124 10.6549C9.85763 10.6758 9.93055 10.6862 9.99999 10.6862Z" fill="white"/>
</g>
</g>
</svg>
