<svg width="20" height="20" viewBox="0 0 20 20" fill="none" xmlns="http://www.w3.org/2000/svg">
<path d="M19.1667 9.10683C19.1667 5.0051 15.0546 1.66797 9.99995 1.66797C4.94528 1.66797 0.833328 5.0051 0.833328 9.10683C0.833328 12.7841 4.09442 15.8637 8.49953 16.4459C8.79802 16.5105 9.20442 16.6428 9.30709 16.898C9.39954 17.1296 9.36758 17.4927 9.33673 17.7268C9.33673 17.7268 9.22916 18.3736 9.20588 18.5115C9.16593 18.7432 9.02158 19.4179 9.99987 19.0057C10.9783 18.5935 15.2789 15.8973 17.202 13.6838H17.2016C18.53 12.2268 19.1665 10.7484 19.1665 9.10683H19.1667Z" fill="white"/>
<path d="M16.1169 11.4756H13.5415C13.4448 11.4756 13.3665 11.3972 13.3665 11.3005V7.30002C13.3665 7.20336 13.4448 7.125 13.5415 7.125H16.1169C16.2132 7.125 16.2919 7.2037 16.2919 7.30002V7.95009C16.2919 8.04675 16.2135 8.12511 16.1169 8.12511H14.3667V8.80018H16.1169C16.2132 8.80018 16.2919 8.87897 16.2919 8.9752V9.62527C16.2919 9.72193 16.2135 9.80029 16.1169 9.80029H14.3667V10.4754H16.1169C16.2132 10.4754 16.2919 10.5541 16.2919 10.6504V11.3004C16.2919 11.3971 16.2135 11.4755 16.1169 11.4755V11.4756Z" fill="#141485"/>
<path d="M6.59079 11.4756C6.68745 11.4756 6.76581 11.3972 6.76581 11.3005V10.6505C6.76581 10.5542 6.68702 10.4754 6.59079 10.4754H4.84052V7.30002C4.84052 7.2037 4.76173 7.125 4.6655 7.125H4.01543C3.91877 7.125 3.84041 7.20336 3.84041 7.30002V11.3005C3.84041 11.3972 3.91877 11.4756 4.01543 11.4756H6.59079Z" fill="#141485"/>
<path d="M8.14127 7.125H7.4912C7.39454 7.125 7.31618 7.20336 7.31618 7.30002V11.3005C7.31618 11.3972 7.39454 11.4756 7.4912 11.4756H8.14127C8.23793 11.4756 8.31629 11.3972 8.31629 11.3005V7.30002C8.31629 7.20336 8.23793 7.125 8.14127 7.125Z" fill="#141485"/>
<path d="M12.5669 7.125H11.9169C11.8202 7.125 11.7418 7.20336 11.7418 7.30002V9.67613L9.9115 7.2043C9.90729 7.19795 9.90248 7.19193 9.89741 7.18617C9.89706 7.18575 9.89663 7.18532 9.89629 7.18489C9.89294 7.18111 9.88942 7.1775 9.88572 7.17397C9.8846 7.17294 9.88349 7.172 9.88246 7.17097C9.87936 7.16822 9.87618 7.16547 9.87292 7.16298C9.87137 7.16177 9.86974 7.16066 9.86819 7.15945C9.86519 7.15722 9.86209 7.15516 9.85891 7.1531C9.85711 7.15198 9.85539 7.15086 9.85359 7.14983C9.85041 7.14794 9.84723 7.14614 9.84396 7.1445C9.84216 7.14356 9.84027 7.1427 9.83838 7.14184C9.83503 7.14029 9.83159 7.13883 9.82815 7.13746C9.82626 7.13677 9.82437 7.13608 9.82248 7.1354C9.81896 7.13419 9.81544 7.13299 9.81183 7.13196C9.80977 7.13136 9.80771 7.13084 9.80564 7.13041C9.80221 7.12955 9.79877 7.12878 9.79525 7.12818C9.79276 7.12775 9.79026 7.12741 9.78777 7.12706C9.78459 7.12663 9.7815 7.1262 9.77832 7.12586C9.77523 7.1256 9.77213 7.12552 9.76896 7.12543C9.76698 7.12543 9.765 7.12509 9.76294 7.12509H9.11639C9.01973 7.12509 8.94138 7.20344 8.94138 7.3001V11.3007C8.94138 11.3974 9.01973 11.4757 9.11639 11.4757H9.76646C9.86312 11.4757 9.94148 11.3974 9.94148 11.3007V8.92537L11.7742 11.4004C11.7868 11.4182 11.8022 11.4329 11.8193 11.4445C11.8199 11.445 11.8206 11.4454 11.8213 11.4458C11.8248 11.4482 11.8286 11.4504 11.8323 11.4525C11.834 11.4535 11.8357 11.4544 11.8374 11.4554C11.8401 11.4568 11.843 11.4582 11.8459 11.4595C11.8487 11.4608 11.8516 11.4621 11.8545 11.4632C11.8563 11.4639 11.8582 11.4646 11.8601 11.4652C11.864 11.4666 11.8681 11.468 11.8721 11.4691C11.8729 11.4694 11.8737 11.4695 11.8746 11.4698C11.8892 11.4737 11.9045 11.4759 11.9203 11.4759H12.5669C12.6635 11.4759 12.7419 11.3975 12.7419 11.3009V7.30028C12.7419 7.20362 12.6635 7.12526 12.5669 7.12526L12.5669 7.125Z" fill="#141485"/>
</svg>
