<svg width="239" height="280" viewBox="0 0 239 280" fill="none" xmlns="http://www.w3.org/2000/svg">
<path d="M239 164.625C239 228.345 187.336 280 123.605 280H90.7653C40.6371 280 0 239.37 0 189.251C0 139.132 40.6371 98.5016 90.7653 98.5016H123.605C160.131 98.5016 189.74 128.106 189.74 164.625C189.74 201.145 160.131 230.749 123.605 230.749H67.5038C65.4885 230.749 63.855 229.116 63.855 227.101V175.256C67.2094 177.196 71.1039 178.306 75.2576 178.306C79.4114 178.306 83.3059 177.196 86.6603 175.256V204.3C86.6603 206.315 88.2939 207.948 90.3092 207.948H114.483C138.413 207.948 157.813 188.552 157.813 164.625C157.813 140.699 138.413 121.303 114.483 121.303H99.8874C62.3541 121.303 31.9275 151.724 31.9275 189.251C31.9275 226.777 62.3541 257.199 99.8874 257.199H123.605C174.741 257.199 216.195 215.752 216.195 164.625C216.195 113.498 174.741 72.0521 123.605 72.0521H67.5038C65.4885 72.0521 63.855 70.4189 63.855 68.4039V3.64821C63.855 1.63349 65.4885 0 67.5038 0H83.0115C85.0268 0 86.6603 1.63349 86.6603 3.64821V49.2508V45.6026C86.6603 47.6176 88.2939 49.2508 90.3092 49.2508H144.586C151.891 49.2508 157.813 43.3298 157.813 36.0261C157.813 28.7223 151.891 22.8013 144.586 22.8013H101.712C99.6965 22.8013 98.063 21.168 98.063 19.1531V3.64821C98.063 1.63349 99.6965 0 101.712 0H153.708C173.608 0 189.74 16.1294 189.74 36.0261C189.74 46.6366 185.152 56.1756 177.852 62.7686C214.238 82.1805 239 120.511 239 164.625ZM75.2576 168.73C82.5629 168.73 88.4847 162.809 88.4847 155.505C88.4847 148.201 82.5629 142.28 75.2576 142.28C67.9524 142.28 62.0305 148.201 62.0305 155.505C62.0305 162.809 67.9524 168.73 75.2576 168.73Z" fill="url(#paint0_linear_473_25839)"/>
<defs>
<linearGradient id="paint0_linear_473_25839" x1="119.5" y1="280" x2="119.5" y2="-1.38229e-06" gradientUnits="userSpaceOnUse">
<stop stop-color="#1488CC"/>
<stop offset="1" stop-color="#2B32B2"/>
</linearGradient>
</defs>
</svg>
