<svg width="32" height="32" viewBox="0 0 32 32" fill="none" xmlns="http://www.w3.org/2000/svg">
<rect width="32" height="32" rx="16" fill="#F5F5F5"/>
<mask id="mask0_473_25772" style="mask-type:alpha" maskUnits="userSpaceOnUse" x="8" y="8" width="16" height="16">
<rect x="8" y="8" width="16" height="16" fill="#D9D9D9"/>
</mask>
<g mask="url(#mask0_473_25772)">
<path d="M15.5333 20.8659C15.4111 20.7437 15.3472 20.5881 15.3417 20.3992C15.3361 20.2103 15.3944 20.0548 15.5167 19.9326L18.7833 16.6659H11.3333C11.1444 16.6659 10.9861 16.602 10.8583 16.4742C10.7305 16.3464 10.6667 16.1881 10.6667 15.9992C10.6667 15.8103 10.7305 15.652 10.8583 15.5242C10.9861 15.3964 11.1444 15.3326 11.3333 15.3326H18.7833L15.5167 12.0659C15.3944 11.9437 15.3361 11.7881 15.3417 11.5992C15.3472 11.4103 15.4111 11.2548 15.5333 11.1326C15.6555 11.0103 15.8111 10.9492 16 10.9492C16.1889 10.9492 16.3444 11.0103 16.4667 11.1326L20.8667 15.5326C20.9333 15.5881 20.9805 15.6576 21.0083 15.7409C21.0361 15.8242 21.05 15.9103 21.05 15.9992C21.05 16.0881 21.0361 16.1714 21.0083 16.2492C20.9805 16.327 20.9333 16.3992 20.8667 16.4659L16.4667 20.8659C16.3444 20.9881 16.1889 21.0492 16 21.0492C15.8111 21.0492 15.6555 20.9881 15.5333 20.8659Z" fill="#141485"/>
</g>
</svg>
