<svg width="24" height="24" viewBox="0 0 24 24" fill="none" xmlns="http://www.w3.org/2000/svg">
<path d="M23 10.9266C23 6.00455 18.0655 2 11.9999 2C5.93435 2 1 6.00455 1 10.9266C1 15.3394 4.91331 19.0349 10.1994 19.7336C10.5576 19.811 11.0453 19.9698 11.1685 20.276C11.2795 20.554 11.2411 20.9897 11.2041 21.2706C11.2041 21.2706 11.075 22.0468 11.0471 22.2123C10.9991 22.4902 10.8259 23.2999 11.9998 22.8053C13.174 22.3106 18.3347 19.0751 20.6424 16.419H20.6419C22.236 14.6706 22.9998 12.8965 22.9998 10.9266H23Z" fill="white"/>
<path d="M19.3402 13.7714H16.2497C16.1337 13.7714 16.0397 13.6774 16.0397 13.5614V8.7608C16.0397 8.64481 16.1337 8.55078 16.2497 8.55078H19.3402C19.4557 8.55078 19.5502 8.64522 19.5502 8.7608V9.54089C19.5502 9.65688 19.4562 9.75091 19.3402 9.75091H17.2399V10.561H19.3402C19.4557 10.561 19.5502 10.6555 19.5502 10.771V11.5511C19.5502 11.6671 19.4562 11.7611 19.3402 11.7611H17.2399V12.5712H19.3402C19.4557 12.5712 19.5502 12.6658 19.5502 12.7812V13.5613C19.5502 13.6773 19.4562 13.7713 19.3402 13.7713V13.7714Z" fill="#141485"/>
<path d="M7.90886 13.7714C8.02485 13.7714 8.11888 13.6774 8.11888 13.5614V12.7813C8.11888 12.6659 8.02433 12.5713 7.90886 12.5713H5.80853V8.7608C5.80853 8.64522 5.71398 8.55078 5.5985 8.55078H4.81842C4.70243 8.55078 4.6084 8.64481 4.6084 8.7608V13.5614C4.6084 13.6774 4.70243 13.7714 4.81842 13.7714H7.90886Z" fill="#141485"/>
<path d="M9.76943 8.55078H8.98935C8.87336 8.55078 8.77933 8.64481 8.77933 8.7608V13.5614C8.77933 13.6774 8.87336 13.7714 8.98935 13.7714H9.76943C9.88543 13.7714 9.97946 13.6774 9.97946 13.5614V8.7608C9.97946 8.64481 9.88543 8.55078 9.76943 8.55078Z" fill="#141485"/>
<path d="M15.0802 8.55078H14.3001C14.1842 8.55078 14.0901 8.64481 14.0901 8.7608V11.6121L11.8937 8.64595C11.8886 8.63832 11.8829 8.6311 11.8768 8.62419C11.8764 8.62368 11.8759 8.62316 11.8754 8.62264C11.8714 8.61811 11.8672 8.61378 11.8628 8.60955C11.8614 8.60831 11.8601 8.60718 11.8589 8.60594C11.8551 8.60264 11.8513 8.59934 11.8474 8.59635C11.8455 8.59491 11.8436 8.59357 11.8417 8.59213C11.8381 8.58944 11.8344 8.58697 11.8306 8.5845C11.8284 8.58316 11.8264 8.58181 11.8242 8.58058C11.8204 8.57831 11.8166 8.57614 11.8127 8.57419C11.8105 8.57305 11.8082 8.57202 11.806 8.57099C11.8019 8.56913 11.7978 8.56738 11.7937 8.56573C11.7914 8.56491 11.7892 8.56408 11.7869 8.56326C11.7827 8.56181 11.7784 8.56037 11.7741 8.55913C11.7716 8.55841 11.7691 8.55779 11.7667 8.55728C11.7625 8.55625 11.7584 8.55532 11.7542 8.5546C11.7512 8.55408 11.7482 8.55367 11.7452 8.55326C11.7414 8.55274 11.7377 8.55222 11.7339 8.55181C11.7302 8.5515 11.7265 8.5514 11.7226 8.5513C11.7203 8.5513 11.7179 8.55088 11.7154 8.55088H10.9396C10.8236 8.55088 10.7296 8.64491 10.7296 8.76091V13.5616C10.7296 13.6776 10.8236 13.7717 10.9396 13.7717H11.7197C11.8357 13.7717 11.9297 13.6776 11.9297 13.5616V10.7112L14.1289 13.6812C14.144 13.7027 14.1625 13.7202 14.183 13.7341C14.1838 13.7347 14.1847 13.7353 14.1855 13.7358C14.1897 13.7387 14.1943 13.7412 14.1987 13.7438C14.2006 13.7449 14.2027 13.7461 14.2048 13.7472C14.2081 13.749 14.2115 13.7506 14.215 13.7522C14.2184 13.7537 14.2218 13.7553 14.2253 13.7566C14.2275 13.7574 14.2297 13.7582 14.232 13.7591C14.2367 13.7607 14.2416 13.7624 14.2464 13.7637C14.2474 13.764 14.2484 13.7642 14.2494 13.7645C14.2669 13.7692 14.2853 13.7719 14.3043 13.7719H15.0801C15.1961 13.7719 15.2901 13.6778 15.2901 13.5618V8.76111C15.2901 8.64512 15.1961 8.55109 15.0801 8.55109L15.0802 8.55078Z" fill="#141485"/>
</svg>
