<svg width="36" height="24" viewBox="0 0 36 24" fill="none" xmlns="http://www.w3.org/2000/svg">
<g clip-path="url(#clip0_473_25805)">
<g clip-path="url(#clip1_473_25805)">
<rect width="36" height="24" fill="#BDBDBD"/>
<g clip-path="url(#clip2_473_25805)">
<path d="M13.7444 1.57626C13.5749 1.58667 13.402 1.61442 13.3639 1.63523C13.3259 1.65604 13.0526 1.68379 12.7585 1.6942C12.2708 1.71154 11.4509 1.8052 11.4094 1.85029C11.399 1.85723 11.4128 1.87457 11.437 1.88151C11.482 1.89885 11.4959 1.99598 11.4543 1.99598C11.437 1.99945 11.2572 2.02026 11.0496 2.04454C10.6483 2.09657 10.5618 2.14167 10.6794 2.24226C10.7417 2.29429 10.8455 2.31857 11.3506 2.40876C11.693 2.4712 11.8383 2.63423 11.7034 2.8146C11.6273 2.91867 11.6411 2.95335 11.783 2.99151L11.911 3.0262L11.7657 3.05395C11.6481 3.07476 11.6169 3.09557 11.6169 3.15107C11.6169 3.21004 11.6342 3.21698 11.7345 3.19964C11.8314 3.18576 11.8522 3.18923 11.8349 3.23085C11.8245 3.2586 11.783 3.27942 11.738 3.27942C11.6896 3.27942 11.6238 3.32451 11.5685 3.39735C11.4855 3.50489 11.4786 3.54651 11.4786 3.82748C11.4786 4.17435 11.5547 4.48654 11.6446 4.51429C11.6757 4.5247 11.7691 4.56285 11.8487 4.60101C12.0494 4.7016 12.1739 4.66692 12.3192 4.4796C12.3815 4.39635 12.5302 4.22292 12.6478 4.09457L12.8623 3.8587L13.2013 3.78239C13.4469 3.72689 13.5922 3.67139 13.7271 3.5812C13.9105 3.45979 14.6889 3.1927 14.9206 3.16842C15.0175 3.15801 15.0244 3.1476 15.0348 3.01232C15.0452 2.85623 15.1178 2.77298 15.3565 2.64464C15.4395 2.59607 15.4568 2.57179 15.4257 2.55098C15.3634 2.51629 15.4049 2.34285 15.4741 2.34285C15.5537 2.34285 15.5675 2.28042 15.5087 2.17289C15.4499 2.05495 15.4568 2.04801 15.699 1.97517C15.7924 1.94742 15.9688 1.87804 16.0864 1.81907L16.3044 1.71501L16.0622 1.73582C15.9308 1.74623 15.7855 1.76357 15.744 1.77398C15.7025 1.78092 15.6575 1.76704 15.6402 1.73929C15.6263 1.71501 15.4672 1.65951 15.2908 1.61789C14.9552 1.54157 14.4848 1.53117 13.7444 1.57626Z" fill="white"/>
<path d="M10.4062 1.65306C10.1225 1.7051 9.22997 1.78835 9.17808 1.76753C9.14695 1.75366 9.06046 1.78835 8.9809 1.84385C8.88403 1.91322 8.83214 1.93056 8.82522 1.89935C8.79409 1.81263 8.74566 1.86119 8.74566 1.97566C8.74566 2.12828 8.84944 2.21153 8.99819 2.18032C9.19884 2.13869 9.06046 2.23582 8.81139 2.30866C8.59345 2.37457 8.55885 2.37803 8.51042 2.32947C8.47583 2.30172 8.38934 2.27397 8.31324 2.26703C8.18524 2.25663 8.17486 2.26357 8.15756 2.36069C8.14373 2.44741 8.12297 2.46475 8.03649 2.46475C7.96038 2.46475 7.93616 2.45088 7.94308 2.40578C7.95346 2.33988 7.93616 2.326 7.78741 2.29478C7.68709 2.2705 7.67325 2.28091 7.62136 2.37803C7.59023 2.44047 7.56947 2.49597 7.57985 2.50291C7.58677 2.51332 7.73206 2.53413 7.90157 2.55494L8.20945 2.58963L8.2821 2.49597C8.35475 2.40578 8.44815 2.40578 8.41356 2.4925C8.38588 2.56882 8.79063 2.62778 9.03279 2.58963C9.14349 2.56882 9.2784 2.56188 9.32683 2.57228C9.42715 2.5931 9.57937 2.50638 9.53094 2.45782C9.51364 2.44394 9.34759 2.43007 9.16078 2.43007C8.82522 2.43007 8.82176 2.43007 8.91517 2.36763C8.98781 2.3156 9.06392 2.30866 9.31645 2.3156C9.48942 2.31907 9.6451 2.31213 9.66931 2.29825C9.69007 2.28438 9.73158 2.28438 9.76271 2.29478C9.79039 2.30519 9.96682 2.24275 10.1536 2.15257C10.4926 1.98953 10.7694 1.89935 11.2191 1.80569C11.821 1.68428 11.8937 1.66694 11.8937 1.6496C11.8937 1.61838 10.5722 1.62185 10.4062 1.65306Z" fill="white"/>
<path d="M8.3755 1.99777C8.30631 2.02552 8.30285 2.0394 8.33399 2.11571C8.37204 2.19549 8.47928 2.25446 8.51733 2.21283C8.52771 2.20243 8.53809 2.14346 8.53809 2.07755C8.53809 1.95615 8.51041 1.94227 8.3755 1.99777Z" fill="white"/>
<path d="M7.00552 2.05097C6.95017 2.07872 6.87752 2.13422 6.83947 2.17237C6.77374 2.23828 6.77374 2.23828 6.86369 2.23828C6.97439 2.23828 7.19579 2.10647 7.17849 2.05444C7.16119 1.99547 7.1093 1.99547 7.00552 2.05097Z" fill="white"/>
<path d="M7.73203 2.02285C7.68014 2.07488 7.7182 2.10263 7.89808 2.15466C8.03992 2.19629 8.10219 2.20322 8.15754 2.172C8.2544 2.11997 8.22327 2.08529 8.03992 2.03672C7.86349 1.99163 7.76317 1.98816 7.73203 2.02285Z" fill="white"/>
<path d="M6.04732 2.2478C5.90548 2.28596 5.72905 2.32412 5.65987 2.33452C5.50074 2.35534 5.52149 2.4143 5.68754 2.4143C5.76019 2.4143 5.83284 2.44205 5.87435 2.48368C5.9124 2.52184 5.97467 2.55305 6.00926 2.55305C6.04732 2.55305 6.12342 2.5808 6.17877 2.61202C6.27909 2.67099 6.29293 2.67099 6.45206 2.61202C6.54201 2.5808 6.70806 2.55305 6.8153 2.55305C6.95713 2.55305 7.02632 2.53571 7.07129 2.49062C7.1301 2.43512 7.1301 2.43165 7.07129 2.42124C7.0367 2.4143 7.0194 2.38655 7.02978 2.3588C7.05745 2.28943 6.97097 2.29984 6.82568 2.38309C6.69768 2.4594 6.64925 2.4594 6.41401 2.36921C6.3379 2.34146 6.29639 2.31024 6.32061 2.29637C6.36212 2.26862 6.3725 2.17149 6.33444 2.17496C6.31715 2.17496 6.18915 2.20965 6.04732 2.2478Z" fill="white"/>
<path d="M27.0457 2.23757C26.9973 2.25144 26.9592 2.27919 26.9592 2.30348C26.9592 2.37979 26.8624 2.41448 26.6444 2.41448C26.423 2.41448 25.8903 2.50119 25.8003 2.55323C25.7554 2.58098 25.7554 2.58791 25.8107 2.60526C25.9387 2.65729 25.8557 2.69198 25.6031 2.69198L25.3333 2.69544L25.4544 2.79604C25.5201 2.85501 25.6135 2.9001 25.662 2.9001C25.7415 2.90357 25.7415 2.90704 25.6827 2.94173C25.6343 2.96948 25.5893 2.96601 25.4994 2.92091C25.3852 2.86541 25.1396 2.8446 25.0981 2.88623C25.06 2.92785 25.1154 3.00416 25.188 3.00416C25.2399 3.00416 25.2503 3.01457 25.2226 3.04232C25.1569 3.10823 25.0427 3.03885 24.9701 2.89663C24.932 2.82032 24.8732 2.76135 24.8421 2.76135C24.7937 2.76135 24.7971 2.77523 24.8628 2.8446C24.9286 2.91398 24.932 2.92785 24.8871 2.94519C24.8075 2.97641 24.8213 3.05273 24.9113 3.09088C24.9528 3.11169 24.9908 3.16026 24.9978 3.20188C25.0151 3.32329 25.0912 3.36491 25.2192 3.31982C25.2918 3.29207 25.3402 3.29207 25.3645 3.31635C25.399 3.35104 25.3541 3.36491 25.2572 3.35451C25.1949 3.34757 25.1673 3.41694 25.2088 3.46898C25.278 3.55223 25.1846 3.69791 25.0669 3.69791C24.9632 3.69791 24.9355 3.64935 25.022 3.61466C25.0981 3.58691 25.0877 3.41001 25.0047 3.35798C24.9666 3.33716 24.9078 3.25738 24.8698 3.18107C24.8317 3.10823 24.7764 3.03885 24.7452 3.02844C24.7175 3.01457 24.6933 2.96601 24.6933 2.91744C24.6933 2.85501 24.676 2.83073 24.6276 2.83073C24.5896 2.83073 24.5342 2.80644 24.5065 2.77523C24.4235 2.69198 24.3197 2.74401 24.292 2.88276C24.2817 2.94519 24.2471 3.00763 24.2194 3.02151C24.171 3.03885 24.171 3.04579 24.2159 3.10129C24.2436 3.13251 24.2782 3.18454 24.2886 3.21923C24.299 3.25044 24.3578 3.28513 24.4166 3.29901C24.5134 3.31982 24.5896 3.3996 24.548 3.43776C24.5411 3.44469 24.4166 3.41348 24.2747 3.36491C24.1364 3.31635 23.9323 3.26779 23.8285 3.25738C23.7247 3.24698 23.6036 3.21576 23.5621 3.19148C23.5206 3.16373 23.4618 3.14291 23.4307 3.14291C23.3338 3.14291 23.3788 3.20188 23.5206 3.25738C23.6486 3.30594 23.659 3.32329 23.6209 3.36838C23.5794 3.42041 23.569 3.41694 23.5379 3.35451C23.5068 3.29901 23.486 3.29207 23.4307 3.32329C23.3926 3.34757 23.3096 3.37532 23.2404 3.38919C23.1747 3.3996 23.0916 3.42388 23.0605 3.43776C23.0155 3.4551 22.9982 3.44469 22.9982 3.40654C22.9982 3.37532 22.974 3.35104 22.9429 3.35104C22.8564 3.35104 22.4309 3.52794 22.3894 3.57998C22.3479 3.63201 22.2303 3.64588 22.1922 3.60426C22.1784 3.59385 22.1853 3.56263 22.206 3.53488C22.2683 3.46204 22.1784 3.38573 22.0296 3.38573H21.8982L21.9812 3.54529C22.0746 3.72566 22.0677 3.76035 21.95 3.70832C21.8878 3.68057 21.8532 3.68404 21.7909 3.73607C21.7459 3.77423 21.6871 3.80198 21.6595 3.80198C21.6249 3.80198 21.6179 3.82279 21.6318 3.86788C21.6525 3.94073 21.5972 3.99969 21.5626 3.94073C21.5349 3.89563 21.2686 3.89563 21.2686 3.94073C21.2686 3.95807 21.3066 3.98235 21.355 3.99623C21.4035 4.00663 21.4415 4.03438 21.4415 4.05173C21.4415 4.09682 21.2824 4.05866 21.1475 3.97888C21.0887 3.94419 21.0437 3.89216 21.0437 3.85054C21.0437 3.81585 21.0126 3.76729 20.9745 3.74301C20.9088 3.70138 20.9088 3.70138 20.9918 3.70138C21.0402 3.70138 21.1648 3.71526 21.2686 3.72913C21.5107 3.76729 21.7183 3.69791 21.7183 3.57998C21.7183 3.5106 21.6906 3.49326 21.5211 3.45857C21.4104 3.43429 21.1509 3.36838 20.9468 3.31288C20.7393 3.25391 20.549 3.21576 20.5179 3.22616C20.4833 3.24004 20.4729 3.22963 20.4902 3.18107C20.5075 3.12557 20.4833 3.10823 20.3449 3.08048C20.2307 3.05619 20.165 3.05619 20.1373 3.08048C20.1097 3.10129 20.0301 3.10823 19.9436 3.09782C19.7776 3.07354 19.3832 3.16373 18.9957 3.30941C18.757 3.3996 18.6809 3.4551 18.7951 3.4551C18.8228 3.4551 18.847 3.46898 18.847 3.48979C18.847 3.52448 18.6706 3.69791 18.636 3.69791C18.6048 3.69791 18.4665 3.93379 18.4665 3.98235C18.4665 4.0656 18.3558 4.14885 18.2935 4.11416C18.1171 4.02051 17.74 4.29107 17.74 4.51654C17.74 4.58244 17.7607 4.64488 17.785 4.65529C17.8126 4.66569 17.8265 4.71079 17.8161 4.76976C17.8057 4.85301 17.8196 4.87382 17.9233 4.92238C18.079 4.99869 18.0755 4.99869 18.2554 4.87729C18.4284 4.75935 18.4665 4.74894 18.4665 4.82526C18.4665 4.85648 18.5045 4.93973 18.5529 5.01257C18.6429 5.14438 18.6394 5.25885 18.5529 5.25885C18.5287 5.25885 18.4838 5.26926 18.4561 5.27966C18.4146 5.29354 18.4076 5.27966 18.4215 5.2311C18.4284 5.19294 18.4215 5.15132 18.4007 5.14091C18.3834 5.12704 18.3731 5.09582 18.3869 5.06807C18.418 4.98135 18.2658 5.00563 18.1724 5.10276C18.0721 5.19988 18.0652 5.29007 18.1413 5.43923C18.207 5.57104 18.1793 5.60573 17.9787 5.63001C17.7538 5.65776 17.6431 5.72713 17.6293 5.83813C17.6224 5.91791 17.5843 5.9526 17.4356 6.02198C17.3387 6.07054 17.2453 6.13644 17.2349 6.17113C17.2245 6.20582 17.1657 6.25438 17.1069 6.27866C17.0135 6.31682 16.9824 6.31682 16.9028 6.27519C16.7956 6.22316 16.7921 6.22663 16.8371 6.34457C16.8682 6.42782 16.8682 6.43129 16.7368 6.41394C16.5846 6.39313 16.4254 6.42435 16.4254 6.47291C16.4254 6.49026 16.4981 6.54576 16.5915 6.59085C16.799 6.69491 16.889 6.86141 16.8544 7.08341C16.8406 7.18401 16.8129 7.23951 16.7714 7.25338C16.6814 7.28113 16.1383 7.26379 16.0691 7.2291C16.0276 7.20829 15.9688 7.21176 15.9031 7.24298C15.8027 7.28807 15.7993 7.29501 15.82 7.46151C15.8339 7.58638 15.8235 7.68698 15.7716 7.82573C15.7266 7.95407 15.7163 8.03385 15.737 8.07548C15.7543 8.10669 15.7681 8.17607 15.7681 8.22463C15.7681 8.31135 15.7751 8.31482 15.9031 8.29401C16.0276 8.27319 16.0414 8.28013 16.1037 8.38766C16.166 8.49519 16.1694 8.50907 16.1141 8.63048C16.0795 8.71373 15.9861 8.81085 15.8685 8.89757C15.6574 9.05019 15.5952 9.15079 15.5952 9.34851C15.5952 9.46298 15.571 9.5046 15.4222 9.64335C15.3288 9.73007 15.2216 9.80291 15.1835 9.80291C15.1455 9.80291 15.0936 9.8376 15.0728 9.87923C15.0486 9.92432 14.9794 10.018 14.9137 10.0908C14.848 10.1637 14.803 10.2469 14.8134 10.2712C14.8203 10.2955 14.7857 10.3579 14.7303 10.4099C14.6784 10.462 14.6231 10.5556 14.6127 10.6181C14.5989 10.6805 14.5677 10.7499 14.5401 10.7742C14.4743 10.8297 14.4743 10.9823 14.5366 11.0725C14.5712 11.1176 14.5747 11.1523 14.5504 11.18C14.5297 11.2078 14.5297 11.2424 14.5539 11.291C14.5747 11.3292 14.592 11.402 14.592 11.4575C14.5885 11.5859 14.4709 11.9293 14.4224 11.9466C14.3636 11.9674 14.3775 12.0472 14.4397 12.0715C14.4813 12.0888 14.4916 12.12 14.4743 12.2102C14.4467 12.3629 14.502 12.5016 14.6058 12.5398C14.7234 12.5849 14.9241 12.845 14.9759 13.0219C15.0209 13.1815 15.0659 13.2231 15.5156 13.5422L15.7647 13.7191L15.9134 13.6532C16.076 13.5804 16.422 13.5596 16.5292 13.6185C16.5811 13.6463 16.6537 13.6289 16.8544 13.5318C17.3145 13.3133 17.5601 13.3376 17.6846 13.6116L17.7434 13.7469L17.9268 13.7295C18.0617 13.7191 18.1344 13.7295 18.2035 13.7746C18.2831 13.8267 18.2935 13.8579 18.2935 14.0383C18.2935 14.1562 18.2658 14.3123 18.2278 14.4094L18.1586 14.5794L18.3523 14.8708C18.5841 15.2142 18.8262 15.783 18.7813 15.8698C18.7605 15.9044 18.7674 15.9669 18.7986 16.0432C18.8677 16.2097 18.8574 16.3484 18.757 16.5843C18.5287 17.1254 18.5391 17.2919 18.8262 17.9024C19.0027 18.2805 19.02 18.3395 19.02 18.5546C19.02 18.7592 19.0373 18.8217 19.1514 19.0402C19.4247 19.5744 19.5181 19.8276 19.4351 19.8276C19.3901 19.8276 19.5458 20.1294 19.6046 20.1571C19.6288 20.1675 19.7533 20.1502 19.8744 20.119C19.999 20.0878 20.1443 20.0739 20.2031 20.0843C20.2653 20.0947 20.3449 20.0843 20.4037 20.0531C20.4591 20.0253 20.549 20.001 20.6044 20.001C20.7081 20.001 20.8534 19.8623 21.2893 19.3558C21.5176 19.0888 21.5176 19.0888 21.5418 18.8598C21.5626 18.6725 21.5695 18.6621 21.7425 18.5511C21.8947 18.4505 21.9258 18.4123 21.9431 18.2979C21.957 18.2216 21.9466 18.0585 21.9224 17.9371L21.8774 17.7117L22.085 17.5209C22.1957 17.4168 22.3583 17.2919 22.4447 17.2468C22.6904 17.115 22.7146 17.0734 22.7422 16.7231C22.763 16.4352 22.7561 16.3762 22.6523 16.0189C22.507 15.4986 22.507 15.3911 22.6419 15.0997C22.763 14.843 23.2231 14.2845 23.4687 14.1007C23.6209 13.9862 23.9842 13.4347 24.1606 13.0497C24.3093 12.7236 24.3093 12.3455 24.164 12.4704C24.1398 12.4877 24.0257 12.5189 23.915 12.5398C23.8008 12.5571 23.6175 12.6022 23.5102 12.6404L23.313 12.7063L23.2231 12.6126C23.1712 12.5571 23.1435 12.4981 23.1539 12.4669C23.1781 12.4045 22.8737 12.0299 22.6454 11.8425C22.5312 11.7489 22.4793 11.6726 22.4447 11.5581C22.4205 11.4749 22.3652 11.3673 22.3202 11.3257C22.2614 11.2702 22.2372 11.2112 22.2372 11.121C22.2372 11.0309 22.1853 10.9025 22.0677 10.6979C21.9743 10.5348 21.8428 10.2747 21.7771 10.122C21.656 9.84454 21.656 9.84107 21.7286 9.81679C21.8186 9.78904 21.9639 9.9486 22.1714 10.2955C22.2441 10.4238 22.3202 10.5383 22.3375 10.5487C22.3583 10.5591 22.3894 10.6528 22.4101 10.7568C22.4413 10.9094 22.4793 10.9754 22.5866 11.0759C22.6592 11.1453 22.7284 11.232 22.7422 11.2737C22.7526 11.3153 22.808 11.3916 22.8599 11.4506C23.0294 11.6344 23.0778 11.794 22.9221 11.6518C22.8702 11.6032 22.8599 11.6032 22.8599 11.6483C22.8599 11.676 22.891 11.7281 22.9291 11.7628C22.9636 11.794 23.0294 11.9258 23.0709 12.0541C23.1124 12.179 23.1643 12.2935 23.185 12.3074C23.2369 12.3455 23.4237 12.3039 23.4687 12.2449C23.4895 12.2172 23.5552 12.1964 23.6175 12.1964C23.7143 12.1964 23.7835 12.1721 23.9323 12.0854C23.9599 12.068 24.081 12.009 24.1952 11.9501C24.3128 11.8946 24.4166 11.8183 24.4235 11.787C24.4339 11.7489 24.5134 11.7038 24.6345 11.6656C24.7625 11.624 24.8352 11.5824 24.849 11.5373C24.8628 11.4991 24.8905 11.4679 24.9182 11.4679C24.9943 11.4679 25.1776 11.2598 25.1776 11.1731C25.1776 11.121 25.2019 11.0864 25.2503 11.0759C25.2918 11.0655 25.3126 11.0413 25.2987 11.0204C25.2883 10.9996 25.3091 10.9372 25.3472 10.8817C25.3887 10.8262 25.4198 10.7638 25.4198 10.7429C25.4198 10.6805 25.2019 10.5001 25.1258 10.4967C24.9978 10.4932 24.9009 10.3683 24.9009 10.2053C24.9009 10.0839 24.8698 10.0908 24.7106 10.2539C24.5792 10.3891 24.3509 10.4897 24.2782 10.4446C24.2575 10.4342 24.2436 10.3787 24.2436 10.3267C24.2436 10.2747 24.2125 10.2018 24.1744 10.1671C24.1122 10.1116 24.1052 10.1116 24.0845 10.1637C24.0533 10.2434 24.0049 10.2018 23.9323 10.0319C23.8977 9.95554 23.8319 9.85148 23.7801 9.80638C23.6694 9.70232 23.659 9.54623 23.7558 9.49073C23.8908 9.41788 23.953 9.4491 24.0741 9.65029C24.1675 9.80638 24.2332 9.87229 24.3958 9.95901C24.6034 10.0735 24.6795 10.0769 24.811 9.99023C24.8801 9.94166 25.0254 9.98676 24.9874 10.0457C24.9182 10.1602 25.2883 10.2504 25.9214 10.2747L26.3365 10.292L26.4749 10.4238C26.551 10.5001 26.6686 10.5869 26.7344 10.6215C26.8001 10.6528 26.8347 10.6874 26.8139 10.6944C26.7378 10.7221 26.7655 10.7984 26.89 10.9094C26.9973 11.0031 27.0215 11.01 27.0976 10.9754C27.146 10.9545 27.1841 10.9094 27.1841 10.8748C27.1841 10.8401 27.1979 10.8054 27.2152 10.795C27.2498 10.7707 27.2879 10.8886 27.2879 11.0378C27.2879 11.2182 27.4781 11.8113 27.6995 12.3143C27.8137 12.5779 27.9244 12.8519 27.9451 12.9283C27.997 13.1156 28.1008 13.1433 28.2219 12.9942C28.3015 12.897 28.3222 12.8866 28.381 12.9248C28.4364 12.9595 28.4502 13.008 28.4502 13.1607C28.4537 13.3029 28.471 13.3653 28.5159 13.4C28.5713 13.4382 28.5886 13.4347 28.6405 13.3896C28.6751 13.3584 28.7166 13.289 28.7373 13.237C28.765 13.1503 28.7546 13.1156 28.6716 13.0011C28.5505 12.8346 28.4986 12.7964 28.4641 12.8554C28.4329 12.9074 28.3603 12.8728 28.3603 12.8034C28.3603 12.7791 28.381 12.7514 28.4087 12.7409C28.4502 12.7236 28.4571 12.6334 28.4537 12.2796L28.4468 11.8391L28.5402 11.8079C28.592 11.7905 28.6439 11.7489 28.6543 11.7142C28.6647 11.6795 28.7581 11.5824 28.8584 11.4922C28.9622 11.402 29.0591 11.2979 29.0694 11.2598C29.0833 11.2216 29.1386 11.1661 29.194 11.1384C29.2632 11.1002 29.2943 11.0586 29.2943 11.0031C29.2943 10.8852 29.3531 10.8539 29.5883 10.8505C29.7509 10.8505 29.8063 10.8331 29.8513 10.7776C29.917 10.6979 29.9585 10.7256 30.0035 10.8782C30.045 11.0239 30.1903 11.1904 30.2491 11.1661C30.2941 11.1488 30.301 11.1592 30.2802 11.2216C30.2629 11.2806 30.2802 11.3153 30.346 11.3673C30.4221 11.4298 30.4359 11.4644 30.4359 11.6275C30.4359 11.7974 30.4428 11.8148 30.5258 11.8356C30.5846 11.8529 30.6365 11.8391 30.6884 11.7905C30.8891 11.6171 30.8718 11.6067 30.9859 11.9778C31.1209 12.4184 31.1658 12.6195 31.1347 12.6646C31.1209 12.682 31.1105 12.7999 31.1105 12.9248C31.1105 13.119 31.1174 13.1503 31.1693 13.1399C31.2627 13.126 31.5083 13.5318 31.4841 13.6602C31.4599 13.785 31.6017 14.0001 31.7712 14.0903C31.8369 14.1284 31.9165 14.1909 31.9442 14.2325C32.0653 14.4198 32.1068 14.2568 31.9926 14.0348C31.9546 13.9585 31.9234 13.844 31.9234 13.7781C31.9234 13.6428 31.7366 13.3931 31.5291 13.2508C31.446 13.1919 31.4045 13.1399 31.4045 13.0809C31.4045 13.0358 31.363 12.9491 31.3146 12.8901L31.2212 12.7826L31.2765 12.5849C31.3077 12.4773 31.3388 12.349 31.3423 12.3004C31.3561 12.1755 31.4599 12.1859 31.4495 12.3108C31.4426 12.3941 31.453 12.4045 31.5152 12.3871C31.5671 12.3698 31.6225 12.401 31.7366 12.5155C31.8196 12.5953 31.8888 12.682 31.8888 12.7063C31.8888 12.7271 31.9234 12.7514 31.9684 12.7583C32.0272 12.7652 32.0445 12.793 32.0514 12.8832C32.0549 12.9491 32.0618 13.0046 32.0687 13.015C32.0964 13.0393 32.3386 12.8173 32.3386 12.7652C32.3386 12.7409 32.3766 12.7097 32.4216 12.6959C32.4665 12.6854 32.5461 12.6299 32.598 12.5779C32.6845 12.4843 32.6914 12.46 32.6741 12.29C32.6499 12.0368 32.598 11.9466 32.2867 11.6067C32.1172 11.4228 32.0272 11.2945 32.0272 11.2424C32.0272 11.1176 32.2936 10.8782 32.432 10.8782C32.5254 10.8782 32.5427 10.8921 32.553 10.9719C32.5669 11.0968 32.6845 11.128 32.6845 11.01C32.6845 10.9233 32.8263 10.8331 32.9128 10.8678C32.9405 10.8782 32.9889 10.8644 33.0235 10.8401C33.0754 10.795 33.1999 10.7325 33.3937 10.6493C33.5563 10.5799 33.7846 10.2747 33.8745 10.011C33.9818 9.69191 34.0302 9.34851 33.961 9.41094C33.8987 9.47338 33.8122 9.46644 33.8399 9.40401C33.8503 9.37626 33.8711 9.32769 33.8814 9.29994C33.8953 9.26526 33.8814 9.24791 33.8434 9.24791C33.8053 9.24791 33.7915 9.23057 33.8053 9.19588C33.8295 9.12998 33.5528 8.80391 33.3798 8.68944L33.2968 8.63741L33.4075 8.47438C33.4767 8.37379 33.5424 8.31135 33.5839 8.31135C33.622 8.31135 33.6531 8.29054 33.6531 8.26279C33.6531 8.19341 33.3867 8.17607 33.2691 8.23851C33.1861 8.28013 33.1723 8.27666 33.0892 8.19341C33.0408 8.14485 32.9751 8.10323 32.9439 8.10323C32.8575 8.10323 32.8851 8.04773 33.065 7.86041C33.2311 7.68698 33.3314 7.65923 33.2968 7.79451C33.2795 7.86388 33.3418 8.03385 33.3833 8.03385C33.3971 8.03385 33.4248 8.0061 33.4421 7.96794C33.4871 7.88469 33.622 7.85001 33.7361 7.8951C33.8088 7.92285 33.8261 7.9506 33.8261 8.04773C33.8261 8.16219 33.833 8.16566 33.9991 8.20729C34.1513 8.24198 34.172 8.25932 34.1513 8.31829C34.1374 8.36338 34.1513 8.40154 34.1928 8.42929C34.2308 8.45704 34.2516 8.51948 34.2516 8.59232C34.2516 8.77269 34.2931 8.80391 34.4419 8.74148C34.511 8.71373 34.5941 8.66516 34.6252 8.63741C34.6805 8.58538 34.6805 8.57151 34.6114 8.40848C34.556 8.27319 34.5007 8.20729 34.3415 8.09976C34.2308 8.02691 34.134 7.9506 34.1236 7.93673C34.1132 7.91938 34.1443 7.86735 34.1893 7.82573C34.2516 7.76676 34.2758 7.70779 34.2758 7.61066C34.2758 7.46498 34.383 7.31929 34.4695 7.35398C34.4972 7.36438 34.5387 7.38519 34.5664 7.3956C34.6494 7.42682 34.7878 7.26379 34.8431 7.05566C34.8743 6.94813 34.8985 6.75388 34.8985 6.62207C34.8985 6.40354 34.8847 6.35498 34.7497 6.10523C34.5283 5.69591 34.5145 5.67857 34.3484 5.60226C34.1686 5.52248 34.0821 5.51901 34.0544 5.58838C34.0233 5.67163 33.9852 5.65082 33.8987 5.5086C33.8226 5.38373 33.8226 5.38373 33.8434 5.48432C33.8641 5.58144 33.8641 5.58491 33.7984 5.52594C33.7638 5.49473 33.7085 5.46698 33.6773 5.46698C33.5874 5.46698 33.5735 5.40454 33.6462 5.31088C33.6842 5.26232 33.7258 5.16519 33.7361 5.09582C33.7846 4.82873 33.8157 4.78363 33.9887 4.75935C34.2654 4.72119 34.8639 4.73507 34.8639 4.77669C34.8639 4.80444 34.9227 4.81138 35.0576 4.79751C35.2479 4.77669 35.3344 4.74201 35.2583 4.71426C35.1303 4.66916 35.1061 4.6206 35.1476 4.48532C35.1822 4.36738 35.1995 4.35698 35.3102 4.35698C35.4001 4.35698 35.4624 4.38473 35.5454 4.46798L35.6596 4.57898L35.7426 4.49919C35.8118 4.43329 35.8221 4.40901 35.7875 4.35351C35.746 4.28413 35.7703 4.2321 35.8291 4.27026C35.8498 4.28066 35.8913 4.33616 35.919 4.39166C35.964 4.47838 35.964 4.50613 35.919 4.63448C35.8913 4.71773 35.8671 4.81138 35.8671 4.84607C35.8671 4.88076 35.8394 4.92932 35.8048 4.95013C35.746 4.98829 35.7426 5.00216 35.7875 5.13398C35.8187 5.21723 35.8948 5.32129 35.9813 5.3976C36.0608 5.46351 36.2546 5.64041 36.4137 5.78957C36.5728 5.93873 36.7147 6.04973 36.7354 6.03932C36.7804 6.0081 36.7735 5.82426 36.725 5.79304C36.6974 5.77569 36.7077 5.75488 36.7493 5.72366C36.8081 5.67857 36.8081 5.67163 36.7562 5.61266C36.6904 5.54329 36.732 5.43923 36.8046 5.48779C36.8323 5.50166 36.8115 5.46351 36.7596 5.40107C36.6524 5.27619 36.6351 5.21723 36.7147 5.24498C36.8219 5.2866 36.7631 5.19988 36.6455 5.14438C36.5797 5.11316 36.5244 5.0646 36.5244 5.03338C36.5244 5.00563 36.4829 4.97441 36.431 4.96054C36.2615 4.92585 36.2442 4.91198 36.2546 4.84954C36.2615 4.81138 36.2442 4.75935 36.22 4.7316C36.1854 4.68651 36.1923 4.67263 36.2857 4.63448C36.3722 4.59632 36.4068 4.59632 36.4621 4.63101C36.5209 4.66569 36.5417 4.66223 36.597 4.61366C36.6593 4.55816 36.6731 4.55816 36.8011 4.61019C36.8945 4.64488 36.9395 4.65182 36.9395 4.62407C36.9395 4.54429 37.1229 4.32576 37.2232 4.28413C37.3028 4.25291 37.3546 4.24944 37.4273 4.27719C37.6003 4.3431 37.576 4.25638 37.3996 4.18354C37.3097 4.14538 37.1851 4.08641 37.1229 4.05519C37.0156 3.99969 37.0156 3.99623 37.0814 3.94766C37.1229 3.91991 37.1436 3.87829 37.1332 3.84707C37.1159 3.80198 37.1402 3.79851 37.2924 3.81932C37.3927 3.83319 37.5242 3.87482 37.5864 3.90951C37.7144 3.98929 38.0465 4.04132 38.0465 3.98235C38.0465 3.96154 38.0188 3.92685 37.9877 3.90951C37.9324 3.87829 37.9324 3.86788 37.9773 3.83666C38.0638 3.77769 37.9427 3.71526 37.6591 3.66669C37.5207 3.64588 37.1125 3.54876 36.7493 3.4551C36.3895 3.36144 35.8982 3.26085 35.6596 3.22963C35.4209 3.19841 35.1995 3.16719 35.1614 3.16026C35.1095 3.14985 35.1164 3.16719 35.196 3.25044L35.2963 3.35798L35.2098 3.33716C34.857 3.26432 34.7117 3.24698 34.383 3.24698C34.0613 3.24698 34.0025 3.23657 33.9506 3.18107C33.8711 3.09435 33.7915 3.08048 33.1861 3.04232C32.8886 3.02151 32.6153 2.98682 32.5461 2.95907C32.4112 2.90357 31.4841 2.80991 31.446 2.84807C31.4322 2.85848 31.4599 2.9001 31.5083 2.93826L31.5948 3.0111L31.2731 2.98682C31.0966 2.97641 30.9306 2.95907 30.9029 2.94866C30.8649 2.93132 30.851 2.95213 30.851 3.01804C30.851 3.0666 30.8441 3.10823 30.8372 3.10823C30.7818 3.10823 30.4705 2.94519 30.4013 2.87929C30.3148 2.79951 29.9239 2.69198 29.7198 2.69198C29.6472 2.69198 29.6368 2.69891 29.6748 2.74401C29.7129 2.7891 29.6852 2.79604 29.4742 2.79604C29.3393 2.79604 29.2182 2.77869 29.2078 2.76135C29.1974 2.74054 29.0764 2.72666 28.9414 2.72666C28.7546 2.72666 28.6785 2.70932 28.6024 2.65729C28.5056 2.58791 28.4295 2.59138 28.3257 2.67463C28.2738 2.71626 28.0489 2.77523 28.0489 2.74401C28.0489 2.73707 28.1285 2.68851 28.2219 2.63648C28.3914 2.54282 28.4191 2.50466 28.3672 2.43182C28.3257 2.37285 28.0247 2.31041 27.7756 2.31041C27.5957 2.31041 27.5335 2.29654 27.5162 2.25838C27.4954 2.20288 27.2152 2.18901 27.0457 2.23757ZM20.0232 3.84707C20.0232 3.86788 19.9298 3.95113 19.8156 4.02744L19.6115 4.16619L19.615 4.36391C19.6184 4.66223 19.6634 4.69344 20.0474 4.63448C20.4902 4.56857 20.5974 4.57898 20.5109 4.68304C20.4833 4.71773 20.4037 4.7316 20.255 4.7316C20.1373 4.72813 20.0024 4.74548 19.9574 4.77323L19.871 4.81832L19.9505 4.88076C20.0093 4.92932 20.0266 4.96748 20.0093 5.03338C19.9851 5.13398 19.9471 5.14438 19.8848 5.06807C19.8606 5.04032 19.8156 5.01604 19.781 5.01604C19.6772 5.01604 19.6323 5.10623 19.6565 5.25885C19.6772 5.39066 19.6738 5.3976 19.5423 5.46698C19.4074 5.53288 19.4039 5.53288 19.359 5.47044C19.314 5.40454 19.3071 5.40801 19.1237 5.48779C18.8989 5.58491 18.8262 5.58838 18.7847 5.51554C18.757 5.46351 18.7432 5.46351 18.6429 5.51901C18.508 5.58838 18.4734 5.57104 18.5702 5.48432C18.6083 5.44963 18.6394 5.40107 18.6394 5.37679C18.6394 5.32476 18.8297 5.34557 18.9093 5.40801C18.9369 5.42882 18.9508 5.42882 18.9508 5.40454C18.9508 5.38373 18.9335 5.35598 18.9162 5.34557C18.8608 5.31088 18.9127 5.25885 19.0061 5.25885C19.0995 5.25885 19.1653 5.14091 19.1376 5.02991C19.1203 4.95013 19.1445 4.91198 19.2898 4.81138C19.3486 4.76976 19.4005 4.72466 19.4005 4.71079C19.4005 4.69691 19.3521 4.65876 19.2967 4.62754C19.0891 4.5096 19.2068 4.21476 19.5146 4.08641C19.5665 4.0656 19.6081 4.02744 19.6081 3.99969C19.6081 3.97541 19.6323 3.91991 19.6634 3.87829C19.7049 3.81932 19.7499 3.80198 19.871 3.80198C19.9713 3.80198 20.0232 3.81585 20.0232 3.84707ZM21.957 6.80244C21.9155 6.86835 21.8705 6.92385 21.8532 6.92385C21.7702 6.92385 21.8428 7.00016 22.0227 7.10076C22.2303 7.21869 22.5139 7.46498 22.5139 7.53435C22.5139 7.55516 22.4863 7.59679 22.4551 7.62454C22.3721 7.69738 21.9604 7.65576 21.7667 7.55516C21.6318 7.48579 21.6145 7.48579 21.4069 7.53435C21.2858 7.5621 21.1682 7.60026 21.144 7.62107C21.0852 7.66963 20.8742 7.62454 20.7739 7.54476C20.7116 7.49619 20.6943 7.45804 20.7081 7.37826C20.7151 7.31929 20.7358 7.27073 20.7496 7.27073C20.7669 7.27073 20.7877 7.22563 20.8015 7.17013C20.8119 7.11463 20.8465 7.05913 20.8742 7.04873C20.9019 7.03832 20.9226 7.01057 20.9226 6.98282C20.9226 6.95854 20.9572 6.90304 21.0022 6.86141C21.0644 6.80244 21.106 6.79204 21.2097 6.80938C21.3377 6.83019 21.3689 6.86488 21.3031 6.90651C21.2789 6.92038 21.3031 6.96548 21.3585 7.01751C21.4311 7.08688 21.4657 7.09729 21.5245 7.06954C21.5661 7.05219 21.6352 7.02098 21.6837 7.00016C21.7425 6.97588 21.7494 6.96201 21.7114 6.96201C21.5591 6.95507 21.6249 6.77123 21.7978 6.71919C22.0158 6.65676 22.0365 6.66716 21.957 6.80244ZM23.7731 6.73307C23.8977 6.7851 23.9288 6.85794 23.8665 6.95507C23.8492 6.97935 23.8216 6.99323 23.8008 6.97935C23.7489 6.94813 23.6555 6.99323 23.6555 7.04526C23.6555 7.06954 23.6382 7.09729 23.6175 7.10423C23.5967 7.11116 23.6659 7.19441 23.7731 7.28807C23.9046 7.40254 23.9669 7.48232 23.9669 7.53782C23.9669 7.63148 23.9945 7.63841 24.0568 7.55516C24.1018 7.49966 24.1087 7.49966 24.1744 7.57944C24.2678 7.69044 24.2609 7.72166 24.1433 7.72166C23.9911 7.72166 23.9842 7.77716 24.1156 7.90204C24.209 7.99223 24.2402 8.05466 24.254 8.17954L24.2747 8.3391L24.1087 8.36338C23.9426 8.38419 23.7939 8.34604 23.7939 8.27666C23.7939 8.25932 23.7524 8.24198 23.704 8.23504C23.5725 8.22116 23.5206 8.12404 23.5967 8.04079C23.6278 8.0061 23.6555 7.94366 23.6555 7.90551C23.6555 7.86388 23.6763 7.82573 23.7005 7.81532C23.7247 7.80838 23.6451 7.71126 23.5102 7.58638C23.3234 7.41294 23.275 7.34704 23.275 7.26726C23.275 7.20135 23.2577 7.16666 23.2231 7.16666C23.1954 7.16666 23.1712 7.13891 23.1712 7.10769C23.1712 7.04179 23.3027 6.88916 23.358 6.88916C23.3788 6.88569 23.4514 6.8406 23.5171 6.7851C23.5829 6.72613 23.6382 6.68104 23.6417 6.68104C23.6451 6.68104 23.704 6.70532 23.7731 6.73307ZM19.0684 7.24991C19.1272 7.29501 19.2725 7.38866 19.3936 7.46151C19.5908 7.57598 19.6081 7.59679 19.6081 7.70779C19.6081 7.86735 19.6876 8.01998 19.8052 8.07548C19.864 8.10323 19.909 8.16219 19.9263 8.23157C19.9436 8.29401 19.9713 8.34604 19.9851 8.34604C20.0024 8.34604 20.0405 8.35644 20.0716 8.36685C20.1097 8.38073 20.127 8.37032 20.127 8.33216C20.127 8.30441 20.165 8.25238 20.2134 8.22116C20.3241 8.14832 20.3207 8.12751 20.1961 7.99916C20.1408 7.94019 20.0924 7.87082 20.0924 7.84307C20.0924 7.78063 20.1339 7.77716 20.1892 7.83266C20.2169 7.86041 20.2446 7.85348 20.293 7.79104C20.3933 7.66616 20.4833 7.72166 20.5525 7.95754C20.6493 8.26626 20.6908 8.34604 20.7635 8.34604C20.7981 8.34604 20.888 8.38073 20.9641 8.42235C21.0921 8.49519 21.1025 8.49519 21.1336 8.43969C21.1751 8.36685 21.2686 8.36338 21.3585 8.43276C21.3931 8.46051 21.4554 8.48132 21.4934 8.48132C21.5315 8.48132 21.5937 8.46051 21.6283 8.43276C21.6664 8.40501 21.739 8.38073 21.7944 8.38073C21.8774 8.38073 21.8912 8.3946 21.8982 8.47438C21.9085 8.66863 21.8843 8.7831 21.7978 8.98082C21.6802 9.24444 21.6249 9.27913 21.3689 9.25832C21.2443 9.24444 21.1094 9.25485 21.0299 9.2826C20.9053 9.32076 20.8742 9.31382 20.4452 9.14732C20.0093 8.97388 19.9886 8.97041 19.8744 9.01551C19.7153 9.08488 19.6323 9.19935 19.6842 9.29301C19.7395 9.40054 19.5908 9.47338 19.5077 9.37279C19.487 9.34851 19.397 9.31729 19.3071 9.30688C19.2068 9.29648 19.1272 9.26526 19.0926 9.22363C18.9957 9.10223 18.8228 9.0051 18.7017 9.0051C18.629 9.00163 18.5495 8.96694 18.4734 8.90451C18.3627 8.81085 18.3627 8.80738 18.4111 8.68944C18.4734 8.54029 18.4215 8.32869 18.3108 8.29401C18.2174 8.26279 17.996 8.27319 17.8265 8.31829C17.7504 8.33563 17.5428 8.36685 17.3664 8.38419C17.0274 8.41541 16.9478 8.44316 16.806 8.57151C16.7264 8.64435 16.6953 8.65129 16.4842 8.63394C16.2698 8.6166 16.249 8.60619 16.2594 8.54029C16.2698 8.46051 16.377 8.39807 16.588 8.34604C16.7437 8.30788 17.0343 8.0616 16.9962 7.99916C16.9547 7.92979 17.1311 7.68004 17.273 7.61066C17.4321 7.52741 17.4702 7.48579 17.4425 7.40254C17.4148 7.31235 17.5843 7.25338 17.7365 7.30194C17.8403 7.33316 17.8714 7.32623 18.0029 7.23604C18.2035 7.09382 18.2762 7.10076 18.3592 7.26726C18.4422 7.42682 18.5945 7.5621 18.802 7.65923C18.9404 7.72513 19.1237 7.89857 19.1237 7.96101C19.1237 7.97835 19.0926 8.03038 19.0511 8.07894C18.9888 8.15873 18.9646 8.16913 18.8332 8.15179C18.6014 8.1171 18.6014 8.19341 18.8332 8.29401C18.9404 8.34257 19.0338 8.38073 19.0407 8.38073C19.0476 8.38073 19.0546 8.33216 19.0546 8.27666C19.0546 8.20035 19.0718 8.1726 19.1168 8.1726C19.1514 8.1726 19.2068 8.12751 19.2379 8.06854C19.2863 7.98529 19.2932 7.9506 19.2621 7.89163C19.2033 7.78757 19.2656 7.73207 19.3832 7.7841C19.4558 7.81879 19.4697 7.81532 19.4697 7.77023C19.4697 7.74248 19.397 7.68698 19.3071 7.64882C19.2137 7.61066 19.1272 7.55516 19.1134 7.52741C19.0995 7.49966 19.058 7.47885 19.0234 7.47885C18.9611 7.47885 18.8401 7.36091 18.7155 7.17707C18.6256 7.04873 18.6221 7.00016 18.6948 6.92038C18.7501 6.85794 18.757 6.86488 18.8574 7.01404C18.9127 7.10076 19.0096 7.20482 19.0684 7.24991Z" fill="white"/>
<path d="M5.05791 2.61542C5.03715 2.6293 5.01294 2.66398 5.00256 2.6952C4.98872 2.72642 4.87802 2.78886 4.75694 2.83395L4.52863 2.9172L4.59435 3.00392C4.65316 3.0837 4.66354 3.0837 4.83651 3.04555C4.93683 3.02127 5.05445 2.9727 5.10288 2.93455C5.24472 2.82355 5.25509 2.8513 5.14785 3.05248C5.08904 3.15655 5.04407 3.2502 5.04407 3.26408C5.04407 3.27448 5.0925 3.30223 5.14785 3.31958C5.20666 3.34039 5.25164 3.37855 5.25164 3.4063C5.25164 3.46873 5.3312 3.46873 5.45228 3.4063C5.63563 3.31611 6.10956 3.28142 6.3448 3.34733C6.43128 3.37161 6.47625 3.3612 6.56274 3.30917C6.68728 3.22939 6.68728 3.23286 6.61463 3.1288C6.58004 3.0733 6.57312 3.03861 6.59733 3.02127C6.61809 3.01086 6.63539 2.93802 6.63539 2.85823C6.63539 2.72642 6.63193 2.71948 6.54544 2.7403C6.49701 2.75417 6.4209 2.8062 6.37593 2.85823C6.29983 2.94495 6.29291 2.94842 6.23064 2.89292C6.19604 2.8617 6.0888 2.82355 5.99194 2.81314C5.84665 2.79233 5.80514 2.77152 5.7567 2.68827C5.69789 2.59114 5.69098 2.58767 5.39693 2.58767C5.23088 2.58767 5.07867 2.60155 5.05791 2.61542Z" fill="white"/>
<path d="M7.21311 2.68128C7.19927 2.69168 7.18889 2.73331 7.18889 2.768C7.18889 2.83737 7.15084 2.84778 7.09549 2.79228C7.07473 2.77147 7.04014 2.76453 7.01938 2.7784C6.99517 2.79228 7.01938 2.83737 7.08511 2.90328C7.19581 3.01775 7.23387 3.01775 7.4691 2.89634C7.55213 2.85472 7.60056 2.80268 7.61094 2.74372C7.62823 2.66047 7.62477 2.657 7.43105 2.657C7.32381 2.657 7.22349 2.6674 7.21311 2.68128Z" fill="white"/>
<path d="M7.76316 2.75994C7.71819 2.8189 7.57982 2.9299 7.4622 3.00622C7.34458 3.086 7.2408 3.17965 7.23042 3.21781C7.21658 3.27331 7.19237 3.28372 7.10242 3.26637C6.95367 3.23862 6.73919 3.32881 6.73919 3.419C6.73919 3.48143 6.71497 3.48837 6.52471 3.49184C6.19952 3.49878 6.14072 3.48837 6.06115 3.41553C5.99542 3.35309 5.97467 3.34962 5.82591 3.39125C5.73943 3.41553 5.66678 3.45368 5.66678 3.47797C5.66678 3.51265 5.5803 3.52306 5.31393 3.51959C5.03026 3.51959 4.97491 3.50918 5.03718 3.48143C5.18593 3.40859 5.15825 3.39125 4.6601 3.28025C4.5494 3.25597 4.42141 3.24556 4.37298 3.25943C4.30725 3.27678 4.28303 3.26984 4.28303 3.22822C4.28303 3.18659 4.26573 3.18312 4.18963 3.21434C4.11352 3.24209 4.08585 3.23862 4.05125 3.19006C4.02358 3.1519 3.98898 3.1415 3.94747 3.15884C3.80218 3.21781 3.35938 3.29759 3.27981 3.28025C3.23138 3.26984 3.13798 3.28025 3.07225 3.30453C2.9062 3.3635 2.77474 3.36003 2.67096 3.29412C2.61561 3.25597 2.45994 3.22822 2.21433 3.2074C1.73693 3.17272 1.30105 3.0964 1.22148 3.03743C1.17651 3.00275 0.685282 3.10681 0.270157 3.23862C0.0902693 3.29759 -0.113834 3.35309 -0.179562 3.36697C-0.404421 3.40859 -0.425178 3.42247 -0.404421 3.49184C-0.394043 3.52653 -0.376746 3.58897 -0.366368 3.62712C-0.352531 3.68609 -0.362909 3.6965 -0.452853 3.6965C-0.511662 3.6965 -0.560093 3.68262 -0.560093 3.66528C-0.560093 3.64793 -0.68809 3.66528 -0.843762 3.71037C-1.0617 3.76934 -1.13089 3.80403 -1.15165 3.863C-1.17586 3.92543 -1.16548 3.94278 -1.0963 3.96012C-1.04787 3.97053 -0.947543 3.974 -0.871437 3.96706C-0.764196 3.95665 -0.736521 3.96706 -0.750359 4.00175C-0.760737 4.0295 -0.767656 4.06072 -0.767656 4.07806C-0.767656 4.09193 -0.840303 4.11275 -0.930246 4.12315C-1.37305 4.16825 -1.7259 4.3174 -1.85044 4.50818C-1.94384 4.6504 -1.92655 4.7059 -1.80201 4.67815L-1.69477 4.65734L-1.75358 4.751C-1.80893 4.83078 -1.80893 4.84118 -1.75704 4.82037C-1.68785 4.79262 -1.45953 4.83425 -1.45953 4.8724C-1.45953 4.90015 -2.80869 5.43087 -2.88479 5.43087C-2.90901 5.43434 -2.96782 5.45515 -3.01625 5.4829C-3.10273 5.53147 -3.10273 5.53147 -2.98166 5.51412C-2.56999 5.44822 -1.86428 5.24356 -1.61866 5.11868C-1.46991 5.04237 -1.31078 4.97993 -1.26927 4.97993C-1.16202 4.97993 -0.864518 4.88281 -0.788412 4.82384C-0.733062 4.78222 -0.729603 4.76487 -0.767656 4.71978C-0.805709 4.67468 -0.79879 4.66775 -0.719224 4.66775C-0.670793 4.66775 -0.549715 4.63653 -0.449393 4.59837C-0.352531 4.56022 -0.266046 4.53593 -0.259128 4.54287C-0.252209 4.54981 -0.311018 4.5949 -0.387125 4.64693C-0.463231 4.6955 -0.5255 4.74406 -0.5255 4.751C-0.5255 4.77528 -0.0826995 4.66775 0.0833504 4.60531C0.2494 4.5394 0.259778 4.5394 0.373938 4.59837C0.439666 4.63306 0.574582 4.67122 0.674904 4.68509C0.930897 4.71978 0.975869 4.79956 0.951653 5.16031L0.934357 5.43087H1.05198C1.16268 5.43087 1.16613 5.43434 1.13154 5.52453C1.10733 5.5835 1.10387 5.71531 1.1177 5.861L1.13846 6.10034L1.05198 6.07606C0.91706 6.04137 0.920519 6.15584 1.05889 6.305C1.1523 6.40212 1.17305 6.44375 1.14192 6.47844C1.12462 6.50272 1.07273 6.61025 1.03122 6.71431C0.989707 6.81837 0.872088 6.99875 0.771766 7.11669C0.667985 7.23115 0.574582 7.37337 0.560744 7.42887C0.546907 7.48437 0.498476 7.58497 0.446585 7.65087C0.342803 7.79309 0.335885 7.88675 0.384316 8.35503L0.422369 8.69844L0.567663 8.79903C0.733713 8.9135 0.740632 8.92737 0.775225 9.26384C0.789063 9.39565 0.820197 9.55522 0.847872 9.62112C0.892844 9.72865 0.889385 9.74253 0.837494 9.78415C0.785604 9.82231 0.785604 9.83619 0.827116 9.89515C0.854791 9.93331 0.923979 10.0062 0.982788 10.0547C1.06581 10.1241 1.08657 10.1692 1.07619 10.2316C1.06235 10.2941 1.09003 10.3565 1.16613 10.4502C1.22494 10.523 1.27338 10.5993 1.27338 10.6236C1.27338 10.6479 1.29067 10.6687 1.30797 10.6687C1.38062 10.6687 1.38408 10.5542 1.31835 10.412C1.28029 10.3357 1.23878 10.2212 1.22494 10.1588C1.21111 10.0998 1.14884 9.91597 1.08311 9.75294C0.996625 9.53094 0.97241 9.4234 0.986248 9.33322C0.996625 9.26731 1.01046 9.21181 1.01738 9.21181C1.02084 9.21181 1.06581 9.22569 1.11079 9.24303C1.17997 9.27078 1.19727 9.30547 1.21457 9.45809C1.23186 9.58297 1.27338 9.69744 1.35986 9.82578C1.43251 9.93331 1.48094 10.0512 1.48094 10.1137C1.48094 10.1935 1.53283 10.2802 1.6885 10.464C1.85801 10.6617 1.89606 10.7277 1.89606 10.8282C1.89606 10.8942 1.88223 10.9774 1.86493 11.0086C1.84763 11.0398 1.84763 11.0988 1.86147 11.1404C1.89606 11.2272 2.20741 11.4665 2.28697 11.4665C2.31811 11.4665 2.35616 11.4873 2.37 11.5151C2.41151 11.5844 2.8889 11.8168 2.99614 11.8203C3.04803 11.8203 3.14836 11.8099 3.221 11.796C3.34554 11.7717 3.35938 11.7752 3.51851 11.9417C3.6811 12.1117 3.71915 12.129 4.13774 12.24C4.24152 12.2678 4.28995 12.3025 4.30379 12.358C4.31417 12.3996 4.35222 12.4586 4.39027 12.4932C4.42487 12.5245 4.456 12.5904 4.456 12.6355C4.456 12.743 4.80886 13.076 4.93339 13.0864C4.98182 13.0899 5.05447 13.128 5.09944 13.1697C5.19285 13.2598 5.30355 13.2356 5.27587 13.1315C5.25512 13.0517 5.36582 12.9407 5.44192 12.9719C5.4696 12.9823 5.50419 13.0205 5.51457 13.0517C5.52495 13.0864 5.55608 13.1558 5.58376 13.2078C5.64257 13.3188 5.64948 13.7975 5.59068 13.905C5.56992 13.9467 5.52495 14.0022 5.48689 14.0264C5.4523 14.0507 5.42463 14.1027 5.42463 14.1409C5.42463 14.1791 5.39003 14.2242 5.34852 14.245C5.23782 14.2935 5.09944 14.6543 5.14442 14.7722C5.16171 14.8208 5.19631 14.8693 5.2136 14.8832C5.23782 14.8971 5.22052 14.9457 5.16171 15.022C5.07869 15.1295 5.07869 15.1468 5.11674 15.2891C5.14096 15.3723 5.20323 15.4833 5.25512 15.5423C5.30701 15.5978 5.39003 15.7331 5.44192 15.8371C5.49381 15.9412 5.5803 16.0903 5.63219 16.1667C5.68408 16.243 5.79824 16.4476 5.88472 16.6245C6.04385 16.9402 6.04731 16.9437 6.41747 17.2073C6.62157 17.3564 6.798 17.4813 6.80146 17.4882C6.80838 17.4917 6.84297 17.6652 6.88102 17.8733C6.92253 18.13 6.94329 18.4213 6.94675 18.796C6.94675 19.1983 6.96059 19.3961 7.00556 19.5522C7.05399 19.7325 7.05745 19.8192 7.02632 20.2008C6.99518 20.5928 6.99864 20.6552 7.05053 20.7627C7.08167 20.8287 7.11972 20.9709 7.13356 21.0749C7.16469 21.3559 7.22004 21.5259 7.27885 21.5259C7.31344 21.5259 7.32382 21.5016 7.30653 21.4392C7.29269 21.3906 7.29961 21.3524 7.32036 21.3524C7.34112 21.3524 7.37225 21.4322 7.39301 21.5259C7.44144 21.7479 7.44144 21.7444 7.38263 21.7236C7.30998 21.6958 7.23734 21.7895 7.28577 21.8485C7.30998 21.8762 7.3169 21.9491 7.30307 22.0219C7.28923 22.1225 7.29615 22.1502 7.3342 22.1502C7.42068 22.1502 7.47603 22.2404 7.43452 22.3167C7.40685 22.3722 7.43452 22.4347 7.59019 22.6636C7.69743 22.8197 7.88078 23.0348 7.9984 23.1492C8.2025 23.3366 8.23364 23.3574 8.55536 23.4406L8.89438 23.5273L9.012 23.4614C9.07427 23.4233 9.12616 23.3817 9.12616 23.3678C9.12616 23.3539 9.03967 23.3157 8.93935 23.2811C8.79406 23.2394 8.71449 23.1839 8.60379 23.0591C8.4239 22.8544 8.39277 22.7746 8.45504 22.7018C8.48271 22.6706 8.49655 22.622 8.48271 22.5908C8.47233 22.5596 8.49655 22.4763 8.54152 22.4035C8.59341 22.3202 8.60725 22.2717 8.57958 22.2612C8.55882 22.2543 8.50347 22.2196 8.45504 22.1815C8.35126 22.0982 8.32704 21.8866 8.41698 21.8519C8.45158 21.8381 8.46887 21.7826 8.46887 21.6993C8.46887 21.6265 8.49309 21.5502 8.52077 21.5259C8.59341 21.4669 8.58649 21.4218 8.50693 21.4218C8.43774 21.4218 8.3305 21.3004 8.3305 21.2241C8.3305 21.1963 8.37547 21.1825 8.45158 21.1859C8.60033 21.1929 8.68682 21.1235 8.6626 21.0194C8.62801 20.8911 8.67298 20.8321 8.79752 20.8321C9.01892 20.8321 9.12616 20.7905 9.17805 20.6899C9.25415 20.5442 9.24378 20.3569 9.16075 20.3118C9.1227 20.291 9.08118 20.2355 9.07081 20.1904C9.06043 20.1418 9.02583 20.1037 8.9947 20.1037C8.95319 20.1037 8.94973 20.0933 8.98086 20.0621C9.012 20.0308 9.03621 20.0378 9.0881 20.0829C9.12616 20.1176 9.21956 20.1522 9.29912 20.1627C9.41328 20.18 9.4548 20.1696 9.52398 20.1037C9.61047 20.0204 9.78344 19.6319 9.78344 19.514C9.78344 19.4689 9.80765 19.4446 9.84917 19.4446C9.9737 19.4446 10.0775 19.2157 10.0844 18.9243C10.0879 18.7821 10.0913 18.6537 10.0913 18.6433C10.0982 18.5948 10.586 18.2965 10.7486 18.241C11.0254 18.1542 11.1395 17.9773 11.2191 17.5229C11.2537 17.3287 11.2848 17.0547 11.2883 16.909C11.2952 16.6557 11.3021 16.6349 11.4509 16.4233C11.5373 16.3019 11.6653 16.0799 11.7311 15.9308C11.8556 15.6637 11.8556 15.6637 11.8003 15.5076C11.7587 15.3827 11.7241 15.3376 11.6307 15.2995C11.565 15.2717 11.4197 15.1677 11.309 15.0705L11.1084 14.8867L10.8178 14.8797C10.6587 14.8728 10.4995 14.8659 10.4684 14.8659C10.4303 14.8624 10.4061 14.8347 10.4061 14.7861C10.4027 14.7271 10.3577 14.689 10.1916 14.6127C10.0014 14.5259 9.9737 14.5225 9.92181 14.571C9.84225 14.6439 9.81803 14.6369 9.81803 14.5433C9.81803 14.4947 9.77998 14.4462 9.71425 14.408C9.62777 14.3594 9.61393 14.3317 9.63123 14.2623C9.64506 14.2033 9.63123 14.1652 9.58279 14.1305C9.54474 14.1062 9.50323 14.023 9.48939 13.9467C9.4548 13.7663 9.44788 13.7524 9.27145 13.6032C9.13999 13.4957 9.09502 13.4784 8.94281 13.4784C8.71795 13.4784 8.41698 13.3292 8.36855 13.2009C8.35126 13.1488 8.28207 13.0864 8.2025 13.0448C8.1264 13.0066 8.05029 12.9477 8.03299 12.906C8.0157 12.8679 7.96035 12.8158 7.90846 12.7916C7.80468 12.743 7.78738 12.6979 7.85657 12.6667C7.87732 12.6563 7.82197 12.6563 7.72511 12.6667C7.63171 12.6771 7.54176 12.7014 7.53138 12.7187C7.52101 12.7395 7.45874 12.7291 7.38609 12.6979C7.3169 12.6702 7.2062 12.6459 7.13702 12.6459C6.99172 12.6459 6.82567 12.5696 6.79454 12.4863C6.77724 12.4377 6.75303 12.4516 6.6527 12.5626C6.58698 12.6355 6.53508 12.7361 6.53162 12.7812C6.53162 12.8505 6.52471 12.8575 6.47973 12.8193C6.44168 12.7881 6.43476 12.7638 6.46244 12.7361C6.47973 12.7187 6.49703 12.6597 6.49703 12.6042C6.49703 12.5522 6.52125 12.4967 6.54892 12.4828C6.5766 12.4655 6.58698 12.4343 6.57314 12.4135C6.55238 12.3822 6.50395 12.3996 6.39325 12.4724C6.31023 12.5279 6.19261 12.5834 6.1338 12.5973C6.01964 12.6216 5.94699 12.6979 5.94353 12.7916C5.94353 12.8262 5.89856 12.9026 5.84667 12.965L5.74635 13.0725L5.62181 12.9719C5.52149 12.8956 5.46614 12.8748 5.36582 12.8852C5.29317 12.8887 5.20669 12.9095 5.16863 12.9303C5.0268 13.0066 4.80194 12.7638 4.80194 12.5383C4.80194 12.4724 4.82615 12.3129 4.86075 12.1811L4.9161 11.9452L4.83307 11.8793C4.76734 11.8272 4.68778 11.8134 4.44908 11.8134H4.14812L4.23806 11.5948C4.28649 11.4769 4.35568 11.2931 4.39373 11.189C4.43524 11.0849 4.48022 10.9809 4.49405 10.9601C4.51481 10.9323 4.47676 10.915 4.36606 10.8976C4.14812 10.8699 4.02704 10.9358 3.96477 11.1266C3.91634 11.2722 3.90942 11.2757 3.6638 11.3416C3.37322 11.4179 3.29365 11.3937 3.16565 11.1925C3.01344 10.9497 3.00306 10.8248 3.11376 10.4987C3.16565 10.3357 3.21063 10.1484 3.21063 10.0755C3.21063 9.95412 3.22446 9.94025 3.53235 9.73559C3.79526 9.56215 3.87828 9.524 3.9959 9.524C4.07547 9.524 4.15158 9.53787 4.16195 9.55869C4.20001 9.61765 4.328 9.59684 4.41103 9.51706C4.51481 9.41994 4.92993 9.39219 4.96453 9.4789C4.97837 9.51706 5.01642 9.524 5.09598 9.51012C5.18247 9.49278 5.22052 9.50665 5.28625 9.57603C5.35544 9.65234 5.36582 9.68009 5.33468 9.75987C5.29317 9.86394 5.32776 10.0408 5.41425 10.1692C5.55262 10.3842 5.64948 10.1518 5.61489 9.68356L5.59413 9.3679L5.76018 9.18753C5.85013 9.08694 6.03693 8.93778 6.16839 8.85106C6.30331 8.76434 6.46936 8.636 6.542 8.56315C6.6527 8.45215 6.67 8.414 6.65616 8.31687C6.64578 8.23709 6.6527 8.20587 6.69076 8.20587C6.71843 8.20587 6.76686 8.15384 6.798 8.08794C6.82913 8.02203 6.87064 7.97694 6.89486 7.98387C6.91908 7.99428 6.9848 7.94225 7.04361 7.8694C7.11972 7.76881 7.19928 7.72025 7.33766 7.67515C7.43798 7.64394 7.54868 7.61619 7.57636 7.61619C7.649 7.61619 7.72165 7.526 7.67668 7.49478C7.62133 7.46356 7.777 7.24156 7.88078 7.2034C7.92921 7.18606 8.09872 7.12362 8.26131 7.06465C8.54844 6.96059 8.5519 6.96059 8.45504 7.04037C8.32012 7.15137 8.35126 7.24503 8.50347 7.19994C8.56574 7.18259 8.63147 7.15137 8.65568 7.13403C8.67644 7.11669 8.76638 7.082 8.85633 7.06119C8.94627 7.0369 9.04313 6.98834 9.07773 6.95365C9.10886 6.91897 9.16421 6.88775 9.20226 6.88775C9.24723 6.88775 9.26453 6.86347 9.26453 6.80103C9.26453 6.749 9.24378 6.71431 9.2161 6.71431C9.18843 6.71431 9.13653 6.75247 9.09848 6.80103C9.00508 6.91897 8.80443 6.92244 8.72833 6.80797C8.6799 6.73165 8.68336 6.71431 8.76638 6.56169C8.84249 6.42294 8.84941 6.38825 8.81135 6.36397C8.73179 6.31194 8.65222 6.32928 8.40661 6.43681L8.17483 6.54087L8.29591 6.43681C8.36163 6.37784 8.43774 6.33275 8.46542 6.33275C8.49309 6.33275 8.54498 6.305 8.58303 6.27031C8.63492 6.22175 8.73871 6.20787 9.1054 6.19053C9.52744 6.17319 9.57242 6.16278 9.77652 6.06219C9.89414 5.99975 9.991 5.96159 9.991 5.97894C9.991 5.99281 9.87338 6.12115 9.73155 6.26337C9.58971 6.40559 9.47209 6.53394 9.47209 6.54781C9.47209 6.56515 9.57242 6.57556 9.69349 6.57556C9.81803 6.57556 9.92873 6.5929 9.93911 6.61372C9.95295 6.63453 9.98408 6.64147 10.0118 6.63106C10.036 6.62065 10.074 6.638 10.0913 6.66922C10.119 6.72125 10.1294 6.72125 10.2124 6.66922C10.285 6.62065 10.2954 6.59637 10.2677 6.527C10.2505 6.4819 10.247 6.41253 10.2574 6.3709C10.2712 6.30847 10.2608 6.29806 10.1778 6.29806C10.0533 6.29806 9.96678 6.15237 10.0464 6.08647C10.074 6.06565 10.0844 6.03444 10.074 6.01709C10.0636 5.99975 10.0879 5.94078 10.1259 5.88528C10.1951 5.79162 10.1951 5.77775 10.1432 5.62512C10.1121 5.53493 10.0567 5.44822 10.0118 5.4274C9.9737 5.40659 9.8976 5.34762 9.84571 5.29906C9.77306 5.23315 9.75922 5.19847 9.7869 5.1499C9.82149 5.08053 9.75922 4.59837 9.71079 4.59837C9.69695 4.59837 9.6416 4.63653 9.58625 4.68162C9.53436 4.72672 9.42366 4.79609 9.34756 4.83425C9.20572 4.90709 9.20226 4.90709 9.13307 4.84118C9.05351 4.76834 9.06389 4.64347 9.15383 4.57409C9.1988 4.53593 9.19188 4.52553 9.11578 4.49778C9.06389 4.47697 8.9774 4.41106 8.92205 4.34862C8.84941 4.26884 8.80789 4.24456 8.78368 4.27231C8.75946 4.29312 8.66952 4.30006 8.5519 4.28618C8.36163 4.26537 8.35818 4.26537 8.27515 4.38678C8.23018 4.45615 8.19213 4.53593 8.19213 4.56368C8.19213 4.5949 8.12986 4.68162 8.05375 4.75447C7.93959 4.86547 7.92575 4.89668 7.96727 4.92097C8.02953 4.95565 8.03299 5.01462 7.9811 5.12909C7.93959 5.21928 7.63171 5.417 7.50025 5.43781C7.4276 5.44822 7.40685 5.47597 7.36533 5.65981C7.32382 5.84365 7.30307 5.87834 7.18891 5.94425L7.05745 6.01709L7.03669 5.93731C7.02632 5.89222 7.00556 5.82978 6.99518 5.79856C6.98134 5.75694 6.98826 5.74653 7.02632 5.76387C7.05399 5.77428 7.08858 5.76734 7.10242 5.74653C7.1128 5.72572 7.09896 5.70837 7.07129 5.70837C6.99864 5.70837 7.0021 5.64594 7.08512 5.50718L7.15431 5.39618H7.04015C6.98134 5.39272 6.86718 5.36497 6.79108 5.32681C6.71497 5.28865 6.63195 5.2609 6.61119 5.25743C6.58698 5.25743 6.56622 5.24356 6.56622 5.22275C6.56622 5.16378 6.39325 5.07359 6.28601 5.07706C6.19261 5.08053 6.18569 5.07012 6.18569 4.94178C6.18569 4.83772 6.17185 4.8065 6.12688 4.8065C5.99888 4.8065 6.31714 4.55328 6.67346 4.3729C6.8741 4.27231 7.05745 4.16478 7.08167 4.13356C7.10934 4.10234 7.15777 4.07806 7.18891 4.07806C7.27885 4.07806 7.56944 3.94972 7.69743 3.84912C7.75624 3.80403 7.81851 3.76587 7.83235 3.76587C7.87732 3.76587 7.62825 4.01215 7.55214 4.04337C7.49679 4.06765 7.49333 4.07459 7.54176 4.07459C7.5729 4.07806 7.60403 4.10234 7.61095 4.13009C7.62133 4.17518 7.64209 4.17172 7.75624 4.10928C7.86694 4.05031 7.90846 4.04337 7.97418 4.07459C8.08834 4.12662 8.19213 4.12315 8.19213 4.06418C8.19213 4.0399 8.12294 3.96012 8.03645 3.89075C7.86348 3.74853 7.83235 3.67568 7.96727 3.73812C8.03299 3.76934 8.06413 3.76934 8.09526 3.73812C8.11948 3.71384 8.16791 3.6965 8.20942 3.6965C8.30282 3.6965 8.50347 3.57162 8.50347 3.51265C8.50347 3.4849 8.5346 3.43634 8.57266 3.40165C8.62109 3.35656 8.63147 3.32534 8.60725 3.30106C8.5346 3.22822 8.57958 3.21087 8.85978 3.21087C9.0881 3.21434 9.15729 3.22475 9.22302 3.28025C9.31988 3.3635 9.29567 3.419 9.16075 3.419C9.05697 3.419 8.93935 3.50572 8.97048 3.56122C9.00508 3.61325 9.13653 3.5959 9.20918 3.52653C9.31642 3.42593 9.41674 3.419 9.43058 3.51265C9.44096 3.57509 9.40983 3.60631 9.28529 3.66875C9.17805 3.72078 9.12616 3.76587 9.12616 3.81097C9.12616 3.8734 9.10886 3.87687 8.91859 3.85953C8.756 3.84565 8.69373 3.85259 8.63838 3.90115C8.57612 3.95318 8.57266 3.96359 8.61763 4.00175C8.65914 4.03643 8.69719 4.03297 8.81135 3.98787C8.94973 3.93237 8.96011 3.93237 9.02583 3.99481C9.06735 4.03297 9.11924 4.10234 9.14345 4.1509C9.18151 4.22028 9.24723 4.25497 9.43404 4.31047C9.70387 4.39025 9.73847 4.36943 9.60701 4.20293C9.51707 4.08847 9.56896 4.08847 9.73847 4.19947C9.863 4.28618 9.86646 4.28618 9.89068 4.22028C9.90452 4.18559 9.94603 4.13703 9.97716 4.11968C10.0429 4.085 10.0429 4.08153 9.86992 3.84912C9.84571 3.81443 9.85608 3.78322 9.8976 3.74159C9.95641 3.68262 9.96333 3.68262 10.0533 3.79362C10.1536 3.91156 10.247 3.93931 10.2816 3.85259C10.292 3.82484 10.3335 3.80056 10.3715 3.80056C10.413 3.80056 10.4753 3.77281 10.5134 3.73465C10.5826 3.67222 10.5826 3.67222 10.4546 3.56122C10.375 3.49184 10.3023 3.45368 10.2643 3.46409C10.1674 3.48837 10.1086 3.39818 10.1778 3.33228C10.2089 3.30106 10.2332 3.25597 10.2332 3.23168C10.2332 3.17272 10.119 3.07212 10.0533 3.07212C10.0221 3.07212 9.991 3.04784 9.97716 3.02009C9.96678 2.99234 9.92181 2.96806 9.87338 2.96806C9.82149 2.96806 9.75576 2.92643 9.69349 2.85706C9.60701 2.74953 9.58279 2.74259 9.31988 2.72178C9.01892 2.6975 8.7906 2.74259 8.67298 2.85012C8.61763 2.90215 8.60725 2.90215 8.60725 2.85706C8.60725 2.82584 8.64184 2.77728 8.68682 2.74953C8.75946 2.69403 8.76292 2.69403 8.69028 2.69403C8.56228 2.69056 8.31666 2.79462 8.18521 2.90909C8.08143 3.00275 8.06413 3.03397 8.0918 3.0964C8.11256 3.15537 8.14715 3.17618 8.23018 3.17618C8.3132 3.17618 8.33396 3.18659 8.31666 3.23168C8.30628 3.2629 8.29591 3.29065 8.29591 3.29759C8.29591 3.32187 7.95689 3.55081 7.8877 3.57162C7.7943 3.60284 7.78046 3.50918 7.86694 3.46062C7.94305 3.419 7.91537 3.30106 7.82197 3.28718C7.76316 3.27678 7.74587 3.24903 7.73549 3.11375C7.71473 2.91256 7.74241 2.8744 7.92575 2.84665C8.00532 2.83278 8.13332 2.78422 8.20942 2.73912L8.3478 2.65587H8.09872C7.86694 2.65587 7.84619 2.66281 7.76316 2.75994Z" fill="white"/>
<path d="M14.6127 3.76427L14.5159 3.83018L14.592 3.8718C14.6335 3.89261 14.6888 3.90302 14.7165 3.89261C14.7476 3.88221 14.7649 3.89608 14.7649 3.93771C14.7649 3.9724 14.803 4.02096 14.8514 4.04524C14.8999 4.06952 14.9379 4.10768 14.9379 4.12502C14.9379 4.16318 15.1662 4.12849 15.4188 4.05218C15.6402 3.9828 15.7197 3.8718 15.609 3.78508C15.5744 3.75733 15.5053 3.73999 15.4568 3.7504C15.1351 3.8059 14.8999 3.80936 14.8168 3.75386C14.7131 3.68796 14.7338 3.68449 14.6127 3.76427Z" fill="white"/>
<path d="M16.7714 4.82543C16.7472 4.85665 16.7056 4.87399 16.678 4.86359C16.6503 4.85318 16.5811 4.87746 16.5223 4.92255C16.3943 5.01621 16.339 5.14455 16.3943 5.21046C16.4254 5.24862 16.422 5.25902 16.3874 5.25902C16.3563 5.26249 16.3666 5.28677 16.4185 5.32493C16.46 5.36309 16.4946 5.40818 16.4946 5.42899C16.4946 5.4498 16.5327 5.46715 16.5777 5.46715C16.6399 5.46715 16.6711 5.4949 16.6953 5.56774C16.7299 5.6614 16.7229 5.66834 16.6295 5.68915C16.5361 5.70649 16.4842 5.77934 16.5638 5.77934C16.633 5.77934 16.5949 5.84177 16.5119 5.86259C16.4012 5.89034 16.4012 5.95277 16.5085 5.95277C16.5569 5.95277 16.6053 5.96665 16.6157 5.98746C16.6261 6.0048 16.6157 6.02215 16.588 6.02215C16.5431 6.02215 16.3908 6.1609 16.3908 6.20252C16.3908 6.23374 16.5949 6.1713 16.6503 6.12621C16.6745 6.1054 16.8025 6.09499 16.934 6.09846C17.1934 6.1054 17.273 6.07765 17.2419 5.99787C17.2315 5.97012 17.2453 5.92502 17.273 5.8938C17.3456 5.82443 17.3214 5.76546 17.2176 5.74465C17.1727 5.73424 17.1312 5.70649 17.1242 5.67874C17.1104 5.61284 16.9098 5.32146 16.844 5.26943C16.7956 5.23474 16.7956 5.22434 16.8509 5.16537C16.934 5.07171 16.9236 5.01621 16.8267 5.01621C16.7264 5.01621 16.678 4.96418 16.7506 4.93643C16.8094 4.91215 16.8925 4.7734 16.8475 4.7734C16.8302 4.7734 16.7956 4.79768 16.7714 4.82543Z" fill="white"/>
<path d="M16.0726 5.45148C16.0449 5.51391 16.0138 5.53473 15.9653 5.52085C15.8754 5.50004 15.8235 5.63879 15.8996 5.70123C15.9515 5.73938 15.948 5.74979 15.8789 5.79835C15.692 5.93016 15.8546 6.00995 16.1176 5.91629C16.3147 5.85038 16.3562 5.80529 16.3562 5.66654C16.3562 5.61451 16.3735 5.56248 16.3908 5.55207C16.4669 5.50351 16.4254 5.40291 16.3182 5.3821C16.1452 5.34741 16.1141 5.35782 16.0726 5.45148Z" fill="white"/>
<path d="M34.0198 10.352C33.9472 10.4908 33.9507 10.5948 34.0337 10.7162L34.0994 10.8203L34.134 10.7267C34.1997 10.5602 34.2066 10.4804 34.179 10.3763C34.1409 10.2341 34.0821 10.2272 34.0198 10.352Z" fill="white"/>
<path d="M4.96796 10.7053C4.91261 10.7469 4.87109 10.8094 4.87109 10.8475C4.87109 10.9377 4.92298 10.9308 4.99909 10.8336C5.10287 10.7018 5.13747 10.6984 5.36578 10.7781C5.61486 10.8649 5.70134 10.9308 5.70134 11.0314C5.70134 11.1736 5.74286 11.1909 5.98847 11.1666C6.11647 11.1562 6.24792 11.1285 6.27906 11.1042C6.33095 11.066 6.32057 11.0556 6.21333 11.021C6.1476 11.0001 6.04728 10.9342 5.99539 10.8787C5.87431 10.7539 5.65291 10.681 5.31043 10.6533C5.09249 10.6359 5.05098 10.6429 4.96796 10.7053Z" fill="white"/>
<path d="M6.47973 11.1965C6.50394 11.304 6.46589 11.356 6.34481 11.3699C6.17184 11.3872 6.1926 11.467 6.37249 11.467C6.45897 11.467 6.53162 11.4809 6.53162 11.5017C6.53162 11.5572 6.64232 11.5399 6.68729 11.4774C6.71497 11.4427 6.79799 11.415 6.92599 11.4046C7.03323 11.3976 7.11971 11.3768 7.11971 11.3595C7.11971 11.3456 7.06782 11.2936 7.00555 11.245C6.92599 11.1826 6.85334 11.1583 6.75648 11.1618C6.68037 11.1652 6.58351 11.1548 6.53854 11.141C6.46935 11.1167 6.46243 11.1236 6.47973 11.1965Z" fill="white"/>
<path d="M32.5876 11.1453C32.5461 11.1523 32.4942 11.1904 32.4769 11.2251C32.3905 11.3916 32.6015 11.4714 32.7053 11.3118C32.7571 11.2286 32.7537 11.1141 32.6949 11.1245C32.681 11.128 32.6326 11.1384 32.5876 11.1453Z" fill="white"/>
<path d="M34.2689 11.3308C34.2308 11.3516 34.2066 11.4071 34.2066 11.4765C34.2066 11.5389 34.1824 11.6326 34.1547 11.6846C34.0925 11.806 34.1236 11.976 34.2136 12.0245C34.262 12.0488 34.2758 12.0835 34.262 12.1355C34.2516 12.1806 34.2724 12.2431 34.3104 12.2882C34.3934 12.3922 34.4142 12.3887 34.4142 12.2639C34.4142 12.1633 34.4177 12.1633 34.5076 12.2049C34.5595 12.2257 34.6598 12.309 34.729 12.3853C34.8397 12.5032 34.8501 12.5275 34.8051 12.5552C34.7705 12.5761 34.7186 12.5657 34.6564 12.5275C34.601 12.4963 34.5491 12.472 34.5387 12.472C34.4903 12.472 34.5214 12.6489 34.5802 12.7079C34.6148 12.7426 34.6529 12.7981 34.6667 12.8293C34.6909 12.8917 34.7498 12.9021 34.8432 12.8674C34.9158 12.8397 34.9123 12.7877 34.8397 12.7079C34.7878 12.6489 34.7878 12.6385 34.8293 12.6107C34.9089 12.5587 34.94 12.5865 34.9885 12.753C35.0334 12.8952 35.03 12.9091 34.9608 12.9611C34.9227 12.9923 34.8605 13.0097 34.8259 13.0027C34.7498 12.9819 34.6391 13.0929 34.6079 13.2212C34.5872 13.3149 34.5906 13.3184 34.6391 13.2559C34.6667 13.2178 34.7255 13.1866 34.774 13.1796C34.8432 13.1727 34.8605 13.19 34.8778 13.2872C34.8916 13.3635 34.94 13.4328 35.0023 13.4779L35.1061 13.5508V13.4259C35.1061 13.3253 35.1199 13.3045 35.1683 13.3114C35.2064 13.3184 35.2237 13.3045 35.2133 13.2698C35.2099 13.2421 35.1995 13.138 35.196 13.0374C35.1926 12.9056 35.1718 12.8362 35.113 12.7738C35.0715 12.7287 35.0369 12.6489 35.0369 12.5969C35.0369 12.4581 34.9815 12.3749 34.8639 12.3506C34.774 12.3298 34.7636 12.3159 34.7809 12.2327C34.7982 12.1494 34.7878 12.1321 34.7013 12.0974C34.6494 12.0766 34.5664 12.0557 34.518 12.0488C34.4453 12.0384 34.4315 12.0176 34.4211 11.9101C34.4142 11.8407 34.4246 11.7505 34.4453 11.7158C34.4695 11.6707 34.4695 11.6048 34.4453 11.5146C34.3969 11.3377 34.345 11.2857 34.2689 11.3308Z" fill="white"/>
<path d="M33.7811 13.373C33.7465 13.4459 33.6669 13.5395 33.6012 13.5811C33.5389 13.6193 33.4421 13.7025 33.3867 13.765C33.3314 13.8274 33.2484 13.8933 33.1965 13.9176C33.1446 13.9419 33.0788 14.0078 33.0477 14.0702C32.9958 14.1674 32.9785 14.1778 32.8678 14.1604C32.7744 14.1431 32.7502 14.15 32.7675 14.1882C32.7779 14.2159 32.771 14.2471 32.7537 14.2575C32.6983 14.2922 32.7156 14.4587 32.7883 14.5801C32.8263 14.6426 32.8574 14.7466 32.8574 14.8091C32.8574 14.9582 32.9336 15.0172 33.0996 15.0103C33.1722 15.0033 33.2899 15.0241 33.3625 15.0554C33.5113 15.1178 33.6289 15.1213 33.7292 15.0692C33.7846 15.038 33.7949 15.0103 33.7776 14.9166C33.7569 14.8195 33.7707 14.7848 33.8607 14.6911C33.9368 14.6148 33.9644 14.5524 33.9644 14.4657C33.9644 14.3651 33.9783 14.3408 34.0509 14.3235C34.1547 14.2992 34.1582 14.2749 34.0682 14.1604C33.9748 14.0425 33.9817 13.9003 34.0855 13.7476C34.134 13.6783 34.172 13.5985 34.172 13.5742C34.172 13.5326 33.8987 13.2343 33.8607 13.2343C33.8503 13.2343 33.8157 13.2967 33.7811 13.373Z" fill="white"/>
<path d="M30.6988 13.5388C30.6539 13.5839 30.6815 13.6394 30.7784 13.6949C30.8372 13.7261 30.9202 13.8128 30.9687 13.8891C31.0171 13.9654 31.0863 14.0383 31.1243 14.0521C31.1624 14.0625 31.2177 14.1146 31.2454 14.1666C31.3803 14.4268 31.4841 14.6626 31.5429 14.843C31.6121 15.0615 31.8058 15.2766 32.0272 15.3737C32.1414 15.4258 32.1483 15.4258 32.2106 15.3495C32.2486 15.3044 32.2659 15.2419 32.2556 15.1968C32.2452 15.1552 32.2659 15.065 32.304 14.9956L32.3732 14.8673H32.2867C32.2383 14.8673 32.2002 14.85 32.2002 14.8326C32.2002 14.8118 32.1345 14.7355 32.0584 14.6592C31.9477 14.5516 31.9235 14.51 31.9511 14.4753C31.9823 14.4406 31.9581 14.4025 31.8439 14.3088C31.7643 14.2429 31.6398 14.1527 31.5706 14.1076C31.498 14.066 31.4115 13.9828 31.3803 13.9238C31.3354 13.851 31.2247 13.7746 31.0206 13.6671C30.8545 13.5873 30.7127 13.5284 30.6988 13.5388Z" fill="white"/>
<path d="M34.9504 14.211C34.8674 14.2596 34.812 14.2665 34.6736 14.2423C34.3969 14.1937 34.3588 14.2006 34.3173 14.2943C34.2931 14.3429 34.2758 14.4226 34.2758 14.4677C34.2758 14.5128 34.2447 14.6204 34.2066 14.7071C34.1547 14.8354 34.1478 14.8875 34.1755 14.9638C34.1962 15.0158 34.2135 15.1303 34.2101 15.2205C34.2066 15.3904 34.2377 15.4216 34.345 15.3523C34.383 15.328 34.3934 15.2655 34.39 15.1095C34.383 14.9117 34.4142 14.8493 34.473 14.943C34.4868 14.9672 34.5007 15.0019 34.5007 15.0227C34.511 15.1233 34.5698 15.269 34.6183 15.3037C34.7532 15.4078 34.8085 15.2135 34.7013 14.9985C34.6702 14.936 34.6321 14.8562 34.6148 14.8215C34.5906 14.773 34.6044 14.7418 34.6702 14.6897C34.7221 14.6516 34.7601 14.603 34.7601 14.5857C34.7601 14.5406 34.5975 14.5475 34.5145 14.5961C34.4557 14.6342 34.4384 14.6308 34.3934 14.5718C34.2758 14.4122 34.4073 14.2631 34.5941 14.3463C34.8362 14.4504 35.0922 14.381 35.0645 14.218C35.0542 14.1521 35.0507 14.1521 34.9504 14.211Z" fill="white"/>
<path d="M35.9121 14.5441C35.8671 14.551 35.8325 14.5718 35.8325 14.5857C35.8325 14.6239 35.9501 14.7279 35.9951 14.7279C36.0435 14.7279 36.1612 14.8632 36.1335 14.8875C36.092 14.9291 36.2131 15.1095 36.2753 15.0991C36.3549 15.0887 36.8046 15.2448 36.8773 15.3072C36.9637 15.3835 36.9983 15.6298 36.9257 15.6714C36.8427 15.72 36.86 15.7686 36.9568 15.7686C37.0052 15.7686 37.1229 15.8067 37.2163 15.8553C37.455 15.9767 37.5345 15.9663 37.704 15.8032C37.7836 15.7269 37.8597 15.6645 37.877 15.6645C37.8908 15.6645 37.9773 15.7512 38.0673 15.8553C38.1884 15.9975 38.2748 16.0599 38.3994 16.1016C38.4893 16.1293 38.5827 16.1501 38.6069 16.1432C38.6277 16.1362 38.5516 16.0322 38.4374 15.9108C38.2057 15.6749 38.1468 15.5604 38.2575 15.5604C38.2921 15.5604 38.3233 15.5396 38.3233 15.5119C38.3233 15.446 38.1607 15.3176 38.0777 15.3176C38.0361 15.3176 38.0119 15.2933 38.0119 15.2517C38.0119 15.2136 37.96 15.1442 37.9012 15.0991C37.6833 14.9361 37.0606 14.6586 36.9118 14.6586C36.8842 14.6586 36.7977 14.7314 36.7147 14.8216L36.5659 14.9812L36.4414 14.8459C36.341 14.7383 36.3203 14.6932 36.3376 14.6135C36.3583 14.5198 36.3549 14.5198 36.1715 14.5233C36.0712 14.5267 35.9536 14.5372 35.9121 14.5441Z" fill="white"/>
<path d="M32.3213 15.411C32.1552 15.4526 32.1137 15.5601 32.2659 15.5601C32.3247 15.5601 32.4147 15.5983 32.4769 15.6503C32.5634 15.7232 32.6499 15.7509 32.937 15.7926C33.1308 15.8203 33.3522 15.8654 33.4248 15.8897C33.539 15.9313 33.5839 15.9313 33.6981 15.8897C33.8019 15.855 33.8572 15.8515 33.9057 15.8793C33.9437 15.8966 34.0613 15.907 34.1686 15.9001C34.2758 15.8897 34.4073 15.8966 34.4661 15.9105C34.5249 15.9278 34.6148 15.9278 34.6736 15.9105C34.729 15.8931 34.8397 15.8689 34.9158 15.855L35.0542 15.8342L34.9158 15.9278C34.8397 15.9799 34.774 16.025 34.774 16.025C34.7705 16.0284 34.7567 16.0666 34.7428 16.1117C34.7221 16.1845 34.7428 16.1741 34.9054 16.0354C35.0092 15.9486 35.1372 15.8585 35.1925 15.8376C35.286 15.803 35.2894 15.7926 35.2341 15.7648C35.1925 15.7405 35.113 15.744 34.985 15.7717C34.8432 15.803 34.774 15.803 34.7082 15.7752C34.6425 15.744 34.5975 15.7475 34.5111 15.7821C34.4211 15.8203 34.3554 15.8238 34.2066 15.796C34.1028 15.7752 33.923 15.7544 33.8088 15.7509C33.4283 15.7405 33.1999 15.6677 33.3591 15.6087C33.449 15.574 33.3764 15.5255 33.2345 15.5255C33.1584 15.5255 33.0581 15.5012 33.0097 15.4665C32.9267 15.4145 32.9232 15.4145 32.9024 15.4838C32.8748 15.5948 32.6741 15.5879 32.5392 15.4734C32.4839 15.4249 32.425 15.3902 32.4147 15.3902C32.4008 15.3936 32.3593 15.4041 32.3213 15.411Z" fill="white"/>
<path d="M35.9813 16.3223C36.002 16.4125 35.9917 16.4264 35.9086 16.4437C35.8567 16.4576 35.791 16.4784 35.7633 16.4923C35.6976 16.527 35.5558 16.7767 35.5765 16.8149C35.5869 16.8287 35.5904 16.8426 35.5835 16.8426C35.5765 16.8426 35.5212 16.8565 35.4589 16.8738C35.3551 16.9051 35.3413 16.8981 35.3067 16.8218C35.2306 16.6588 35.0196 16.6796 34.9954 16.853C34.9884 16.9085 34.9642 16.9259 34.9089 16.9189C34.8639 16.912 34.8293 16.9259 34.8293 16.9467C34.8293 16.9675 34.774 17.0369 34.7082 17.1062C34.6114 17.2034 34.5837 17.2172 34.5664 17.1722C34.5491 17.1271 34.5353 17.1305 34.4799 17.193C34.4419 17.2346 34.4142 17.297 34.4142 17.3317C34.4142 17.4705 34.2135 17.63 33.9091 17.741C33.7465 17.8 33.5909 17.8486 33.5632 17.8486C33.532 17.8486 33.4386 17.9006 33.3487 17.9596C33.2588 18.022 33.1619 18.074 33.1342 18.074C33.0996 18.074 33.0789 18.1191 33.0719 18.2197C33.065 18.2995 33.0408 18.3827 33.0131 18.4036C32.982 18.4313 32.9716 18.4799 32.9855 18.5458C32.9993 18.6221 32.9889 18.6602 32.944 18.6949C32.8921 18.7331 32.8886 18.7504 32.9267 18.8163C32.9509 18.8649 32.9682 19.0592 32.9716 19.302C32.9785 19.6315 32.9682 19.7321 32.9128 19.8535C32.8782 19.9333 32.8263 19.9992 32.7987 19.9992C32.7122 19.9992 32.7502 20.1345 32.8575 20.19C32.9993 20.2628 33.065 20.2559 33.283 20.1379C33.449 20.0512 33.5182 20.0339 33.7223 20.0339C33.8572 20.0339 33.9645 20.02 33.9645 19.9992C33.9645 19.8882 34.6633 19.6697 35.0092 19.6766C35.3102 19.6801 35.6042 19.9055 35.535 20.0824C35.497 20.1796 35.6215 20.1934 35.7045 20.0963C35.7979 19.9888 35.9709 19.8812 35.9709 19.9298C35.9709 19.9472 35.9259 20.0061 35.8671 20.0582C35.7426 20.1692 35.7287 20.2385 35.8498 20.1587C35.9571 20.0859 35.9674 20.0894 35.9467 20.1726C35.9363 20.2108 35.8671 20.2663 35.7945 20.301C35.6526 20.3634 35.6284 20.3946 35.708 20.4258C35.7357 20.4362 35.791 20.4085 35.836 20.3599C35.9467 20.242 35.9813 20.2559 35.9605 20.412C35.9363 20.5993 36.0297 20.745 36.2027 20.7935C36.3826 20.8456 36.4725 20.8421 36.5244 20.7797C36.5798 20.7137 36.6282 20.7137 36.6282 20.7762C36.6282 20.8005 36.6489 20.8421 36.6732 20.8629C36.7112 20.8907 36.7562 20.8733 36.8738 20.7831C36.9637 20.7137 37.0814 20.6582 37.1609 20.6478C37.2336 20.6374 37.3028 20.6166 37.3166 20.5993C37.4273 20.4293 37.922 19.8639 37.9877 19.8292C38.1296 19.7529 38.3579 19.3228 38.4617 18.9412L38.5551 18.5909L38.4582 18.4556C38.4063 18.3793 38.351 18.2752 38.3406 18.2232C38.3267 18.1677 38.2852 18.1052 38.2472 18.0775C38.2057 18.0463 38.1745 17.9804 38.1676 17.911C38.1607 17.8382 38.1123 17.7445 38.0292 17.6474C37.8943 17.4913 37.8044 17.2589 37.8044 17.0646C37.8044 16.8842 37.7456 16.7663 37.6695 16.7906C37.6141 16.8079 37.6003 16.7871 37.5795 16.6622C37.4861 16.0726 37.41 16.076 37.3062 16.6865C37.2474 17.0265 37.1021 17.3282 37.0018 17.3282C36.9291 17.3282 36.7631 17.2311 36.7216 17.1652C36.7077 17.1409 36.6282 17.0577 36.5417 16.9779L36.3929 16.8357L36.4933 16.6831C36.5521 16.5998 36.6109 16.5235 36.6316 16.5131C36.6697 16.4853 36.6697 16.4576 36.6316 16.3952C36.6074 16.357 36.5798 16.357 36.4829 16.3917C36.3791 16.4298 36.348 16.4264 36.2234 16.3605C36.1439 16.3223 36.0712 16.2737 36.0574 16.2529C36.009 16.1766 35.964 16.2217 35.9813 16.3223Z" fill="white"/>
<path d="M23.9634 16.5188C23.9115 16.5743 23.825 16.6888 23.7662 16.7755C23.6866 16.8969 23.6105 16.9559 23.4687 17.0183C23.2335 17.1189 23.147 17.2681 23.2058 17.4658C23.2611 17.6531 23.2473 17.778 23.1574 17.9306C23.1055 18.0208 23.0709 18.1388 23.0674 18.2463C23.0536 18.4926 23.057 18.4995 23.1574 18.5932C23.3615 18.7839 23.6071 18.6487 23.7039 18.2914C23.7939 17.9514 23.8942 17.608 23.9738 17.3687C24.0118 17.2508 24.0326 17.1259 24.0222 17.0981C24.0084 17.06 24.0257 17.0357 24.0706 17.0253C24.1294 17.0079 24.1398 16.9767 24.1398 16.7929C24.1364 16.6784 24.1191 16.5466 24.0949 16.5015L24.0499 16.4252L23.9634 16.5188Z" fill="white"/>
</g>
</g>
</g>
<defs>
<clipPath id="clip0_473_25805">
<rect width="36" height="24" rx="4" fill="white"/>
</clipPath>
<clipPath id="clip1_473_25805">
<rect width="36" height="24" fill="white"/>
</clipPath>
<clipPath id="clip2_473_25805">
<rect width="44.28" height="22.2" fill="white" transform="translate(-3.12 1.44141)"/>
</clipPath>
</defs>
</svg>
