<svg width="36" height="24" viewBox="0 0 36 24" fill="none" xmlns="http://www.w3.org/2000/svg">
<g clip-path="url(#clip0_1078_23463)">
<path d="M36 0H0V24H36V0Z" fill="white"/>
<path d="M36 0H9V24H36V0Z" fill="#01411C"/>
<path d="M22.5 19.2008C26.4764 19.2008 29.7 15.9772 29.7 12.0008C29.7 8.02433 26.4764 4.80078 22.5 4.80078C18.5235 4.80078 15.3 8.02433 15.3 12.0008C15.3 15.9772 18.5235 19.2008 22.5 19.2008Z" fill="white"/>
<path d="M28.7252 15.2974C31.4496 12.8757 31.695 8.70407 29.2733 5.97971C26.8516 3.25534 22.68 3.00995 19.9556 5.43161C17.2312 7.85326 16.9858 12.0249 19.4075 14.7493C21.8292 17.4737 26.0008 17.7191 28.7252 15.2974Z" fill="#01411C"/>
<path d="M25.1255 6.61231L28.1583 10.0243L23.6992 9.04661L27.8814 7.21654L25.5736 11.1553L25.1255 6.61231Z" fill="white"/>
</g>
<defs>
<clipPath id="clip0_1078_23463">
<rect width="36" height="24" fill="white"/>
</clipPath>
</defs>
</svg>
